<svg width="24" height="24" viewBox="0 0 24 24" fill="none" xmlns="http://www.w3.org/2000/svg">
<path d="M8.39989 8.52312L9.89324 10.7346L11.1836 8.81039L10.1928 7.35048C9.94832 6.98375 9.81703 6.55816 9.81703 6.11445C9.81703 4.89654 10.8086 3.90499 12.0265 3.90499C13.2444 3.90499 14.2359 4.89654 14.2359 6.11445C14.2359 6.55816 14.1046 6.98375 13.8602 7.35048L8.39989 15.4775C7.9245 16.1883 7.67096 17.0214 7.67096 17.8862C7.67096 20.2858 9.62687 22.2417 12.0265 22.2417C14.4261 22.2417 16.382 20.2903 16.382 17.8862C16.382 17.0214 16.1285 16.1883 15.6531 15.473V15.4775L14.312 13.4916L13.0217 15.4113L13.8602 16.6456C14.1046 17.0123 14.2359 17.4379 14.2359 17.8816C14.2359 19.0995 13.2444 20.0911 12.0265 20.0911C10.8086 20.0911 9.81703 19.0995 9.81703 17.8816C9.81703 17.4379 9.94832 17.0123 10.1928 16.6456L15.6531 8.5186C16.1285 7.80777 16.382 6.97469 16.382 6.10992C16.382 3.71031 14.4261 1.75439 12.0265 1.75439C9.62687 1.75439 7.67096 3.70578 7.67096 6.10992C7.67096 6.97469 7.9245 7.80776 8.39989 8.52312Z" fill="white"/>
<path fill-rule="evenodd" clip-rule="evenodd" d="M9.23488 11.9933L7.35879 9.21499C6.74774 8.29551 6.42096 7.22191 6.42096 6.10992C6.42096 3.01458 8.93736 0.504395 12.0265 0.504395C15.1165 0.504395 17.632 3.01995 17.632 6.10992C17.632 7.2213 17.3055 8.29635 16.6921 9.2135L16.6906 9.2157L14.833 11.9806L16.6941 14.7811C17.3052 15.7006 17.632 16.7741 17.632 17.8862C17.632 20.9815 15.1156 23.4917 12.0265 23.4917C8.93652 23.4917 6.42096 20.9761 6.42096 17.8862C6.42096 16.7748 6.74746 15.6997 7.36085 14.7826L7.36232 14.7804L9.23488 11.9933ZM12.0305 7.83231L12.8201 6.6571C12.8204 6.65659 12.8208 6.65607 12.8211 6.65556C12.9302 6.49134 12.9859 6.30694 12.9859 6.11445C12.9859 5.58689 12.554 5.15499 12.0265 5.15499C11.4989 5.15499 11.067 5.58689 11.067 6.11445C11.067 6.30622 11.1224 6.48993 11.2306 6.65365L12.0305 7.83231ZM10.1928 7.35048C9.94832 6.98375 9.81703 6.55816 9.81703 6.11445C9.81703 4.89654 10.8086 3.90499 12.0265 3.90499C13.2444 3.90499 14.2359 4.89654 14.2359 6.11445C14.2359 6.55816 14.1046 6.98375 13.8602 7.35048L8.39989 15.4775C7.9245 16.1883 7.67096 17.0214 7.67096 17.8862C7.67096 20.2858 9.62687 22.2417 12.0265 22.2417C14.1546 22.2417 15.9338 20.7069 16.3091 18.6826C16.357 18.4243 16.382 18.1581 16.382 17.8862C16.382 17.0232 16.1295 16.1918 15.6561 15.4775C15.6558 15.477 15.6555 15.4765 15.6551 15.4761C15.6544 15.475 15.6538 15.474 15.6531 15.473V15.4775L14.312 13.4916L13.0217 15.4113L13.8602 16.6456C14.1046 17.0123 14.2359 17.4379 14.2359 17.8816C14.2359 19.0995 13.2444 20.0911 12.0265 20.0911C10.8086 20.0911 9.81703 19.0995 9.81703 17.8816C9.81703 17.4379 9.94832 17.0123 10.1928 16.6456L15.6531 8.5186C16.1285 7.80777 16.382 6.97469 16.382 6.10992C16.382 3.71031 14.4261 1.75439 12.0265 1.75439C9.62687 1.75439 7.67096 3.70578 7.67096 6.10992C7.67096 6.97469 7.9245 7.80776 8.39989 8.52312L9.89324 10.7346L11.1836 8.81039L10.1928 7.35048ZM11.2329 17.339C11.2325 17.3395 11.2322 17.34 11.2319 17.3404C11.1228 17.5047 11.067 17.6891 11.067 17.8816C11.067 18.4092 11.4989 18.8411 12.0265 18.8411C12.554 18.8411 12.9859 18.4092 12.9859 17.8816C12.9859 17.69 12.9307 17.5063 12.8225 17.3426L12.0221 16.1643L11.2329 17.339Z" fill="#101010"/>
</svg>
