<svg width="120" height="20" viewBox="0 0 120 20" fill="none" xmlns="http://www.w3.org/2000/svg">
<path d="M21.9101 7.89326H19.2556V4.26966C19.2556 3.84831 19.1713 3.55337 19.0449 3.3427C18.8764 3.25843 18.7079 3.17416 18.4551 3.17416C18.1601 3.17416 17.9494 3.25843 17.7809 3.3427C17.6966 3.55337 17.6124 3.84831 17.6124 4.26966V16.3202C17.6124 16.7416 17.6966 17.0365 17.7809 17.2472C17.9494 17.3736 18.1601 17.4157 18.4551 17.4157C18.7079 17.4157 18.8764 17.3736 19.0449 17.2472C19.1713 17.0365 19.2556 16.7416 19.2556 16.3202V12.486H21.9101V16.573C21.8258 17.7107 21.4888 18.4691 20.7725 18.8904C20.0562 19.3961 19.2556 19.5646 18.4129 19.5225C17.5281 19.5646 16.7275 19.3961 16.0534 18.8904C15.3792 18.4691 15 17.7107 14.9579 16.573V4.01685C15 2.87921 15.3792 2.07865 16.0534 1.6573C16.8118 1.23596 17.5702 1.02528 18.4129 1.02528C19.2556 1.02528 20.0562 1.23596 20.7725 1.6573C21.4888 2.07865 21.8258 2.87921 21.9101 4.01685V7.89326ZM61.5169 15.8567L60.0421 1.44663H57.3876L59.4101 19.2275H63.4129L65.5197 1.44663H62.8652L61.559 15.8567H61.5169M6.02528 1.44663H2.02247L0 19.2275H2.65449L4.08708 4.81742H4.17135L5.43539 19.2275H8.08989L6.02528 1.44663ZM78.1601 8.35674H75.0843V3.76405H78.2865V1.44663H72.4298V19.2275H78.3708V16.868H75.0843V10.6742H78.1601V8.35674M119.789 8.35674H116.713V3.76405H119.958V1.44663H114.059V19.2275H120V16.868H116.713V10.6742H119.789V8.35674ZM50.5618 4.01685V16.573C50.5197 17.7107 50.1405 18.4691 49.4242 18.8904C48.7079 19.3961 47.9073 19.5646 47.0646 19.5225C46.1798 19.5646 45.3792 19.3961 44.7472 18.8904C44.073 18.4691 43.6517 17.7107 43.6517 16.573V4.01685C43.6517 2.87921 44.073 2.07865 44.7472 1.6573C45.4635 1.23596 46.2219 1.02528 47.0646 1.02528C47.9073 1.02528 48.7079 1.23596 49.4242 1.6573C50.1405 2.07865 50.5197 2.87921 50.5618 4.01685ZM47.9073 4.26966C47.9073 3.84831 47.823 3.55337 47.6966 3.3427C47.5702 3.25843 47.4017 3.17416 47.1067 3.17416C46.8539 3.17416 46.6011 3.25843 46.4747 3.3427C46.3483 3.55337 46.264 3.84831 46.264 4.26966V16.3202C46.264 16.7416 46.3483 17.0365 46.4747 17.2472C46.6011 17.3736 46.8539 17.4157 47.1067 17.4157C47.4017 17.4157 47.5702 17.3736 47.6966 17.2472C47.823 17.0365 47.9073 16.7416 47.9073 16.3202V4.26966ZM102.24 11.3272C103.146 12.1952 103.761 13.7711 103.854 15.0225C103.862 15.1489 103.867 15.2711 103.867 15.3975V16.3792C103.867 16.8006 103.824 17.0955 103.656 17.3062C103.529 17.3905 103.319 17.4747 103.024 17.4747C102.771 17.4747 102.56 17.3905 102.476 17.3062C102.308 17.0955 102.265 16.8006 102.265 16.3792V12.882H99.611V16.632C99.611 17.7275 100.032 18.5281 100.706 18.9916C101.423 19.4129 102.223 19.6236 103.108 19.6236C103.909 19.6236 104.667 19.4129 105.426 18.9916C106.142 18.5281 106.479 17.7275 106.521 16.632V15.4312C106.521 14.9972 106.483 14.5674 106.412 14.1419C106.133 12.5155 105.274 10.6236 104.086 9.48174L103.896 9.30056C102.99 8.43258 102.375 6.85674 102.282 5.60534C102.274 5.47893 102.27 5.35674 102.27 5.23034V4.2486C102.27 3.82725 102.312 3.5323 102.48 3.32163C102.607 3.23736 102.817 3.15309 103.112 3.15309C103.365 3.15309 103.576 3.23736 103.66 3.32163C103.829 3.5323 103.871 3.82725 103.871 4.2486V7.74579H106.525V3.99157C106.525 2.89607 106.104 2.09551 105.43 1.63202C104.713 1.21067 103.913 1 103.028 1C102.228 1 101.469 1.21067 100.711 1.63202C99.9944 2.09551 99.6573 2.89607 99.6152 3.99157V5.19242C99.6152 5.6264 99.6531 6.05618 99.7247 6.48174C100.003 8.10815 100.862 10 102.051 11.1419L102.24 11.323V11.3272ZM87.9775 19.2275H85.323V1.44663H88.8202C89.9157 1.44663 90.7163 1.6573 91.3483 2.07865C91.9382 2.54213 92.2753 3.3427 92.2753 4.4382V6.96629C92.2753 7.68258 92.1489 8.23034 91.8118 8.73596C91.4326 9.24157 90.7163 9.57865 89.6629 9.70506C90.2528 9.78933 90.8006 10 91.2641 10.2949C91.8118 10.5899 92.1067 11.1376 92.191 11.8961V11.9508L92.4817 19.2317H89.9073L89.802 12.4059C89.7346 11.3272 89.1615 10.927 87.9817 11.0112V19.2275H87.9775ZM87.9775 8.82022H88.4832C88.9045 8.82022 89.2416 8.73596 89.368 8.48315C89.5365 8.23034 89.5787 7.97753 89.5787 7.64045V4.39607C89.5787 3.76405 89.2416 3.55337 88.6517 3.55337H87.9775V8.82022ZM31.9803 19.2275H29.3258V1.44663H32.823C33.9185 1.44663 34.7191 1.6573 35.3511 2.07865C35.941 2.54213 36.2781 3.3427 36.2781 4.4382V6.96629C36.2781 7.68258 36.1517 8.23034 35.8146 8.73596C35.4354 9.24157 34.7191 9.57865 33.6657 9.70506C34.2556 9.78933 34.8034 10 35.2669 10.2949C35.8146 10.5899 36.1096 11.1376 36.1938 11.8961V11.9508L36.4846 19.2317H33.9101L33.8048 12.4059C33.7374 11.3272 33.1643 10.927 31.9846 11.0112V19.2275H31.9803ZM31.9803 8.82022H32.486C32.9073 8.82022 33.2444 8.73596 33.3708 8.48315C33.5393 8.23034 33.5815 7.97753 33.5815 7.64045V4.39607C33.5815 3.76405 33.2444 3.55337 32.6545 3.55337H31.9803V8.82022Z" fill="white"/>
</svg>
