<svg width="74" height="74" viewBox="0 0 74 74" fill="none" xmlns="http://www.w3.org/2000/svg">
<path d="M44.8236 47.4033C44.5839 48.6021 44.0844 49.6811 43.3051 50.71C42.5459 51.7091 41.6168 52.4683 40.5278 52.9778C39.399 53.5373 38.2101 53.817 36.9913 53.817C35.7725 53.817 34.5837 53.5373 33.4847 52.9778C32.3758 52.4683 31.4268 51.6991 30.6775 50.71C29.8983 49.6811 29.4087 48.6021 29.159 47.4033C28.9192 46.2144 28.9492 45.0256 29.2589 43.7868C29.4087 43.1974 29.6385 42.638 29.9382 42.1285L38.6097 29.0413V29.0213L38.6297 29.0013L38.7696 28.6317C38.9094 28.0323 38.7895 27.4828 38.4399 27.0432C38.0802 26.5937 37.5608 26.3439 36.9813 26.3439C36.4019 26.3439 35.8924 26.5837 35.5427 27.0432C35.1831 27.5227 35.0732 28.0522 35.233 28.6616L35.4728 29.1811L36.4119 30.5698L35.5727 31.8285L34.5737 30.36C34.1741 29.7905 33.9543 29.351 33.8644 28.9713C33.6746 28.312 33.7045 27.6726 33.9543 27.0432C34.214 26.4138 34.6036 25.9143 35.1331 25.5147C35.7026 25.1251 36.332 24.9253 36.9913 24.9253C37.6507 24.9253 38.28 25.1251 38.8295 25.5047C39.369 25.9043 39.7586 26.4038 40.0283 27.0332C40.2881 27.6726 40.3081 28.302 40.0983 28.9813C40.0183 29.3709 39.7586 29.8804 39.339 30.4599L31.167 42.7279C30.9472 43.1674 30.7774 43.627 30.6275 44.1465C30.3678 45.1055 30.3478 46.1046 30.5576 47.1236C30.7574 48.1625 31.157 49.0517 31.7964 49.8409C32.4158 50.6601 33.185 51.2995 34.0941 51.739C35.0432 52.1886 36.0223 52.4184 37.0013 52.4184C37.9803 52.4184 38.9394 52.1986 39.9284 51.739C40.8575 51.2795 41.6268 50.6401 42.2062 49.8409C42.8456 49.0517 43.2452 48.1625 43.445 47.1236C43.6648 46.1445 43.6448 45.1355 43.3751 44.1465C43.2452 43.647 43.0754 43.1774 42.8256 42.6979L40.4679 39.1214L41.2971 37.8826L44.0544 42.0985C44.3141 42.578 44.5339 43.1275 44.7337 43.7768C45.0534 44.9857 45.0834 46.1745 44.8336 47.3933L44.8236 47.4033Z" fill="#F5F5F5"/>
<path d="M42.4957 46.9439C42.2859 47.8131 41.9363 48.5724 41.4168 49.2517C40.9173 49.931 40.2779 50.4605 39.4687 50.8801C38.7094 51.2597 37.8802 51.4495 36.9911 51.4495C36.102 51.4495 35.3028 51.2597 34.5235 50.8801C33.7143 50.4705 33.0749 49.941 32.5455 49.2517C32.006 48.5624 31.6563 47.8131 31.4865 46.9639C31.3167 46.0748 31.3466 45.2356 31.5664 44.3865C31.6663 44.0068 31.8262 43.5972 32.026 43.2176L40.118 31.0195C40.5476 30.4601 40.8573 29.8607 41.0471 29.2513C41.3069 28.4021 41.2769 27.5729 40.9372 26.7038C40.5976 25.8846 40.0881 25.2452 39.3888 24.7257C38.6894 24.2162 37.9102 23.9565 37.071 23.9565H36.9911H36.9012C36.032 23.9565 35.2628 24.2062 34.5535 24.7257C33.8642 25.2352 33.3746 25.8846 33.055 26.7038C32.7253 27.513 32.6753 28.3422 32.8951 29.2513C33.0849 29.8507 33.4046 30.4501 33.7942 30.9896L34.9531 32.7179L34.1039 33.9866L32.036 30.7998C31.8262 30.4101 31.6563 30.0005 31.5664 29.6109C31.3466 28.7817 31.3167 27.9426 31.4865 27.0534C31.6563 26.1843 31.996 25.435 32.5455 24.7557C33.0649 24.0564 33.7143 23.5269 34.5135 23.1273C35.3227 22.7277 36.1319 22.5378 36.9911 22.5378C37.8503 22.5378 38.6894 22.7376 39.4687 23.1273C40.2779 23.5269 40.9173 24.0564 41.4268 24.7557C41.9462 25.415 42.2959 26.1643 42.4957 27.0434C42.6556 27.8826 42.6356 28.7218 42.4358 29.6009C42.3159 30.0105 42.1461 30.4201 41.9562 30.7798L33.8342 42.9878C33.3946 43.5872 33.0749 44.1866 32.9051 44.7761C32.6853 45.6752 32.7353 46.5044 33.0649 47.2936C33.3846 48.1228 33.8742 48.7722 34.5635 49.2917C35.2328 49.8012 36.0021 50.0409 36.9012 50.0409H36.9911H37.081C37.9602 50.0409 38.7194 49.7912 39.3888 49.2917C40.0981 48.7722 40.6076 48.1228 40.9472 47.2936C41.2769 46.4544 41.3069 45.6053 41.0571 44.7661C40.8673 44.1467 40.5676 43.5573 40.168 43.0278L38.9991 41.2895L39.8483 40.0307L41.9463 43.2076C42.1461 43.5872 42.3159 43.9868 42.4358 44.3865C42.6356 45.2856 42.6556 46.1247 42.5057 46.9639L42.4957 46.9439Z" fill="#F5F5F5"/>
<path d="M29.159 26.5836C29.3987 25.3848 29.9082 24.2659 30.6775 23.2569C31.4268 22.2779 32.3658 21.5086 33.4548 20.9891C34.5837 20.4397 35.7725 20.1699 36.9913 20.1699C38.2101 20.1699 39.389 20.4496 40.5278 20.9891C41.6068 21.4986 42.5459 22.2579 43.3051 23.2569C44.0644 24.2659 44.5739 25.3848 44.8236 26.5836C45.0734 27.7925 45.0334 29.0013 44.7237 30.1901C44.5739 30.7795 44.3541 31.349 44.0644 31.8685L35.4628 44.8158L35.233 45.3553C35.0832 45.9347 35.1931 46.4942 35.5627 46.9537C35.9224 47.3933 36.4219 47.633 37.0013 47.653C37.6107 47.653 38.1102 47.4133 38.4599 46.9537C38.8095 46.4942 38.9194 45.9447 38.7696 45.3353L38.6297 44.9956V44.9756L38.6097 44.9557L37.5707 43.3972L38.4099 42.1584L39.4189 43.617C39.7986 44.1964 40.0283 44.646 40.0983 45.0356C40.2981 45.675 40.2781 46.3143 40.0183 46.9337C39.7586 47.5831 39.359 48.0826 38.8195 48.4622C38.28 48.8618 37.6607 49.0616 36.9813 49.0616C36.302 49.0616 35.6826 48.8618 35.1231 48.4622C34.5937 48.0726 34.204 47.5731 33.9443 46.9337C33.6945 46.3143 33.6646 45.675 33.8544 45.0256C33.9843 44.596 34.244 44.0865 34.6336 43.5071L42.8056 31.2291C43.0354 30.8195 43.2152 30.35 43.3451 29.8305C43.6048 28.8314 43.6348 27.8324 43.435 26.8534C43.2152 25.7844 42.8056 24.8953 42.1862 24.146C41.6068 23.3468 40.8375 22.7074 39.8985 22.2279C38.9394 21.7883 37.9803 21.5686 36.9813 21.5686C35.9823 21.5686 35.0033 21.7883 34.0742 22.2279C33.1451 22.6875 32.3958 23.3168 31.7864 24.136C31.157 24.8953 30.7374 25.8044 30.5476 26.8334C30.3378 27.8624 30.3578 28.8414 30.6175 29.8305C30.7674 30.3599 30.9472 30.8095 31.167 31.2391L33.5247 34.8256L32.6855 36.0943L30.3978 32.6677L29.9482 31.8785C29.6885 31.4189 29.4687 30.8794 29.2589 30.1901C28.9492 28.9713 28.9192 27.7525 29.159 26.5836V26.5836Z" fill="#F5F5F5"/>
</svg>
