<svg width="74" height="74" viewBox="0 0 74 74" fill="none" xmlns="http://www.w3.org/2000/svg">
<path d="M4.29986 36.0302C3.73986 36.0002 3.30986 35.5702 3.33986 35.0702C3.35986 34.5702 3.83986 34.1902 4.38986 34.2202C4.94986 34.2502 5.37986 34.6802 5.35986 35.1802C5.33986 35.6902 4.85986 36.0702 4.29986 36.0402V36.0302Z" fill="#F5F5F5"/>
<path d="M7.23002 32.62L2.27002 29.79L2.55002 28.51L8.24002 28.03L8.00002 29.1L6.69002 29.19L6.31002 30.93L7.46002 31.56L7.22002 32.63L7.23002 32.62ZM5.79002 29.24L3.62002 29.39V29.42L5.52002 30.47L5.79002 29.24Z" fill="#F5F5F5"/>
<path d="M4.77986 24.5101C4.51986 25.2201 4.93986 25.9201 6.00986 26.3301C7.10986 26.7401 7.85986 26.4901 8.12986 25.7901C8.31986 25.2701 8.14986 24.7601 7.63986 24.4601L8.00986 23.5001C8.90986 23.9601 9.49986 25.0001 9.05986 26.1601C8.59986 27.3801 7.29986 27.93 5.64986 27.3C3.98986 26.67 3.38986 25.3901 3.83986 24.1801C4.23986 23.1301 5.20986 22.5801 6.41986 22.9001L6.05986 23.8601C5.46986 23.7201 4.97986 23.9801 4.77986 24.5201V24.5101Z" fill="#F5F5F5"/>
<path d="M5.12012 21.27L6.05012 19.59C6.59012 18.62 7.51012 18.39 8.45012 18.91C9.10012 19.27 9.43012 19.8 9.39012 20.42L11.7501 20.53L11.2101 21.51L9.06012 21.4L8.69012 22.08L10.3801 23.01L9.89012 23.9L5.12012 21.27V21.27ZM8.23012 21.01C8.52012 20.48 8.42012 20.09 7.94012 19.83C7.46012 19.56 7.06012 19.68 6.76012 20.2L6.41012 20.83L7.87012 21.64L8.22012 21.01H8.23012Z" fill="#F5F5F5"/>
<path d="M13.1898 18.73C12.3998 19.77 10.9898 19.94 9.57982 18.87C8.16982 17.79 7.94982 16.39 8.73982 15.35C9.51982 14.32 10.9298 14.14 12.3498 15.22C13.7698 16.3 13.9798 17.7 13.1898 18.74V18.73ZM12.3898 18.13C12.8398 17.53 12.6398 16.74 11.7198 16.04C10.7898 15.33 9.98982 15.35 9.52982 15.95C9.06982 16.56 9.26982 17.34 10.1998 18.04C11.1198 18.74 11.9298 18.73 12.3898 18.12V18.13Z" fill="#F5F5F5"/>
<path d="M15.0803 14.5201L15.1103 14.4901L13.0503 10.6901L13.8503 9.90015L16.4703 14.9701L15.5403 15.8801L10.5103 13.1801L11.3203 12.3901L15.0803 14.5201V14.5201Z" fill="#F5F5F5"/>
<path d="M14.5698 9.36014L17.2098 7.39014L17.7698 8.14014L15.9398 9.50014L16.7298 10.5601L18.4198 9.30014L18.9798 10.0501L17.2898 11.3101L18.0798 12.3701L19.9098 11.0001L20.4698 11.7501L17.8198 13.7301L14.5698 9.36014Z" fill="#F5F5F5"/>
<path d="M18.0898 6.80017L19.7598 5.85017C20.7298 5.30017 21.6298 5.60017 22.1598 6.54017C22.5298 7.19017 22.5198 7.81017 22.1598 8.32017L24.1098 9.65017L23.1298 10.2002L21.3698 8.97017L20.6998 9.35017L21.6498 11.0402L20.7698 11.5402L18.0998 6.79017L18.0898 6.80017ZM20.8698 8.21017C21.3898 7.91017 21.5198 7.53017 21.2498 7.06017C20.9798 6.58017 20.5798 6.46017 20.0598 6.76017L19.4398 7.11017L20.2598 8.57017L20.8798 8.22017L20.8698 8.21017Z" fill="#F5F5F5"/>
<path d="M24.2002 4.70019C23.7202 4.89019 23.5502 5.24019 23.6802 5.58019C23.8202 5.95019 24.2302 5.98019 24.6602 5.91019L25.1102 5.86019C25.9702 5.75019 26.7302 5.95019 27.0702 6.79019C27.4402 7.72019 27.0302 8.57019 25.9202 9.02019C24.8202 9.47019 23.8902 9.18019 23.4302 8.11019L24.3502 7.74019C24.5902 8.24019 25.0502 8.35019 25.5602 8.15019C26.0602 7.95019 26.2702 7.56019 26.1202 7.19019C25.9802 6.84019 25.6302 6.80019 25.0802 6.86019L24.5302 6.93019C23.6802 7.03019 23.0402 6.79019 22.7402 6.05019C22.3702 5.13019 22.8502 4.23019 23.8502 3.83019C24.8602 3.42019 25.7702 3.78019 26.1402 4.67019L25.2302 5.04019C25.0302 4.65019 24.6502 4.53019 24.1902 4.72019L24.2002 4.70019Z" fill="#F5F5F5"/>
<path d="M26.54 2.91008L29.73 2.08008L29.96 2.98008L27.76 3.55008L28.09 4.83008L30.13 4.30008L30.36 5.20008L28.32 5.73008L28.65 7.01008L30.86 6.43008L31.09 7.33008L27.89 8.16008L26.52 2.88008L26.54 2.91008Z" fill="#F5F5F5"/>
<path d="M34.5698 2.39014C33.8098 2.45014 33.3598 3.13014 33.4398 4.28014C33.5298 5.45014 34.0798 6.03014 34.8298 5.98014C35.3898 5.94014 35.7798 5.57014 35.8298 4.97014L36.8598 4.90014C36.8198 5.91014 36.1298 6.89014 34.8898 6.98014C33.5898 7.07014 32.5398 6.12014 32.4098 4.35014C32.2798 2.57014 33.1898 1.49014 34.4798 1.39014C35.6098 1.31014 36.5098 1.96014 36.7298 3.20014L35.7098 3.27014C35.5898 2.68014 35.1398 2.34014 34.5698 2.38014V2.39014Z" fill="#F5F5F5"/>
<path d="M37.6298 1.34008L39.5498 1.47008C40.6598 1.55008 41.2498 2.28008 41.1798 3.36008C41.1298 4.10008 40.7898 4.62008 40.2198 4.85008L41.1198 7.03008L39.9998 6.95008L39.1898 4.96008L38.4198 4.91008L38.2898 6.84008L37.2798 6.77008L37.6298 1.33008V1.34008ZM39.1898 4.05008C39.7898 4.09008 40.0998 3.84008 40.1298 3.29008C40.1698 2.74008 39.8898 2.43008 39.2998 2.38008L38.5898 2.33008L38.4798 4.00008L39.1898 4.05008Z" fill="#F5F5F5"/>
<path d="M42.2702 1.72998L45.5002 2.36998L45.3202 3.28998L43.0802 2.84998L42.8302 4.14998L44.9002 4.55998L44.7202 5.47998L42.6502 5.06998L42.4002 6.36998L44.6402 6.80998L44.4602 7.72998L41.2202 7.08998L42.2602 1.73998L42.2702 1.72998Z" fill="#F5F5F5"/>
<path d="M44.5601 7.68008L47.9401 3.08008L49.1801 3.50008L49.0101 9.20008L47.9801 8.85008L48.0401 7.54008L46.3601 6.96008L45.6001 8.03008L44.5601 7.67008V7.68008ZM48.0801 6.63008L48.1801 4.46008H48.1501L46.8901 6.22008L48.0801 6.63008Z" fill="#F5F5F5"/>
<path d="M50.79 4.10009L54.39 5.85009L53.98 6.69009L52.63 6.03009L50.65 10.0801L49.75 9.64009L51.73 5.59009L50.38 4.93009L50.79 4.09009V4.10009Z" fill="#F5F5F5"/>
<path d="M53.0599 11.45L52.1899 10.92L55.0199 6.28003L55.8899 6.81003L53.0599 11.45Z" fill="#F5F5F5"/>
<path d="M55.8901 11.8501L55.9301 11.8801L59.4001 9.30014L60.3001 9.98014L55.6601 13.2901L54.6201 12.5001L56.5601 7.14014L57.4701 7.83014L55.9101 11.8501H55.8901Z" fill="#F5F5F5"/>
<path d="M60.9001 10.5901L63.2301 12.9201L62.5701 13.5801L60.9601 11.9701L60.0301 12.9001L61.5201 14.3901L60.8601 15.0501L59.3701 13.5601L58.4401 14.4901L60.0501 16.1001L59.3901 16.7601L57.0601 14.4301L60.9001 10.5901V10.5901Z" fill="#F5F5F5"/>
<path d="M62.8298 16.6601C63.2798 16.3301 63.8798 16.3901 64.1798 16.8001C64.4798 17.2001 64.3598 17.8001 63.9098 18.1301C63.4598 18.4601 62.8498 18.4101 62.5498 18.0001C62.2498 17.5901 62.3698 17.0001 62.8198 16.6701L62.8298 16.6601Z" fill="#F5F5F5"/>
<path d="M69.67 22.82L66.51 24.41C65.45 24.95 64.34 24.53 63.77 23.37C63.18 22.21 63.51 21.09 64.58 20.55L67.74 18.96L68.23 19.93L65.15 21.48C64.59 21.77 64.38 22.35 64.67 22.93C64.97 23.51 65.56 23.69 66.12 23.4L69.2 21.85L69.69 22.82H69.67Z" fill="#F5F5F5"/>
<path d="M69.0101 26.55V26.58L71.1301 27.03L71.5001 28.2L68.4201 27.51L66.3201 29.89L65.9401 28.7L67.4001 27.1V27.07L65.2701 26.61L64.8901 25.42L67.9801 26.15L70.0901 23.79L70.4701 24.96L69.0101 26.55V26.55Z" fill="#F5F5F5"/>
<path d="M72.37 33.49L68.88 34.03C67.7 34.21 66.79 33.48 66.59 32.19C66.39 30.91 67.04 29.93 68.22 29.75L71.71 29.21L71.88 30.28L68.48 30.81C67.86 30.91 67.48 31.4 67.58 32.04C67.68 32.69 68.19 33.04 68.81 32.94L72.21 32.41L72.38 33.49H72.37Z" fill="#F5F5F5"/>
<path d="M67.0202 35.89L66.9702 34.81L72.4002 34.54L72.4502 35.62L67.0102 35.88L67.0202 35.89Z" fill="#F5F5F5"/>
<path d="M67.0298 39.3501L72.4198 40.1201L72.1498 41.9601C71.9198 43.5201 70.7798 44.3301 69.0998 44.0801C67.4098 43.8401 66.5398 42.7401 66.7698 41.1601L67.0298 39.3401V39.3501ZM67.7298 41.2701C67.5898 42.2601 68.0398 42.8501 69.2498 43.0201C70.4498 43.1901 71.0498 42.7501 71.1898 41.7701L71.2898 41.0601L67.8198 40.5601L67.7198 41.2701H67.7298Z" fill="#F5F5F5"/>
<path d="M71.5198 45.56L70.5298 48.93L69.6398 48.67L70.3298 46.34L69.0598 45.96L68.4198 48.11L67.5298 47.85L68.1698 45.7L66.8998 45.32L66.2098 47.65L65.3198 47.38L66.3198 44.01L71.5298 45.56H71.5198Z" fill="#F5F5F5"/>
<path d="M68.56 51.3999C68.78 50.8999 68.67 50.5099 68.34 50.3599C67.98 50.1899 67.66 50.4799 67.38 50.8499L67.08 51.2299C66.52 51.9599 65.81 52.3699 64.98 52.0099C64.07 51.5999 63.79 50.6599 64.32 49.4999C64.83 48.3499 65.72 47.8599 66.8 48.3099L66.37 49.2699C65.85 49.0799 65.43 49.3499 65.19 49.8699C64.96 50.3899 65.06 50.8399 65.43 51.0099C65.77 51.1599 66.06 50.9399 66.43 50.4799L66.79 50.0199C67.36 49.3099 68 48.9999 68.73 49.3299C69.63 49.7299 69.89 50.7699 69.42 51.8099C68.94 52.8699 68.02 53.2899 67.14 52.9099L67.57 51.9599C67.98 52.0999 68.35 51.8999 68.57 51.4199L68.56 51.3999Z" fill="#F5F5F5"/>
<path d="M62.8096 52.5599L63.3496 51.6199L68.0796 54.3399L67.5396 55.2799L62.8096 52.5599V52.5599Z" fill="#F5F5F5"/>
<path d="M64.9097 57.55C65.3797 56.89 65.1897 56.07 64.2597 55.4C63.3297 54.72 62.4897 54.77 61.9997 55.44C61.5597 56.05 61.6597 56.66 62.1997 57.08L62.8697 56.16L63.5597 56.66L62.2797 58.42L61.7297 58.02C60.5797 57.18 60.4197 55.91 61.1997 54.84C62.0597 53.66 63.5097 53.48 64.8997 54.49C66.3297 55.53 66.5397 57 65.7297 58.11C65.0397 59.06 63.8897 59.35 62.9397 58.84L63.5797 57.95C64.0797 58.13 64.5597 58 64.8997 57.54L64.9097 57.55Z" fill="#F5F5F5"/>
<path d="M56.5996 60.05L57.2696 59.39L61.3296 60.23L61.3596 60.2L58.9296 57.74L59.6996 56.98L63.5196 60.85L62.8396 61.52L58.7896 60.67L58.7496 60.71L61.1796 63.17L60.4196 63.93L56.5996 60.06V60.05Z" fill="#F5F5F5"/>
<path d="M56.1298 63.7899C56.4398 64.2499 56.3598 64.8499 55.9398 65.1399C55.5198 65.4199 54.9398 65.2699 54.6198 64.8099C54.2998 64.3399 54.3898 63.7399 54.7998 63.4599C55.2198 63.1799 55.8098 63.3199 56.1298 63.7899Z" fill="#F5F5F5"/>
<path d="M51.2699 68.7099C51.7399 68.4999 51.8899 68.1399 51.7499 67.8099C51.5899 67.4499 51.1799 67.4399 50.7499 67.5199L50.2999 67.5899C49.4499 67.7399 48.6799 67.5699 48.2999 66.7499C47.8899 65.8399 48.2599 64.9699 49.3499 64.4799C50.4299 63.9799 51.3699 64.2299 51.8799 65.2799L50.9799 65.6899C50.7199 65.2099 50.2499 65.1099 49.7599 65.3399C49.2699 65.5599 49.0699 65.9599 49.2399 66.3299C49.3899 66.6699 49.7399 66.6999 50.2899 66.6099L50.8399 66.5199C51.6899 66.3799 52.3399 66.5899 52.6699 67.3099C53.0799 68.2099 52.6399 69.1299 51.6599 69.5799C50.6699 70.0299 49.7399 69.7199 49.3299 68.8499L50.2199 68.4499C50.4399 68.8299 50.8199 68.9299 51.2699 68.7199V68.7099Z" fill="#F5F5F5"/>
<path d="M46.3896 65.7099L47.3496 65.3799L49.1396 70.5299L48.1796 70.8599L46.3896 65.7099Z" fill="#F5F5F5"/>
<path d="M41.9897 66.8499L42.8497 66.6499L45.7497 69.5199H45.7897L44.9897 66.1399L45.9797 65.9099L47.2397 71.2099L46.3697 71.4199L43.4897 68.5399H43.4397L44.2397 71.9199L43.2597 72.1499L41.9997 66.8499H41.9897Z" fill="#F5F5F5"/>
<path d="M39.81 71.6101C40.57 71.5401 41.02 70.8601 40.93 69.7101C40.84 68.5401 40.28 67.9601 39.53 68.0201C38.97 68.0701 38.58 68.4401 38.53 69.0401L37.5 69.1201C37.53 68.1101 38.21 67.1301 39.46 67.0301C40.76 66.9201 41.82 67.8701 41.96 69.6401C42.1 71.4201 41.2 72.5101 39.91 72.6201C38.78 72.7101 37.88 72.0601 37.64 70.8301L38.66 70.7501C38.79 71.3401 39.23 71.6701 39.8 71.6301L39.81 71.6101Z" fill="#F5F5F5"/>
<path d="M36.78 72.6701L33.5 72.4901L33.55 71.5601L35.82 71.6801L35.89 70.3601L33.79 70.2501L33.84 69.3201L35.94 69.4301L36.01 68.1101L33.74 67.9901L33.79 67.0601L37.07 67.2401L36.78 72.6801V72.6701Z" fill="#F5F5F5"/>
<path d="M10.1597 52.4099L7.76969 51.6299C7.12969 51.4299 6.74969 51.3499 6.36969 51.5399C5.92969 51.7499 5.80969 52.1799 6.00969 52.5799C6.20969 52.9899 6.62969 53.1199 7.09969 52.8899L7.52969 53.7599C6.57969 54.2299 5.64969 53.8999 5.19969 52.9699C4.73969 52.0299 5.02969 51.1099 5.86969 50.6899C6.42969 50.4199 6.99969 50.4299 8.35969 50.8899L9.40969 51.1999H9.43969L8.51969 49.3099L9.35969 48.8999L10.9097 52.0499L10.1797 52.4199L10.1597 52.4099Z" fill="#F5F5F5"/>
<path d="M6.66973 49.5599C4.98973 50.1299 3.78973 49.7499 3.38973 48.5899C2.99973 47.4299 3.71973 46.3999 5.39973 45.8299C7.08973 45.2599 8.27973 45.6399 8.67973 46.7999C9.06973 47.9599 8.34973 48.9899 6.66973 49.5599ZM7.79973 47.0999C7.61973 46.5599 6.92973 46.4099 5.73973 46.8199C4.55973 47.2199 4.08973 47.7599 4.26973 48.2999C4.44973 48.8299 5.15973 48.9799 6.33973 48.5799C7.52973 48.1799 7.98973 47.6399 7.80973 47.0999H7.79973Z" fill="#F5F5F5"/>
<path d="M5.24985 45.27C3.49985 45.6 2.35985 45.0601 2.13985 43.86C1.90985 42.66 2.77985 41.7301 4.51985 41.4001C6.27985 41.0701 7.39985 41.6101 7.62985 42.8101C7.85985 44.0201 6.99985 44.93 5.24985 45.27ZM6.71985 42.9901C6.60985 42.4301 5.94985 42.19 4.71985 42.43C3.49985 42.66 2.94985 43.14 3.04985 43.69C3.15985 44.24 3.83985 44.48 5.05985 44.25C6.28985 44.02 6.82985 43.5501 6.71985 42.9901Z" fill="#F5F5F5"/>
<path d="M2.5798 38.77H2.5398L2.6898 41.17L1.7698 41.23L1.5498 37.78L2.4898 37.72L7.1198 39.49L7.1898 40.54L2.5898 38.77H2.5798Z" fill="#F5F5F5"/>
<path d="M31.2397 69.5001C22.1397 67.8901 14.3397 62.5501 9.44971 55.1201" stroke="white" stroke-miterlimit="10"/>
</svg>
