<svg width="108" height="108" viewBox="0 0 108 108" fill="none" xmlns="http://www.w3.org/2000/svg">
<path fill-rule="evenodd" clip-rule="evenodd" d="M55.0214 3.68311C27.4185 3.68311 5.04199 26.0596 5.04199 53.6625C5.04199 53.9386 4.81813 54.1625 4.54199 54.1625C4.26585 54.1625 4.04199 53.9386 4.04199 53.6625C4.04199 25.5073 26.8662 2.68311 55.0214 2.68311C83.1765 2.68311 106.001 25.5073 106.001 53.6625C106.001 81.8176 83.1765 104.642 55.0214 104.642C40.3521 104.642 27.1294 98.4454 17.8292 88.5287L17.646 91.8362C17.6307 92.1119 17.3948 92.323 17.1191 92.3077C16.8433 92.2925 16.6322 92.0566 16.6475 91.7808L16.8964 87.2877C16.9117 87.012 17.1476 86.8009 17.4233 86.8162L21.9164 87.0651C22.1921 87.0803 22.4032 87.3162 22.388 87.5919C22.3727 87.8677 22.1368 88.0788 21.8611 88.0635L18.5942 87.8826C27.7114 97.584 40.6586 103.642 55.0214 103.642C82.6242 103.642 105.001 81.2653 105.001 53.6625C105.001 26.0596 82.6242 3.68311 55.0214 3.68311Z" fill="#F5F5F5"/>
<path fill-rule="evenodd" clip-rule="evenodd" d="M86.509 35.5774C76.3974 18.0637 54.0027 12.0631 36.489 22.1746C36.2498 22.3127 35.944 22.2308 35.806 21.9916C35.6679 21.7525 35.7498 21.4467 35.989 21.3086C53.981 10.9209 76.9873 17.0854 87.375 35.0774C97.7627 53.0695 91.5982 76.0758 73.6061 86.4635C55.6141 96.8512 32.6078 90.6867 22.2201 72.6946C16.8634 63.4165 15.9086 52.8041 18.707 43.278L15.745 44.7762C15.4986 44.9008 15.1978 44.8021 15.0732 44.5556C14.9485 44.3092 15.0473 44.0084 15.2937 43.8838L19.3093 41.8528C19.5557 41.7282 19.8565 41.8269 19.9811 42.0733L22.0121 46.0889C22.1368 46.3353 22.038 46.6361 21.7916 46.7607C21.5452 46.8854 21.2444 46.7867 21.1198 46.5402L19.6466 43.6276C16.9464 52.8847 17.8845 63.1851 23.0861 72.1946C33.1977 89.7084 55.5924 95.709 73.1061 85.5975C90.6199 75.4859 96.6205 53.0912 86.509 35.5774Z" fill="#F5F5F5"/>
<path fill-rule="evenodd" clip-rule="evenodd" d="M55.7785 76.1606C67.8019 76.1606 77.5488 66.4137 77.5488 54.3903C77.5488 54.1142 77.7727 53.8903 78.0488 53.8903C78.325 53.8903 78.5488 54.1142 78.5488 54.3903C78.5488 66.966 68.3542 77.1606 55.7785 77.1606C43.2028 77.1606 33.0082 66.966 33.0082 54.3903C33.0082 41.8146 43.2028 31.62 55.7785 31.62C62.0989 31.62 67.8183 34.1957 71.9433 38.3533L72.1278 35.0227C72.1431 34.747 72.3789 34.5358 72.6547 34.5511C72.9304 34.5664 73.1415 34.8023 73.1262 35.078L72.8773 39.5711C72.8621 39.8468 72.6262 40.058 72.3505 40.0427L67.8573 39.7938C67.5816 39.7785 67.3705 39.5426 67.3858 39.2669C67.401 38.9912 67.6369 38.7801 67.9127 38.7953L71.1507 38.9747C67.2123 35.0472 61.7791 32.62 55.7785 32.62C43.7551 32.62 34.0082 42.3669 34.0082 54.3903C34.0082 66.4137 43.7551 76.1606 55.7785 76.1606Z" fill="#F5F5F5"/>
<path d="M40.5752 21.2627C40.5752 23.1957 39.0082 24.7627 37.0752 24.7627C35.1422 24.7627 33.5752 23.1957 33.5752 21.2627C33.5752 19.3297 35.1422 17.7627 37.0752 17.7627C39.0082 17.7627 40.5752 19.3297 40.5752 21.2627Z" fill="#FFC062"/>
<path fill-rule="evenodd" clip-rule="evenodd" d="M37.0752 23.7627C38.4559 23.7627 39.5752 22.6434 39.5752 21.2627C39.5752 19.882 38.4559 18.7627 37.0752 18.7627C35.6945 18.7627 34.5752 19.882 34.5752 21.2627C34.5752 22.6434 35.6945 23.7627 37.0752 23.7627ZM37.0752 24.7627C39.0082 24.7627 40.5752 23.1957 40.5752 21.2627C40.5752 19.3297 39.0082 17.7627 37.0752 17.7627C35.1422 17.7627 33.5752 19.3297 33.5752 21.2627C33.5752 23.1957 35.1422 24.7627 37.0752 24.7627Z" fill="#F5F5F5"/>
<path d="M81.3975 54.3096C81.3975 56.2426 79.8305 57.8096 77.8975 57.8096C75.9645 57.8096 74.3975 56.2426 74.3975 54.3096C74.3975 52.3766 75.9645 50.8096 77.8975 50.8096C79.8305 50.8096 81.3975 52.3766 81.3975 54.3096Z" fill="#101010"/>
<path fill-rule="evenodd" clip-rule="evenodd" d="M77.8975 56.8096C79.2782 56.8096 80.3975 55.6903 80.3975 54.3096C80.3975 52.9289 79.2782 51.8096 77.8975 51.8096C76.5167 51.8096 75.3975 52.9289 75.3975 54.3096C75.3975 55.6903 76.5167 56.8096 77.8975 56.8096ZM77.8975 57.8096C79.8305 57.8096 81.3975 56.2426 81.3975 54.3096C81.3975 52.3766 79.8305 50.8096 77.8975 50.8096C75.9645 50.8096 74.3975 52.3766 74.3975 54.3096C74.3975 56.2426 75.9645 57.8096 77.8975 57.8096Z" fill="#F5F5F5"/>
<path d="M8.5 54.3096C8.5 56.2426 6.933 57.8096 5 57.8096C3.067 57.8096 1.5 56.2426 1.5 54.3096C1.5 52.3766 3.067 50.8096 5 50.8096C6.933 50.8096 8.5 52.3766 8.5 54.3096Z" fill="#101010"/>
<path fill-rule="evenodd" clip-rule="evenodd" d="M5 56.8096C6.38071 56.8096 7.5 55.6903 7.5 54.3096C7.5 52.9289 6.38071 51.8096 5 51.8096C3.61929 51.8096 2.5 52.9289 2.5 54.3096C2.5 55.6903 3.61929 56.8096 5 56.8096ZM5 57.8096C6.933 57.8096 8.5 56.2426 8.5 54.3096C8.5 52.3766 6.933 50.8096 5 50.8096C3.067 50.8096 1.5 52.3766 1.5 54.3096C1.5 56.2426 3.067 57.8096 5 57.8096Z" fill="#F5F5F5"/>
<g clip-path="url(#clip0_299_10203)">
<path fill-rule="evenodd" clip-rule="evenodd" d="M54.2431 33.0573L54.7668 36.8196L58.4794 40.6571L56.1864 42.95L52.4114 39.175L48.6492 38.6513C47.214 38.3789 46.0548 37.3425 45.624 35.9466L43.2696 28.3161L46.9508 32.0521C46.467 32.8478 46.5682 33.9021 47.2553 34.5893C48.0619 35.3958 49.3742 35.3958 50.1807 34.5893C50.9873 33.7827 50.9872 32.4703 50.1807 31.6639C49.4671 30.9503 48.3577 30.8686 47.5529 31.4178L43.8504 27.6602L51.5382 30.0324C52.9343 30.4628 53.9706 31.622 54.2431 33.0573Z" fill="#101010" stroke="#F5F5F5" stroke-width="0.3"/>
<path fill-rule="evenodd" clip-rule="evenodd" d="M51.7963 29.1965L42.5559 26.3454L42.5421 26.3316L42.5346 26.3389L42.4524 26.3137C42.2976 26.2659 42.129 26.3077 42.0145 26.4223C41.8999 26.5368 41.8581 26.7054 41.9059 26.8602L41.9292 26.9358L41.9193 26.9454L41.9379 26.9642L44.7889 36.204C45.3154 37.91 46.732 39.1768 48.4862 39.5096L51.6637 39.9224L55.5926 43.8513C55.9205 44.1793 56.4523 44.1793 56.7803 43.8513L59.3895 41.2421C59.7143 40.9173 59.7179 40.3919 59.3977 40.0626L55.5149 36.0711L55.1021 32.8937C54.7691 31.1397 53.5024 29.7231 51.7963 29.1965ZM54.2431 33.0566L54.7668 36.8189L58.4793 40.6564L56.1864 42.9493L52.4114 39.1742L48.6491 38.6506C47.2139 38.3782 46.0548 37.3417 45.624 35.9459L43.2696 28.3154L46.9508 32.0513C46.467 32.8471 46.5682 33.9014 47.2553 34.5886C48.0619 35.3951 49.3741 35.3951 50.1807 34.5886C50.9872 33.782 50.9871 32.4696 50.1807 31.6632C49.4671 30.9495 48.3576 30.8679 47.5529 31.4171L43.8503 27.6595L51.5382 30.0317C52.9343 30.4621 53.9705 31.6213 54.2431 33.0566Z" fill="#F5F5F5"/>
</g>
<defs>
<clipPath id="clip0_299_10203">
<rect width="23.755" height="23.755" fill="white" transform="translate(38.4199 22.0791)"/>
</clipPath>
</defs>
</svg>
