<svg width="2400" height="1280" viewBox="0 0 2400 1280" fill="none" xmlns="http://www.w3.org/2000/svg">
<g clip-path="url(#clip0_367_12817)">
<path fill-rule="evenodd" clip-rule="evenodd" d="M794.018 -132.537L790.585 -131.261L911.264 157.575L738.321 221.622L568.586 -123.742L565.31 -122.104L734.866 222.901L600.201 272.772L451.752 -129.431L448.32 -128.151L596.766 274.044L475.235 319.052L308.892 -125.767L305.467 -124.47L471.8 320.324L-260.872 591.657L-363.501 365.347L-366.837 366.86L-264.316 592.933L-450 661.698L-448.728 665.133L-263.109 596.392L-135.349 966.636L-130.906 977.542L-317.493 1046.42L-316.24 1049.86L-129.524 980.934L-19.5622 1250.84L-16.1699 1249.46L-126.086 979.665L291.146 825.646L488.51 1069.75L491.358 1067.45L409.652 966.394L667.749 863.156L709.215 981.966L712.674 980.759L670.559 860.09L608.117 709.922L772.75 647.219L830.18 934.367L833.772 933.649L776.221 645.897L874.331 608.53L972.334 876.75L975.775 875.492L877.754 607.226L1103.74 521.155L1103.89 521.552L1107.33 520.297L1107.17 519.851L1759.71 271.318L1859.02 553.555L1983.05 861.887L1086.29 1193.99L975.784 880.781L972.323 881.982L1082.86 1195.27L894.361 1265.07L786.347 954.457L782.884 955.651L926.32 1368.13L929.783 1366.94L895.564 1268.53L1084.08 1198.72L1144.07 1368.77L1147.53 1367.57L1087.51 1197.45L1984.42 865.29L2186.22 1366.94L2189.62 1365.57L2040.29 996.055L2475.7 850.636L2697.48 1375.63L2700.88 1374.26L2479.19 849.473L2479.62 849.329L2478.46 845.855L2477.79 846.079L2422.9 702.903L2730.87 588.849L2760.02 1360.31L2763.68 1360.18L2734.49 587.491L2823.01 554.216L2821.72 550.787L2734.34 583.632L2724.22 222.226L2720.56 222.364L2730.73 584.991L2421.59 699.478L2296.57 373.338L2191.24 104.751L2024.38 -127.867L2021.38 -125.767L2186.77 104.747L1105.91 516.41L1036.2 325.358L916.681 159.475L1648.25 -111.449L1646.98 -114.884L914.717 156.296L794.018 -132.537ZM-199.538 769.389L-259.673 595.12L-37.3397 512.782L29.3703 685.054L-199.538 769.389ZM-198.343 772.852L-131.919 965.347L-127.468 976.272L288.718 822.644L288.4 822.25L199.551 626.26L-198.343 772.852ZM198.258 622.832L144.077 445.597L-33.9042 511.51L32.808 683.787L198.258 622.832ZM913.117 160.795L739.71 225.014L875.794 601.86L875.796 601.866L876.497 603.786L1102.49 517.714L1032.93 327.089L913.117 160.795ZM631.892 264.943L736.275 226.286L872.351 603.11L872.353 603.117L873.074 605.09L775.206 642.364L631.892 264.943ZM505.402 311.786L628.457 266.215L771.783 643.668L649.158 690.372L505.402 311.786ZM147.518 444.323L501.967 313.058L645.735 691.675L605.09 707.156L605.049 707.171L518.938 737.662L518.923 737.668L292.346 821.305L291.543 820.311L202.231 623.301L147.518 444.323ZM407.242 963.413L294.773 824.307L518.451 741.737L574.435 896.536L407.242 963.413ZM1763.14 270.014L1862.45 552.265L1986.08 860.766L2418.15 700.75L2293.15 374.662L2188.57 107.979L1763.14 270.014ZM1987.44 864.17L2038.93 992.649L2474.31 847.24L2419.47 704.175L1987.44 864.17ZM604.677 711.188L521.898 740.5L577.838 895.175L666.443 859.733L604.677 711.188Z" fill="#262626"/>
<path fill-rule="evenodd" clip-rule="evenodd" d="M1888.03 1431.07L1901.86 1426.23L1627.46 642.472L2850 178.249L2844.8 164.55L1622.61 628.638L1349.3 -152L1335.47 -147.158L1608.91 633.841L-348.337 1377.05L-343.136 1390.74L1613.76 647.675L1888.03 1431.07Z" fill="#262626"/>
<path fill-rule="evenodd" clip-rule="evenodd" d="M1523.59 354.824L694.015 670.599L696.622 677.446L873.315 610.188L971.867 887.413L1730.49 599.38L1727.89 592.531L976.263 877.908L880.164 607.581L1519.14 364.356L1598.16 592.129L1605.08 589.728L1523.59 354.824Z" fill="url(#paint0_linear_367_12817)"/>
<path d="M1568.72 621.84C1565.35 612.735 1569.99 602.617 1579.09 599.24L2068.16 417.844C2077.26 414.467 2087.38 419.11 2090.76 428.215L2116.74 498.278C2120.12 507.382 2115.48 517.501 2106.37 520.877L1617.31 702.273C1608.2 705.65 1598.09 701.007 1594.71 691.902L1568.72 621.84Z" fill="#65803D"/>
<path d="M1631.63 654.498L1636.86 652.557L1639.64 628.673L1638.09 624.48L1620.95 630.837L1622.48 634.962L1634.38 630.546L1634.45 630.714L1631.63 654.498Z" fill="#F5F5F5"/>
<path d="M1667.29 614.449L1656.69 618.38L1655.37 614.824L1651.15 616.392L1652.47 619.947L1641.9 623.866L1643.17 627.287L1668.56 617.87L1667.29 614.449ZM1649.43 647.858L1677.37 637.496L1676.1 634.075L1664.16 638.503L1662.85 634.982C1667.8 632.632 1670.19 629.32 1668.93 625.972C1667.57 622.26 1662.68 621.558 1656.35 623.926C1649.88 626.304 1646.7 630.004 1648.1 633.698C1649.32 637.064 1653.26 638.025 1658.63 636.566L1659.93 640.071L1648.16 644.437L1649.43 647.858ZM1652.5 632.068C1651.83 630.33 1653.63 628.731 1657.58 627.246C1661.46 625.826 1663.89 625.858 1664.54 627.602C1665.21 629.413 1663.39 631.025 1659.51 632.445C1655.55 633.93 1653.15 633.885 1652.5 632.068Z" fill="#F5F5F5"/>
<path d="M1682.32 610.437L1681.08 607.083L1676.75 608.688L1677.98 612.008C1679.59 616.391 1678.94 621.382 1674.47 624.95L1678.03 627.445C1681.09 624.858 1682.55 621.477 1682.67 617.788C1685.01 620.143 1688.07 621.563 1691.75 621.554L1692.82 617.341C1687.35 617.518 1683.79 614.378 1682.32 610.437ZM1685.47 637.428L1706.43 629.653L1705.16 626.232L1688.52 632.403L1686.16 626.03L1681.83 627.635L1685.47 637.428ZM1688.37 613.574L1694.11 611.447L1698.78 624.057L1703.04 622.477L1694.68 599.939L1690.42 601.519L1692.82 607.992L1687.09 610.119L1688.37 613.574Z" fill="#F5F5F5"/>
<path d="M1725.66 591.501L1718.75 594.063L1717.68 591.179L1713.42 592.759L1714.49 595.643L1707.55 598.218L1708.81 601.606L1726.92 594.888L1725.66 591.501ZM1712.73 607.666C1713.98 611.02 1717.97 612.114 1722.4 610.489C1726.84 608.824 1729.07 605.422 1727.83 602.068C1726.58 598.714 1722.67 597.588 1718.22 599.22C1713.8 600.878 1711.49 604.312 1712.73 607.666ZM1719.04 617.992L1735.31 611.959L1737.79 618.633L1742.08 617.041L1738.33 606.945L1717.78 614.571L1719.04 617.992ZM1716.93 606.111C1716.33 604.541 1717.37 603.198 1719.42 602.439C1721.48 601.674 1723.18 601.997 1723.77 603.573C1724.35 605.132 1723.25 606.454 1721.18 607.202C1719.15 607.978 1717.49 607.676 1716.93 606.111ZM1733.57 607.263L1737.86 605.671L1734.99 597.923L1739.11 596.393L1737.82 592.905L1733.69 594.435L1730.76 586.52L1726.47 588.112L1733.57 607.263Z" fill="#F5F5F5"/>
<path d="M1769.48 588.564L1757.64 592.955L1756.67 590.339L1765.32 587.13L1764.08 583.776L1747.01 590.108L1745.6 586.318L1762.51 580.048L1761.27 576.727L1740.11 584.577L1743.99 595.042L1752.48 591.894L1753.45 594.51L1741.58 598.914L1742.82 602.268L1770.72 591.918L1769.48 588.564ZM1748.67 608.264C1749.99 611.836 1754.77 612.372 1761.44 609.896C1768.07 607.439 1771.29 603.936 1770 600.352C1768.62 596.742 1763.9 596.204 1757.28 598.661C1750.6 601.136 1747.32 604.641 1748.67 608.264ZM1753.03 606.646C1752.43 605.076 1754.26 603.481 1758.48 601.914C1762.63 600.378 1765.1 600.374 1765.71 601.944C1766.28 603.543 1764.38 605.107 1760.24 606.643C1756.01 608.21 1753.6 608.246 1753.03 606.646Z" fill="#F5F5F5"/>
<path d="M1798.84 583.36L1777.87 591.135L1779.12 594.489L1795.82 588.294L1798.69 596.042L1802.95 594.462L1798.84 583.36ZM1769.68 582.422C1771.3 586.879 1775.99 588.725 1780.62 587.025C1783.08 586.094 1784.9 584.37 1785.78 582.252L1792.64 579.708L1794.07 583.565L1798.33 581.985L1791.63 563.941L1787.37 565.521L1788.89 569.613L1782.03 572.157C1780 571.155 1777.5 571.035 1775.04 571.966C1770.4 573.649 1768.04 578.108 1769.68 582.422ZM1773.74 580.917C1772.84 578.542 1773.99 576.438 1776.37 575.555C1778.62 574.721 1780.89 575.556 1781.79 577.932C1782.7 580.436 1781.51 582.536 1779.27 583.37C1776.89 584.253 1774.65 583.422 1773.74 580.917ZM1786.29 578.172C1786.2 577.592 1786.07 577.013 1785.85 576.426C1785.65 575.89 1785.41 575.388 1785.11 574.946L1790.17 573.067L1791.37 576.287L1786.29 578.172Z" fill="#F5F5F5"/>
<g clip-path="url(#clip1_367_12817)">
<ellipse cx="1548.84" cy="663.626" rx="29.3046" ry="29.3046" fill="#657F3D"/>
<path d="M1549.05 676.338C1547.2 676.338 1545.52 675.942 1544.01 675.149C1542.5 674.348 1541.28 673.041 1540.35 671.229C1539.42 669.409 1538.95 667.047 1538.95 664.142C1538.96 661.383 1539.38 659.001 1540.21 656.994C1541.05 654.988 1542.24 653.455 1543.78 652.395C1545.32 651.335 1547.12 650.805 1549.18 650.805C1550.81 650.805 1552.27 651.121 1553.56 651.752C1554.86 652.383 1555.9 653.248 1556.68 654.349C1557.47 655.449 1557.94 656.683 1558.11 658.05L1553.03 658.05C1552.82 657.176 1552.37 656.489 1551.69 655.987C1551.01 655.485 1550.18 655.235 1549.18 655.235C1548.07 655.235 1547.13 655.554 1546.35 656.193C1545.59 656.824 1545 657.735 1544.61 658.924C1544.22 660.105 1544.02 661.513 1544.01 663.147L1544.23 663.147C1544.8 662.055 1545.66 661.201 1546.8 660.586C1547.94 659.963 1549.21 659.652 1550.6 659.652C1552.07 659.652 1553.4 659.996 1554.58 660.683C1555.77 661.371 1556.7 662.326 1557.37 663.547C1558.04 664.769 1558.38 666.144 1558.38 667.674C1558.38 669.34 1557.99 670.833 1557.2 672.152C1556.43 673.462 1555.33 674.49 1553.91 675.234C1552.5 675.97 1550.88 676.338 1549.05 676.338ZM1548.96 672.273C1549.8 672.273 1550.55 672.079 1551.22 671.69C1551.89 671.294 1552.42 670.756 1552.8 670.076C1553.18 669.397 1553.37 668.644 1553.37 667.819C1553.37 667.002 1553.18 666.258 1552.8 665.586C1552.43 664.915 1551.91 664.385 1551.24 663.996C1550.58 663.608 1549.83 663.414 1549 663.414C1548.17 663.414 1547.42 663.612 1546.74 664.009C1546.06 664.405 1545.52 664.943 1545.13 665.623C1544.74 666.294 1544.54 667.034 1544.53 667.843C1544.53 668.644 1544.72 669.385 1545.1 670.064C1545.49 670.744 1546.02 671.282 1546.69 671.678C1547.37 672.075 1548.13 672.273 1548.96 672.273Z" fill="#F5F5F5"/>
</g>
<ellipse cx="1589.14" cy="561.06" rx="29.3046" ry="29.3046" fill="#657F3D"/>
<path d="M1587.39 573.463L1582.05 573.463L1592.53 553.011L1592.53 552.841L1580.34 552.841L1580.34 548.605L1597.88 548.605L1597.88 552.914L1587.39 573.463Z" fill="#F5F5F5"/>
<g clip-path="url(#clip2_367_12817)">
<path d="M716.351 647.498L693.039 670.81L669.727 647.498C665.117 642.888 661.977 637.013 660.705 630.618C659.433 624.223 660.086 617.594 662.581 611.57C665.076 605.546 669.302 600.398 674.723 596.775C680.145 593.153 686.519 591.219 693.039 591.219C699.56 591.219 705.934 593.153 711.355 596.775C716.776 600.398 721.002 605.546 723.497 611.57C725.993 617.594 726.645 624.223 725.373 630.618C724.101 637.013 720.962 642.888 716.351 647.498ZM693.039 631.512C694.982 631.512 696.846 630.741 698.22 629.367C699.593 627.993 700.365 626.129 700.365 624.186C700.365 622.243 699.593 620.38 698.22 619.006C696.846 617.632 694.982 616.86 693.039 616.86C691.096 616.86 689.233 617.632 687.859 619.006C686.485 620.38 685.713 622.243 685.713 624.186C685.713 626.129 686.485 627.993 687.859 629.367C689.233 630.741 691.096 631.512 693.039 631.512Z" fill="#FFC062"/>
<path fill-rule="evenodd" clip-rule="evenodd" d="M716.351 647.498C720.962 642.888 724.101 637.013 725.373 630.618C726.645 624.223 725.993 617.594 723.497 611.57C721.002 605.546 716.776 600.398 711.355 596.775C705.934 593.153 699.56 591.219 693.039 591.219C686.519 591.219 680.145 593.153 674.723 596.775C669.302 600.398 665.076 605.546 662.581 611.57C660.086 617.594 659.433 624.223 660.705 630.618C661.977 637.013 665.117 642.888 669.727 647.498L693.039 670.81L716.351 647.498ZM693.039 665.63L713.761 644.908C717.859 640.81 720.65 635.588 721.781 629.904C722.911 624.219 722.331 618.327 720.113 612.972C717.895 607.617 714.139 603.041 709.32 599.821C704.501 596.601 698.835 594.882 693.039 594.882C687.243 594.882 681.578 596.601 676.758 599.821C671.939 603.041 668.183 607.617 665.965 612.972C663.747 618.327 663.167 624.219 664.298 629.904C665.428 635.588 668.219 640.81 672.318 644.908L693.039 665.63ZM700.81 631.957C698.749 634.018 695.954 635.176 693.039 635.176C690.125 635.176 687.33 634.018 685.269 631.957C683.208 629.896 682.05 627.101 682.05 624.186C682.05 621.272 683.208 618.477 685.269 616.416C687.33 614.355 690.125 613.197 693.039 613.197C695.954 613.197 698.749 614.355 700.81 616.416C702.871 618.477 704.028 621.272 704.028 624.186C704.028 627.101 702.871 629.896 700.81 631.957ZM698.22 629.367C696.846 630.741 694.982 631.512 693.039 631.512C691.096 631.512 689.233 630.741 687.859 629.367C686.485 627.993 685.713 626.129 685.713 624.186C685.713 622.243 686.485 620.38 687.859 619.006C689.233 617.632 691.096 616.86 693.039 616.86C694.982 616.86 696.846 617.632 698.22 619.006C699.593 620.38 700.365 622.243 700.365 624.186C700.365 626.129 699.593 627.993 698.22 629.367Z" fill="#101010"/>
<path d="M609.032 709.051L610.829 703.69H618.99L620.802 709.051H624.965L617.298 687.368H612.506L604.869 709.051H609.032ZM611.877 700.545L614.812 691.8H614.992L617.942 700.545H611.877Z" fill="#F5F5F5"/>
<path d="M641.137 694.676H645.06C644.386 689.854 640.688 687.069 635.896 687.069C630.221 687.069 625.968 691.201 625.983 698.209C625.968 705.202 630.176 709.35 635.896 709.35C641.032 709.35 644.461 706.026 645.06 701.863H641.137C640.613 704.409 638.531 705.846 635.956 705.846C632.422 705.846 629.891 703.196 629.906 698.209C629.891 693.298 632.407 690.573 635.956 690.573C638.591 690.573 640.673 692.07 641.137 694.676Z" fill="#F5F5F5"/>
<path d="M648.414 709.051H652.308V701.114H656.381L660.633 709.051H664.976L660.289 700.456C662.835 699.422 664.182 697.236 664.197 694.286C664.182 690.153 661.532 687.368 656.56 687.368H648.414V709.051ZM652.308 697.85V690.632H655.961C658.896 690.632 660.214 691.98 660.214 694.286C660.214 696.607 658.896 697.865 655.961 697.85H652.308Z" fill="#F5F5F5"/>
<path d="M686.898 698.209C686.913 691.201 682.631 687.069 676.955 687.069C671.25 687.069 666.997 691.201 667.012 698.209C666.997 705.202 671.25 709.35 676.955 709.35C682.631 709.35 686.913 705.217 686.898 698.209ZM670.936 698.209C670.921 693.253 673.421 690.573 676.955 690.573C680.504 690.573 682.99 693.253 682.975 698.209C682.99 703.166 680.504 705.846 676.955 705.846C673.421 705.846 670.921 703.166 670.936 698.209Z" fill="#F5F5F5"/>
<path d="M692.079 687.368H687.797L695.434 709.051H700.225L707.892 687.368H703.609L697.949 704.469H697.71L692.079 687.368Z" fill="#F5F5F5"/>
<path d="M710.468 709.051H724.633V705.756H714.361V699.827H723.825V696.562H714.361V690.632H724.573V687.368H710.468V709.051Z" fill="#F5F5F5"/>
<path d="M728.317 709.051H732.21V701.114H736.283L740.536 709.051H744.878L740.192 700.456C742.737 699.422 744.085 697.236 744.1 694.286C744.085 690.153 741.434 687.368 736.463 687.368H728.317V709.051ZM732.21 697.85V690.632H735.864C738.799 690.632 740.117 691.98 740.117 694.286C740.117 696.607 738.799 697.865 735.864 697.85H732.21Z" fill="#F5F5F5"/>
<path d="M759.254 693.328H762.997C762.937 689.659 759.808 687.069 755.211 687.069C750.644 687.069 747.244 689.614 747.244 693.448C747.244 696.562 749.461 698.359 753.024 699.288L755.48 699.916C757.831 700.515 759.388 701.234 759.403 702.941C759.388 704.798 757.622 706.041 755.061 706.056C752.59 706.041 750.688 704.933 750.509 702.672H746.675C746.84 706.954 750.045 709.38 755.091 709.38C760.287 709.38 763.297 706.775 763.297 702.971C763.297 699.198 760.182 697.491 756.948 696.742L754.911 696.203C753.114 695.784 751.183 695.035 751.198 693.208C751.213 691.576 752.68 690.378 755.151 690.393C757.487 690.378 759.059 691.456 759.254 693.328Z" fill="#F5F5F5"/>
<path d="M766.531 709.051H780.697V705.756H770.424V699.827H779.888V696.562H770.424V690.632H780.637V687.368H766.531V709.051Z" fill="#F5F5F5"/>
<path d="M637.977 729.713H641.901C641.227 724.891 637.528 722.106 632.736 722.106C627.061 722.106 622.809 726.239 622.823 733.247C622.809 740.24 627.016 744.388 632.736 744.388C637.873 744.388 641.302 741.063 641.901 736.9H637.977C637.453 739.446 635.372 740.884 632.796 740.884C629.262 740.884 626.732 738.233 626.747 733.247C626.732 728.335 629.247 725.61 632.796 725.61C635.432 725.61 637.513 727.107 637.977 729.713Z" fill="#F5F5F5"/>
<path d="M645.255 744.088H649.148V736.152H653.221L657.474 744.088H661.816L657.129 735.493C659.675 734.46 661.023 732.273 661.038 729.323C661.023 725.191 658.372 722.405 653.401 722.405H645.255V744.088ZM649.148 732.887V725.67H652.802C655.737 725.67 657.055 727.017 657.055 729.323C657.055 731.644 655.737 732.902 652.802 732.887H649.148Z" fill="#F5F5F5"/>
<path d="M664.392 744.088H678.558V740.794H668.285V734.864H677.749V731.6H668.285V725.67H678.498V722.405H664.392V744.088Z" fill="#F5F5F5"/>
<path d="M684.997 744.088L686.793 738.727H694.954L696.766 744.088H700.929L693.262 722.405H688.471L680.834 744.088H684.997ZM687.842 735.583L690.777 726.838H690.956L693.906 735.583H687.842Z" fill="#F5F5F5"/>
<path d="M699.911 725.67H706.619V744.088H710.513V725.67H717.191V722.405H699.911V725.67Z" fill="#F5F5F5"/>
<path d="M724.139 722.405H720.246V744.088H724.139V722.405Z" fill="#F5F5F5"/>
<path d="M731.057 722.405H726.775L734.411 744.088H739.203L746.87 722.405H742.587L736.927 739.506H736.688L731.057 722.405Z" fill="#F5F5F5"/>
<path d="M749.446 744.088H763.611V740.794H753.339V734.864H762.803V731.6H753.339V725.67H763.551V722.405H749.446V744.088Z" fill="#F5F5F5"/>
</g>
</g>
<defs>
<linearGradient id="paint0_linear_367_12817" x1="681.866" y1="661.944" x2="1598.57" y2="575.152" gradientUnits="userSpaceOnUse">
<stop stop-color="#FFC062"/>
<stop offset="1" stop-color="#FFC062" stop-opacity="0.15"/>
</linearGradient>
<clipPath id="clip0_367_12817">
<rect width="2400" height="1280" fill="white"/>
</clipPath>
<clipPath id="clip1_367_12817">
<rect width="58.6091" height="58.6091" fill="white" transform="translate(1519.54 634.321)"/>
</clipPath>
<clipPath id="clip2_367_12817">
<rect x="589.117" y="587.556" width="205.132" height="186.817" rx="12" fill="white"/>
</clipPath>
</defs>
</svg>
