<svg width="144" height="144" viewBox="0 0 144 144" fill="none" xmlns="http://www.w3.org/2000/svg">
<g clip-path="url(#clip0_301_14457)">
<path d="M97.5482 118.503C99.2089 118.503 100.846 118.41 102.449 118.248L92.125 118.178C93.9018 118.387 95.7018 118.503 97.5366 118.503H97.5482Z" fill="#F5F5F5"/>
<path d="M84.7858 116.715L110.892 116.552C111.321 116.425 111.739 116.285 112.169 116.146L82.3936 115.96C83.1832 116.239 83.9845 116.483 84.7974 116.715H84.7858Z" fill="#F5F5F5"/>
<path d="M78.8861 114.59L116.744 114.357C116.988 114.241 117.244 114.137 117.487 114.021L77.1094 113.765C77.7016 114.055 78.2939 114.323 78.8978 114.59H78.8861Z" fill="#F5F5F5"/>
<path d="M74.6359 112.453L120.96 112.163C121.122 112.07 121.297 111.977 121.459 111.872L73.1494 111.57C73.6372 111.872 74.1365 112.163 74.6359 112.441V112.453Z" fill="#F5F5F5"/>
<path d="M71.2217 110.316L124.351 109.98C124.467 109.898 124.583 109.817 124.687 109.736L69.9326 109.399C70.3623 109.712 70.792 110.014 71.2217 110.316Z" fill="#F5F5F5"/>
<path d="M68.3539 108.168L127.196 107.796C127.278 107.727 127.359 107.657 127.44 107.587L67.2158 107.216C67.5874 107.541 67.959 107.854 68.3539 108.168Z" fill="#F5F5F5"/>
<path d="M65.892 106.031L129.635 105.636C129.693 105.578 129.763 105.52 129.821 105.462L64.8584 105.056C65.1952 105.392 65.5436 105.718 65.892 106.043V106.031Z" fill="#F5F5F5"/>
<path d="M63.7318 103.883L131.772 103.453C131.772 103.453 131.865 103.348 131.911 103.302L62.8027 102.872C63.1047 103.209 63.4182 103.546 63.7318 103.883Z" fill="#F5F5F5"/>
<path d="M61.8158 101.734L133.642 101.281C133.642 101.281 133.711 101.2 133.746 101.154L61.0029 100.701C61.27 101.049 61.5487 101.397 61.8274 101.734H61.8158Z" fill="#F5F5F5"/>
<path d="M60.1436 99.5859L135.302 99.1214C135.302 99.1214 135.349 99.0517 135.384 99.0169L59.4004 98.5408C59.6443 98.8892 59.8881 99.2492 60.1436 99.5975V99.5859Z" fill="#F5F5F5"/>
<path d="M58.6451 97.4258L136.754 96.9381C136.754 96.9381 136.788 96.88 136.812 96.8452L57.96 96.3574C58.1806 96.7174 58.4129 97.0774 58.6451 97.4258Z" fill="#F5F5F5"/>
<path d="M57.3333 95.2775L138.066 94.7782C138.066 94.7782 138.089 94.7317 138.113 94.7085L56.7178 94.1975C56.9152 94.5691 57.1358 94.9175 57.3449 95.2891L57.3333 95.2775Z" fill="#F5F5F5"/>
<path d="M56.16 93.1291L139.204 92.6065C139.204 92.6065 139.227 92.5717 139.239 92.5485L55.6025 92.0259C55.7767 92.3975 55.9742 92.7575 56.16 93.1291Z" fill="#F5F5F5"/>
<path d="M55.1264 90.9691L140.214 90.4349C140.214 90.4349 140.226 90.4001 140.237 90.3884L54.6387 89.8542C54.7896 90.2259 54.9638 90.5975 55.1264 90.9691Z" fill="#F5F5F5"/>
<path d="M54.2324 88.8208L141.085 88.275C141.085 88.275 141.085 88.2518 141.097 88.2401L53.8027 87.6943C53.9421 88.0776 54.0814 88.4492 54.2324 88.8208Z" fill="#F5F5F5"/>
<path d="M53.4536 86.6608L141.828 86.1034V86.0801L53.082 85.5227C53.1982 85.9059 53.3259 86.2775 53.442 86.6608H53.4536Z" fill="#F5F5F5"/>
<path d="M52.8038 84.5009L142.467 83.9434C142.467 83.9434 142.467 83.9318 142.467 83.9202L52.4902 83.3628C52.5831 83.746 52.6877 84.1292 52.8038 84.5009Z" fill="#F5F5F5"/>
<path d="M52.2584 82.3523L142.978 81.7833C142.978 81.7833 142.978 81.7833 142.978 81.7717L52.0029 81.2026C52.0842 81.5859 52.1655 81.9691 52.2584 82.3523Z" fill="#F5F5F5"/>
<path d="M51.8166 80.1923L143.373 79.6232L51.6191 79.0542C51.6772 79.4374 51.7469 79.8207 51.8166 80.2039V80.1923Z" fill="#F5F5F5"/>
<path d="M51.4918 78.0324L143.675 77.4517L51.3408 76.8711C51.3757 77.2543 51.4337 77.6375 51.4918 78.0324Z" fill="#F5F5F5"/>
<path d="M51.2707 75.8725L143.884 75.2918L51.1895 74.7112C51.2127 75.0944 51.2475 75.4892 51.2824 75.8725H51.2707Z" fill="#F5F5F5"/>
<path d="M51.1432 73.7123L143.977 73.1317L51.1084 72.551C51.1084 72.9343 51.12 73.3291 51.1432 73.7123Z" fill="#F5F5F5"/>
<path d="M51.1084 71.5524L143.977 70.9718L51.1432 70.3911C51.1316 70.7743 51.12 71.1692 51.1084 71.5524Z" fill="#F5F5F5"/>
<path d="M51.1776 69.3922L143.872 68.8116L51.2589 68.231C51.2241 68.6142 51.1892 68.9974 51.166 69.3922H51.1776Z" fill="#F5F5F5"/>
<path d="M51.3408 67.2323L143.675 66.6517L51.4918 66.071C51.4453 66.4543 51.3873 66.8375 51.3408 67.2323Z" fill="#F5F5F5"/>
<path d="M51.6191 65.0724L143.373 64.5034L51.8166 63.9343C51.7469 64.3176 51.6772 64.7008 51.6191 65.084V65.0724Z" fill="#F5F5F5"/>
<path d="M52.0029 62.9007L142.978 62.3316C142.978 62.3316 142.978 62.3316 142.978 62.32L52.2584 61.751C52.1771 62.1342 52.0842 62.5174 52.0029 62.9007Z" fill="#F5F5F5"/>
<path d="M52.4902 60.7408L142.467 60.1834C142.467 60.1834 142.467 60.1718 142.467 60.1602L52.8038 59.6028C52.6993 59.986 52.5948 60.3576 52.4902 60.7408Z" fill="#F5F5F5"/>
<path d="M53.0938 58.5807L141.84 58.0233V58L53.4654 57.4426C53.3376 57.8142 53.2099 58.1975 53.1054 58.5807H53.0938Z" fill="#F5F5F5"/>
<path d="M53.8027 56.4092L141.097 55.8634C141.097 55.8634 141.097 55.8401 141.085 55.8285L54.2324 55.2827C54.0931 55.6543 53.9421 56.0259 53.8027 56.4092Z" fill="#F5F5F5"/>
<path d="M54.6387 54.2491L140.237 53.7149C140.237 53.7149 140.226 53.6801 140.214 53.6685L55.1264 53.1343C54.9638 53.5059 54.7896 53.8775 54.6387 54.2491Z" fill="#F5F5F5"/>
<path d="M55.6025 52.0776L139.239 51.555C139.239 51.555 139.215 51.5202 139.204 51.4969L56.16 50.9744C55.9742 51.346 55.7883 51.706 55.6025 52.0776Z" fill="#F5F5F5"/>
<path d="M56.706 49.9059L138.101 49.395C138.101 49.395 138.078 49.3485 138.054 49.3253L57.3214 48.8259C57.1124 49.1859 56.8918 49.5459 56.6943 49.9175L56.706 49.9059Z" fill="#F5F5F5"/>
<path d="M57.96 47.7459L136.812 47.2581C136.812 47.2581 136.777 47.2001 136.754 47.1652L58.6451 46.6775C58.4129 47.0375 58.1806 47.3859 57.96 47.7459Z" fill="#F5F5F5"/>
<path d="M59.3887 45.5742L135.372 45.0981C135.372 45.0981 135.325 45.0284 135.291 44.9936L60.1319 44.5291C59.8764 44.8774 59.6325 45.2258 59.3887 45.5858V45.5742Z" fill="#F5F5F5"/>
<path d="M61.0028 43.4027L133.746 42.9498C133.746 42.9498 133.676 42.8685 133.642 42.822L61.8157 42.3691C61.537 42.7059 61.2699 43.0543 60.9912 43.4027H61.0028Z" fill="#F5F5F5"/>
<path d="M62.8027 41.231L131.911 40.8013C131.911 40.8013 131.818 40.6968 131.772 40.6504L63.7318 40.2207C63.4182 40.5575 63.1047 40.8826 62.8027 41.231Z" fill="#F5F5F5"/>
<path d="M129.623 38.4788L65.8802 38.084C65.5318 38.4091 65.1835 38.7343 64.8467 39.0711L129.809 38.6646C129.751 38.6066 129.682 38.5485 129.623 38.4904V38.4788Z" fill="#F5F5F5"/>
<path d="M127.196 36.2957L68.3539 35.9241C67.9707 36.2376 67.599 36.5512 67.2158 36.8763L127.44 36.5047C127.359 36.435 127.278 36.3654 127.196 36.2957Z" fill="#F5F5F5"/>
<path d="M124.339 34.1239L71.2099 33.7871C70.7803 34.089 70.339 34.391 69.9209 34.7045L124.676 34.3678C124.56 34.2865 124.443 34.2052 124.339 34.1239Z" fill="#F5F5F5"/>
<path d="M120.96 31.9407L74.6359 31.6504C74.1365 31.9407 73.6372 32.2194 73.1494 32.5214L121.459 32.2194C121.297 32.1265 121.122 32.0336 120.96 31.9291V31.9407Z" fill="#F5F5F5"/>
<path d="M116.732 29.7459L78.886 29.5137C78.2822 29.7808 77.6899 30.0479 77.0977 30.3382L117.476 30.0827C117.232 29.9666 116.976 29.8621 116.732 29.7459Z" fill="#F5F5F5"/>
<path d="M110.892 27.551L84.7857 27.3884C83.9728 27.6207 83.1715 27.8762 82.3818 28.1433L112.157 27.9575C111.739 27.8181 111.31 27.6788 110.88 27.551H110.892Z" fill="#F5F5F5"/>
<path d="M97.5483 25.6001C95.7135 25.6001 93.9135 25.7162 92.1367 25.9253L102.461 25.8556C100.846 25.693 99.209 25.6001 97.5483 25.6001Z" fill="#F5F5F5"/>
<path d="M46.4514 25.6001C44.7908 25.6001 43.1534 25.693 41.5508 25.8556L51.8747 25.9253C50.0863 25.7162 48.2863 25.6001 46.4514 25.6001Z" fill="#F5F5F5"/>
<path d="M59.2143 27.3884L33.1085 27.551C32.6788 27.6788 32.2607 27.8181 31.8311 27.9575L61.6065 28.1433C60.8169 27.8646 60.0156 27.6207 59.2027 27.3884H59.2143Z" fill="#F5F5F5"/>
<path d="M65.1131 29.5137L27.2667 29.7459C27.0228 29.8621 26.7673 29.9666 26.5234 30.0827L66.9015 30.3382C66.3092 30.0479 65.717 29.7808 65.1131 29.5137Z" fill="#F5F5F5"/>
<path d="M69.3642 31.6504L23.0404 31.9407C22.8778 32.0336 22.7036 32.1265 22.541 32.231L70.8507 32.533C70.363 32.231 69.8636 31.9407 69.3642 31.662V31.6504Z" fill="#F5F5F5"/>
<path d="M72.7783 33.7871L19.6493 34.1239C19.5331 34.2052 19.417 34.2865 19.3125 34.3678L74.0673 34.7045C73.6377 34.391 73.208 34.089 72.7783 33.7871Z" fill="#F5F5F5"/>
<path d="M75.646 35.9355L16.8034 36.3072C16.7222 36.3768 16.6409 36.4465 16.5596 36.5162L76.7841 36.8878C76.4125 36.5626 76.0409 36.2491 75.646 35.9355Z" fill="#F5F5F5"/>
<path d="M78.1087 38.0724L14.3655 38.4672C14.3074 38.5253 14.2378 38.5834 14.1797 38.6414L79.1423 39.0479C78.8055 38.7111 78.4571 38.386 78.1087 38.0608V38.0724Z" fill="#F5F5F5"/>
<path d="M12.0889 40.8013L81.1973 41.231C80.8953 40.8943 80.5818 40.5575 80.2682 40.2207L12.2282 40.6504C12.2282 40.6504 12.1353 40.7549 12.0889 40.8013Z" fill="#F5F5F5"/>
<path d="M10.2538 42.9498L82.997 43.4027C82.7299 43.0543 82.4512 42.7059 82.1725 42.3691L10.3467 42.822C10.3467 42.822 10.277 42.9033 10.2422 42.9498H10.2538Z" fill="#F5F5F5"/>
<path d="M8.62793 45.0982L84.6112 45.5744C84.3673 45.226 84.1234 44.866 83.8679 44.5176L8.70922 44.9821C8.70922 44.9821 8.66277 45.0518 8.62793 45.0866V45.0982Z" fill="#F5F5F5"/>
<path d="M7.18848 47.2467L86.0401 47.7344C85.8194 47.3744 85.5872 47.0144 85.3549 46.666L7.24654 47.1538C7.24654 47.1538 7.2117 47.2118 7.18848 47.2467Z" fill="#F5F5F5"/>
<path d="M5.89931 49.4066L87.2941 49.9175C87.0967 49.5459 86.8761 49.1975 86.667 48.8259L5.93415 49.3253C5.93415 49.3253 5.91092 49.3717 5.8877 49.395L5.89931 49.4066Z" fill="#F5F5F5"/>
<path d="M4.76161 51.555L88.3977 52.0776C88.2236 51.706 88.0261 51.346 87.8403 50.9744L4.78484 51.4969C4.78484 51.4969 4.76161 51.5318 4.75 51.555H4.76161Z" fill="#F5F5F5"/>
<path d="M3.7627 53.7149L89.3614 54.2491C89.2104 53.8775 89.0362 53.5059 88.8737 53.1343L3.78592 53.6685C3.78592 53.6685 3.77431 53.7033 3.7627 53.7149Z" fill="#F5F5F5"/>
<path d="M2.90332 55.8634L90.1975 56.4092C90.0582 56.0259 89.9188 55.6543 89.7678 55.2827L2.91493 55.8285C2.91493 55.8285 2.91493 55.8517 2.90332 55.8634Z" fill="#F5F5F5"/>
<path d="M2.16016 58.0233L90.906 58.5807C90.7898 58.1975 90.6621 57.8259 90.546 57.4426L2.17177 58V58.0233H2.16016Z" fill="#F5F5F5"/>
<path d="M1.5332 60.1834L91.51 60.7408C91.4171 60.3576 91.3126 59.9744 91.1964 59.6028L1.54482 60.1602C1.54482 60.1602 1.54482 60.1718 1.54482 60.1834H1.5332Z" fill="#F5F5F5"/>
<path d="M1.02148 62.3316L91.997 62.9007C91.9157 62.5174 91.8344 62.1342 91.7415 61.751L1.0331 62.32C1.0331 62.32 1.0331 62.32 1.0331 62.3316H1.02148Z" fill="#F5F5F5"/>
<path d="M0.626953 64.4918L92.3805 65.0608C92.3224 64.6776 92.2528 64.2944 92.1831 63.9111L0.626953 64.4802V64.4918Z" fill="#F5F5F5"/>
<path d="M0.325195 66.6517L92.6594 67.2323C92.6245 66.8491 92.5665 66.4659 92.5084 66.071L0.325195 66.6517Z" fill="#F5F5F5"/>
<path d="M0.12793 68.8116L92.8221 69.3922C92.7989 69.009 92.7641 68.6142 92.7292 68.231L0.12793 68.8116Z" fill="#F5F5F5"/>
<path d="M0.0234375 70.9718L92.8918 71.5524C92.8918 71.1692 92.8802 70.7743 92.857 70.3911L0.0234375 70.9718Z" fill="#F5F5F5"/>
<path d="M0.0234375 73.1317L92.857 73.7123C92.8686 73.3291 92.8802 72.9343 92.8918 72.551L0.0234375 73.1317Z" fill="#F5F5F5"/>
<path d="M0.12793 75.2918L92.7408 75.8725C92.7757 75.4892 92.8105 75.106 92.8337 74.7112L0.12793 75.2918Z" fill="#F5F5F5"/>
<path d="M0.325195 77.4517L92.5084 78.0324C92.5549 77.6492 92.6129 77.2659 92.6594 76.8711L0.325195 77.4517Z" fill="#F5F5F5"/>
<path d="M0.626953 79.6234L92.1831 80.1924C92.2528 79.8092 92.3224 79.426 92.3805 79.0427L0.626953 79.6118V79.6234Z" fill="#F5F5F5"/>
<path d="M1.0331 81.7833L91.7531 82.3523C91.8344 81.9691 91.9273 81.5859 92.0086 81.2026L1.02148 81.7717C1.02148 81.7717 1.02148 81.7717 1.02148 81.7833H1.0331Z" fill="#F5F5F5"/>
<path d="M1.54492 83.9434L91.2081 84.5009C91.3127 84.1176 91.4172 83.746 91.5217 83.3628L1.54492 83.9202C1.54492 83.9202 1.54492 83.9318 1.54492 83.9434Z" fill="#F5F5F5"/>
<path d="M2.17177 86.1034L90.546 86.6608C90.6737 86.2892 90.8014 85.9059 90.906 85.5227L2.16016 86.0801V86.1034H2.17177Z" fill="#F5F5F5"/>
<path d="M2.91493 88.275L89.7678 88.8208C89.9072 88.4492 90.0582 88.0776 90.1975 87.6943L2.90332 88.2401C2.90332 88.2401 2.90332 88.2634 2.91493 88.275Z" fill="#F5F5F5"/>
<path d="M3.78592 90.4349L88.8737 90.9691C89.0362 90.5975 89.2104 90.2259 89.3614 89.8542L3.7627 90.3884C3.7627 90.3884 3.77431 90.4233 3.78592 90.4349Z" fill="#F5F5F5"/>
<path d="M4.79656 92.6065L87.8404 93.1291C88.0262 92.7575 88.212 92.3975 88.3979 92.0259L4.76172 92.5485C4.76172 92.5485 4.78494 92.5833 4.79656 92.6065Z" fill="#F5F5F5"/>
<path d="M5.94597 94.778L86.6789 95.2774C86.8879 94.9174 87.1086 94.5574 87.306 94.1858L5.91113 94.6968C5.91113 94.6968 5.93436 94.7432 5.95758 94.7664L5.94597 94.778Z" fill="#F5F5F5"/>
<path d="M7.24654 96.9381L85.3549 97.4258C85.5872 97.0658 85.8194 96.7174 86.0401 96.3574L7.18848 96.8452C7.18848 96.8452 7.22331 96.9032 7.24654 96.9381Z" fill="#F5F5F5"/>
<path d="M8.70922 99.1098L83.8679 99.5744C84.1234 99.226 84.3673 98.8776 84.6112 98.5176L8.62793 98.9937C8.62793 98.9937 8.67438 99.0634 8.70922 99.0982V99.1098Z" fill="#F5F5F5"/>
<path d="M10.3585 101.281L82.1843 101.734C82.463 101.397 82.7301 101.049 83.0089 100.701L10.2656 101.154C10.2656 101.154 10.3353 101.235 10.3701 101.281H10.3585Z" fill="#F5F5F5"/>
<path d="M12.2282 103.453L80.2682 103.883C80.5818 103.546 80.8953 103.221 81.1973 102.872L12.0889 103.302C12.0889 103.302 12.1818 103.407 12.2282 103.453Z" fill="#F5F5F5"/>
<path d="M14.3772 105.625L78.1204 106.02C78.4688 105.694 78.8172 105.369 79.154 105.032L14.1914 105.439C14.2495 105.497 14.3191 105.555 14.3772 105.613V105.625Z" fill="#F5F5F5"/>
<path d="M16.8034 107.808L75.646 108.18C76.0292 107.866 76.4009 107.552 76.7841 107.227L16.5596 107.599C16.6409 107.669 16.7222 107.738 16.8034 107.808Z" fill="#F5F5F5"/>
<path d="M19.661 109.98L72.79 110.316C73.2197 110.014 73.661 109.712 74.0791 109.399L19.3242 109.736C19.4403 109.817 19.5565 109.898 19.661 109.98Z" fill="#F5F5F5"/>
<path d="M23.0404 112.163L69.3642 112.453C69.8636 112.163 70.363 111.884 70.8507 111.582L22.541 111.884C22.7036 111.977 22.8778 112.07 23.0404 112.174V112.163Z" fill="#F5F5F5"/>
<path d="M27.2667 114.357L65.1131 114.59C65.717 114.323 66.3092 114.055 66.9015 113.765L26.5234 114.021C26.7673 114.137 27.0228 114.241 27.2667 114.357Z" fill="#F5F5F5"/>
<path d="M33.1086 116.552L59.2144 116.715C60.0273 116.483 60.8286 116.227 61.6183 115.96L31.8428 116.146C32.2608 116.285 32.6905 116.425 33.1202 116.552H33.1086Z" fill="#F5F5F5"/>
<path d="M46.4513 118.503C48.2862 118.503 50.0862 118.387 51.8629 118.178L41.5391 118.248C43.1533 118.422 44.7907 118.503 46.4397 118.503H46.4513Z" fill="#F5F5F5"/>
</g>
<defs>
<clipPath id="clip0_301_14457">
<rect width="144" height="92.9032" fill="white" transform="translate(0 25.6001)"/>
</clipPath>
</defs>
</svg>
