<svg width="108" height="108" viewBox="0 0 108 108" fill="none" xmlns="http://www.w3.org/2000/svg">
<path fill-rule="evenodd" clip-rule="evenodd" d="M101.581 91.3679C101.429 91.4578 101.241 91.4611 101.087 91.3768L100.224 90.9066L100.703 90.0286L100.827 90.0966L100.828 89.9127L101.828 89.9146L101.826 90.9387C101.825 91.115 101.732 91.278 101.581 91.3679ZM97.2526 88.1481L98.9776 89.0884L98.499 89.9664L96.774 89.0261L97.2526 88.1481ZM93.8026 86.2676L95.5276 87.2079L95.049 88.0859L93.324 87.1456L93.8026 86.2676ZM100.832 87.8645L100.836 85.8164L101.836 85.8183L101.832 87.8664L100.832 87.8645ZM90.3526 84.3871L92.0776 85.3274L91.599 86.2054L89.874 85.2651L90.3526 84.3871ZM86.9026 82.5066L88.6276 83.4469L88.149 84.3249L86.424 83.3846L86.9026 82.5066ZM100.839 83.7682L100.843 81.7201L101.843 81.722L101.839 83.7701L100.839 83.7682ZM83.4525 80.6261L85.1775 81.5664L84.699 82.4444L82.9739 81.5041L83.4525 80.6261ZM80.0025 78.7456L81.7275 79.6859L81.2489 80.5639L79.5239 79.6236L80.0025 78.7456ZM100.847 79.6719L100.851 77.6238L101.851 77.6257L101.847 79.6738L100.847 79.6719ZM76.5525 76.8651L78.2775 77.8054L77.7989 78.6834L76.0739 77.7432L76.5525 76.8651ZM73.1025 74.9846L74.8275 75.9249L74.3489 76.8029L72.6239 75.8627L73.1025 74.9846ZM100.855 75.5756L100.859 73.5275L101.859 73.5294L101.855 75.5775L100.855 75.5756ZM69.6525 73.1041L71.3775 74.0444L70.8989 74.9224L69.1739 73.9822L69.6525 73.1041ZM66.2025 71.2236L67.9275 72.1639L67.4489 73.0419L65.7239 72.1017L66.2025 71.2236ZM100.863 71.4793L100.867 69.4312L101.867 69.4331L101.863 71.4812L100.863 71.4793ZM63.8762 69.9556L64.4775 70.2834L63.9989 71.1614L63.1364 70.6913C62.9754 70.6035 62.8753 70.4347 62.8757 70.2514L62.8775 69.2272L63.8775 69.229L63.8762 69.9556ZM100.871 67.383L100.874 65.3349L101.874 65.3368L101.87 67.3849L100.871 67.383ZM63.8849 65.1323L63.8812 67.1807L62.8812 67.1789L62.8849 65.1305L63.8849 65.1323ZM100.878 63.2867L100.882 61.2386L101.882 61.2405L101.878 63.2886L100.878 63.2867ZM63.8923 61.0356L63.8886 63.084L62.8886 63.0822L62.8923 61.0338L63.8923 61.0356ZM100.886 59.1904L100.89 57.1423L101.89 57.1441L101.886 59.1923L100.886 59.1904ZM63.8997 56.939L63.896 58.9873L62.896 58.9855L62.8997 56.9372L63.8997 56.939ZM100.894 55.0941L100.898 53.0459L101.898 53.0478L101.894 55.096L100.894 55.0941ZM63.9071 52.8423L63.9034 54.8906L62.9034 54.8888L62.9071 52.8405L63.9071 52.8423ZM100.902 50.9978L100.905 48.9496L101.905 48.9515L101.902 50.9997L100.902 50.9978ZM63.9145 48.7456L63.9108 50.7939L62.9108 50.7921L62.9145 48.7438L63.9145 48.7456ZM100.909 46.9015L100.913 44.8533L101.913 44.8552L101.909 46.9034L100.909 46.9015ZM63.9219 44.6489L63.9182 46.6973L62.9182 46.6955L62.9219 44.6471L63.9219 44.6489ZM100.917 42.8052L100.921 40.757L101.921 40.7589L101.917 42.8071L100.917 42.8052ZM63.9293 40.5523L63.9256 42.6006L62.9256 42.5988L62.9293 40.5504L63.9293 40.5523ZM100.925 38.7089L100.929 36.6607L101.929 36.6626L101.925 38.7108L100.925 38.7089ZM63.9367 36.4556L63.933 38.5039L62.933 38.5021L62.9367 36.4538L63.9367 36.4556ZM100.933 34.6126L100.937 32.5644L101.937 32.5663L101.933 34.6145L100.933 34.6126ZM63.9441 32.3589L63.9404 34.4072L62.9404 34.4054L62.9441 32.3571L63.9441 32.3589ZM100.942 29.7897L100.94 30.5163L101.94 30.5182L101.942 29.4941C101.943 29.3107 101.843 29.1419 101.682 29.0541L100.819 28.5839L100.34 29.4619L100.942 29.7897ZM63.9515 28.2622L63.9478 30.3106L62.9478 30.3087L62.9515 28.2604L63.9515 28.2622ZM98.6152 28.5214L96.8899 27.5809L97.3685 26.7029L99.0938 27.6434L98.6152 28.5214ZM95.1646 26.6404L93.4394 25.6999L93.918 24.8219L95.6433 25.7624L95.1646 26.6404ZM63.9589 24.1655L63.9552 26.2139L62.9552 26.2121L62.9589 24.1637L63.9589 24.1655ZM91.7141 24.7594L89.9889 23.8189L90.4675 22.9409L92.1928 23.8814L91.7141 24.7594ZM88.2636 22.8784L86.5383 21.9379L87.017 21.0599L88.7422 22.0004L88.2636 22.8784ZM63.9663 20.0689L63.9626 22.1172L62.9626 22.1154L62.9663 20.0671L63.9663 20.0689ZM84.8131 20.9974L83.0878 20.0569L83.5665 19.1788L85.2917 20.1194L84.8131 20.9974ZM81.3626 19.1164L79.6373 18.1759L80.116 17.2978L81.8412 18.2384L81.3626 19.1164ZM63.9737 15.9722L63.97 18.0205L62.97 18.0187L62.9737 15.9704L63.9737 15.9722ZM77.9121 17.2354L76.1868 16.2949L76.6654 15.4168L78.3907 16.3573L77.9121 17.2354ZM74.4615 15.3544L72.7363 14.4139L73.2149 13.5358L74.9402 14.4763L74.4615 15.3544ZM63.9811 11.8755L63.9774 13.9238L62.9774 13.922L62.9811 11.8737L63.9811 11.8755ZM71.011 13.4734L69.2858 12.5329L69.7644 11.6548L71.4897 12.5953L71.011 13.4734ZM67.5605 11.5923L65.8352 10.6519L66.3139 9.77384L68.0391 10.7143L67.5605 11.5923ZM63.9852 9.6433L63.9848 9.82715L62.9848 9.82534L62.9867 8.80119C62.987 8.6249 63.0801 8.46181 63.2318 8.37194C63.3834 8.28207 63.5712 8.27871 63.726 8.36308L64.5886 8.83333L64.11 9.71135L63.9852 9.6433Z" fill="#F5F5F5"/>
<path fill-rule="evenodd" clip-rule="evenodd" d="M44.5835 99.437C44.4771 99.452 44.3687 99.4323 44.2744 99.3809L43.4118 98.9107L43.8904 98.0326L44.6078 98.4237L45.4585 98.3039L45.598 99.2941L44.5835 99.437ZM47.4874 98.018L49.5164 97.7322L49.6559 98.7224L47.6269 99.0082L47.4874 98.018ZM51.5454 97.4463L53.5744 97.1605L53.7139 98.1507L51.6849 98.4365L51.5454 97.4463ZM40.4399 96.1516L42.1652 97.0921L41.6865 97.9702L39.9613 97.0297L40.4399 96.1516ZM55.6034 96.8746L57.6323 96.5887L57.7718 97.579L55.7429 97.8648L55.6034 96.8746ZM59.6613 96.3029L61.6903 96.017L61.8298 97.0073L59.8008 97.2931L59.6613 96.3029ZM63.7193 95.7312L65.7483 95.4453L65.8878 96.4356L63.8588 96.7214L63.7193 95.7312ZM67.7772 95.1595L69.8062 94.8736L69.9457 95.8638L67.9168 96.1497L67.7772 95.1595ZM36.9894 94.2706L38.7146 95.2111L38.236 96.0891L36.5107 95.1486L36.9894 94.2706ZM71.8352 94.5878L73.8642 94.3019L74.0037 95.2921L71.9747 95.578L71.8352 94.5878ZM75.8932 94.0161L77.9221 93.7302L78.0617 94.7204L76.0327 95.0063L75.8932 94.0161ZM79.9511 93.4444L81.9801 93.1585L82.1196 94.1487L80.0906 94.4346L79.9511 93.4444ZM33.5389 92.3896L35.2641 93.3301L34.7855 94.2081L33.0602 93.2676L33.5389 92.3896ZM84.0091 92.8727L86.0381 92.5868L86.1776 93.577L84.1486 93.8629L84.0091 92.8727ZM88.067 92.301L90.096 92.0151L90.2355 93.0053L88.2065 93.2912L88.067 92.301ZM92.125 91.7292L94.154 91.4434L94.2935 92.4336L92.2645 92.7195L92.125 91.7292ZM30.0883 90.5086L31.8136 91.4491L31.335 92.3271L29.6097 91.3866L30.0883 90.5086ZM96.183 91.1575L98.2119 90.8717L98.3514 91.8619L96.3225 92.1478L96.183 91.1575ZM100.291 90.944L100.38 91.5761L101.395 91.4331C101.608 91.403 101.779 91.2395 101.817 91.0273C101.856 90.8151 101.754 90.6022 101.564 90.499L100.702 90.0289L100.411 90.5618L100.241 90.5858L100.273 90.8154L100.223 90.9069L100.291 90.944ZM26.6378 88.6276L28.3631 89.5681L27.8844 90.4461L26.1592 89.5056L26.6378 88.6276ZM98.4984 89.9667L96.7733 89.0264L97.2519 88.1484L98.9769 89.0886L98.4984 89.9667ZM23.1873 86.7466L24.9126 87.6871L24.4339 88.5651L22.7087 87.6246L23.1873 86.7466ZM95.0483 88.0862L93.3233 87.1459L93.8019 86.2679L95.5269 87.2081L95.0483 88.0862ZM19.7368 84.8656L21.462 85.8061L20.9834 86.6841L19.2581 85.7436L19.7368 84.8656ZM91.5983 86.2057L89.8733 85.2654L90.3519 84.3874L92.0769 85.3276L91.5983 86.2057ZM16.2863 82.9846L18.0115 83.9251L17.5329 84.8031L15.8076 83.8626L16.2863 82.9846ZM88.1483 84.3252L86.4233 83.3849L86.9019 82.5069L88.6269 83.4471L88.1483 84.3252ZM12.8358 81.1036L14.561 82.0441L14.0824 82.9221L12.3571 81.9816L12.8358 81.1036ZM84.6983 82.4447L82.9733 81.5044L83.4519 80.6264L85.1769 81.5666L84.6983 82.4447ZM9.38523 79.2226L11.1105 80.1631L10.6318 81.0411L8.9066 80.1006L9.38523 79.2226ZM81.2483 80.5642L79.5233 79.6239L80.0019 78.7459L81.7269 79.6861L81.2483 80.5642ZM7.59189 78.245L7.65997 78.2821L7.61001 78.3738L7.6423 78.6031L7.47188 78.6271L7.18134 79.1601L6.3187 78.6899C6.12937 78.5867 6.02753 78.3737 6.06606 78.1615C6.10458 77.9494 6.27479 77.7858 6.48832 77.7557L7.5029 77.6129L7.59189 78.245ZM77.7983 78.6837L76.0733 77.7434L76.5519 76.8654L78.2769 77.8056L77.7983 78.6837ZM11.7007 78.0318L9.67148 78.3175L9.53209 77.3273L11.5613 77.0416L11.7007 78.0318ZM15.759 77.4605L13.7298 77.7462L13.5904 76.7559L15.6196 76.4703L15.759 77.4605ZM19.8174 76.8892L17.7882 77.1749L17.6488 76.1846L19.678 75.899L19.8174 76.8892ZM74.3483 76.8032L72.6233 75.8629L73.1018 74.9849L74.8269 75.9251L74.3483 76.8032ZM23.8757 76.3179L21.8466 76.6036L21.7072 75.6133L23.7363 75.3277L23.8757 76.3179ZM27.9341 75.7466L25.9049 76.0323L25.7655 75.042L27.7947 74.7564L27.9341 75.7466ZM31.9924 75.1753L29.9633 75.4609L29.8239 74.4707L31.853 74.1851L31.9924 75.1753ZM70.8982 74.9227L69.1732 73.9824L69.6518 73.1044L71.3768 74.0446L70.8982 74.9227ZM36.0508 74.604L34.0216 74.8896L33.8822 73.8994L35.9114 73.6138L36.0508 74.604ZM40.1092 74.0327L38.08 74.3183L37.9406 73.3281L39.9698 73.0424L40.1092 74.0327ZM44.1675 73.4614L42.1383 73.747L41.9989 72.7568L44.0281 72.4711L44.1675 73.4614ZM48.2259 72.8901L46.1967 73.1757L46.0573 72.1855L48.0865 71.8998L48.2259 72.8901ZM67.4482 73.0422L65.7232 72.1019L66.2018 71.2239L67.9268 72.1641L67.4482 73.0422ZM52.2842 72.3188L50.2551 72.6044L50.1157 71.6142L52.1448 71.3285L52.2842 72.3188ZM56.3426 71.7474L54.3134 72.0331L54.174 71.0429L56.2032 70.7572L56.3426 71.7474ZM60.401 71.1761L58.3718 71.4618L58.2324 70.4716L60.2616 70.1859L60.401 71.1761ZM63.2809 70.7707L63.9982 71.1617L64.4768 70.2836L63.6143 69.8135C63.52 69.7621 63.4117 69.7424 63.3053 69.7574L62.2907 69.9002L62.4301 70.8905L63.2809 70.7707Z" fill="#F5F5F5"/>
<path fill-rule="evenodd" clip-rule="evenodd" d="M6.22998 78.6281C6.12068 78.5329 6.05805 78.395 6.05831 78.2501L6.06016 77.2259L7.06016 77.2277L7.05935 77.6755L7.5032 77.613L7.6426 78.6033L6.62801 78.7461C6.4845 78.7663 6.33929 78.7232 6.22998 78.6281ZM11.701 78.032L9.67178 78.3176L9.53238 77.3274L11.5616 77.0417L11.701 78.032ZM15.7593 77.4607L13.7301 77.7463L13.5907 76.7561L15.6199 76.4704L15.7593 77.4607ZM19.8177 76.8893L17.7885 77.175L17.6491 76.1848L19.6783 75.8991L19.8177 76.8893ZM23.876 76.318L21.8469 76.6037L21.7075 75.6135L23.7366 75.3278L23.876 76.318ZM27.9344 75.7467L25.9052 76.0324L25.7658 75.0421L27.795 74.7565L27.9344 75.7467ZM31.9927 75.1754L29.9636 75.4611L29.8242 74.4708L31.8533 74.1852L31.9927 75.1754ZM6.06386 75.1776L6.06756 73.1292L7.06756 73.131L7.06386 75.1794L6.06386 75.1776ZM36.0511 74.6041L34.0219 74.8898L33.8825 73.8995L35.9117 73.6139L36.0511 74.6041ZM40.1095 74.0328L38.0803 74.3185L37.9409 73.3282L39.9701 73.0426L40.1095 74.0328ZM44.1678 73.4615L42.1386 73.7471L41.9992 72.7569L44.0284 72.4713L44.1678 73.4615ZM48.2262 72.8902L46.197 73.1758L46.0576 72.1856L48.0868 71.8999L48.2262 72.8902ZM52.2845 72.3189L50.2554 72.6045L50.116 71.6143L52.1451 71.3286L52.2845 72.3189ZM56.3429 71.7476L54.3137 72.0332L54.1743 71.043L56.2035 70.7573L56.3429 71.7476ZM60.4013 71.1763L58.3721 71.4619L58.2327 70.4717L60.2619 70.186L60.4013 71.1763ZM6.07126 71.0809L6.07496 69.0326L7.07496 69.0344L7.07126 71.0827L6.07126 71.0809ZM63.445 70.7478L62.4304 70.8906L62.291 69.9004L62.8761 69.818L62.8772 69.2276L63.8772 69.2294L63.8753 70.2536C63.8749 70.5024 63.6915 70.7131 63.445 70.7478ZM63.8846 65.1327L63.8809 67.1811L62.8809 67.1792L62.8846 65.1309L63.8846 65.1327ZM6.07866 66.9842L6.08236 64.9359L7.08236 64.9377L7.07866 66.986L6.07866 66.9842ZM63.892 61.036L63.8883 63.0844L62.8883 63.0826L62.892 61.0342L63.892 61.036ZM6.08606 62.8875L6.08976 60.8392L7.08976 60.841L7.08606 62.8893L6.08606 62.8875ZM63.8994 56.9394L63.8957 58.9877L62.8957 58.9859L62.8994 56.9375L63.8994 56.9394ZM6.09347 58.7909L6.09717 56.7425L7.09716 56.7443L7.09346 58.7927L6.09347 58.7909ZM63.9068 52.8427L63.9031 54.891L62.9031 54.8892L62.9068 52.8409L63.9068 52.8427ZM6.10087 54.6942L6.10457 52.6458L7.10456 52.6476L7.10086 54.696L6.10087 54.6942ZM63.9142 48.746L63.9105 50.7943L62.9105 50.7925L62.9142 48.7442L63.9142 48.746ZM6.10827 50.5975L6.11197 48.5492L7.11196 48.551L7.10826 50.5993L6.10827 50.5975ZM63.9216 44.6493L63.9179 46.6977L62.9179 46.6959L62.9216 44.6475L63.9216 44.6493ZM6.11567 46.5008L6.11937 44.4525L7.11936 44.4543L7.11566 46.5026L6.11567 46.5008ZM63.929 40.5526L63.9253 42.601L62.9253 42.5992L62.929 40.5508L63.929 40.5526ZM6.12307 42.4041L6.12677 40.3558L7.12676 40.3576L7.12306 42.4059L6.12307 42.4041ZM63.9364 36.456L63.9327 38.5043L62.9327 38.5025L62.9364 36.4542L63.9364 36.456ZM6.13047 38.3075L6.13417 36.2591L7.13417 36.2609L7.13046 38.3093L6.13047 38.3075ZM63.9438 32.3593L63.9401 34.4076L62.9401 34.4058L62.9438 32.3575L63.9438 32.3593ZM6.13787 34.2108L6.14157 32.1624L7.14157 32.1643L7.13787 34.2126L6.13787 34.2108ZM63.9512 28.2626L63.9475 30.3109L62.9475 30.3091L62.9512 28.2608L63.9512 28.2626ZM6.14527 30.1141L6.14897 28.0658L7.14897 28.0676L7.14527 30.1159L6.14527 30.1141ZM63.9586 24.1659L63.9549 26.2143L62.9549 26.2124L62.9586 24.1641L63.9586 24.1659ZM6.15267 26.0174L6.15637 23.9691L7.15637 23.9709L7.15267 26.0192L6.15267 26.0174ZM63.966 20.0692L63.9623 22.1176L62.9623 22.1158L62.966 20.0674L63.966 20.0692ZM6.16007 21.9207L6.16377 19.8724L7.16377 19.8742L7.16007 21.9226L6.16007 21.9207ZM63.9734 15.9726L63.9697 18.0209L62.9697 18.0191L62.9734 15.9707L63.9734 15.9726ZM6.16747 17.8241L6.16932 16.7999C6.16977 16.551 6.35318 16.3404 6.59962 16.3057L7.6142 16.1629L7.7536 17.1531L7.16854 17.2355L7.16747 17.8259L6.16747 17.8241ZM9.64338 15.8772L11.6726 15.5915L11.812 16.5818L9.78278 16.8674L9.64338 15.8772ZM13.7017 15.3059L15.7309 15.0202L15.8703 16.0105L13.8411 16.2961L13.7017 15.3059ZM17.7601 14.7346L19.7893 14.4489L19.9287 15.4392L17.8995 15.7248L17.7601 14.7346ZM21.8185 14.1633L23.8476 13.8776L23.987 14.8679L21.9579 15.1535L21.8185 14.1633ZM25.8768 13.592L27.906 13.3063L28.0454 14.2966L26.0162 14.5822L25.8768 13.592ZM29.9352 13.0207L31.9643 12.735L32.1037 13.7252L30.0746 14.0109L29.9352 13.0207ZM63.9808 11.8759L63.9771 13.9242L62.9771 13.9224L62.9808 11.8741L63.9808 11.8759ZM33.9935 12.4494L36.0227 12.1637L36.1621 13.1539L34.1329 13.4396L33.9935 12.4494ZM38.0519 11.878L40.0811 11.5924L40.2205 12.5826L38.1913 12.8683L38.0519 11.878ZM42.1102 11.3067L44.1394 11.0211L44.2788 12.0113L42.2496 12.297L42.1102 11.3067ZM46.1686 10.7354L48.1978 10.4498L48.3372 11.44L46.308 11.7257L46.1686 10.7354ZM50.227 10.1641L52.2561 9.87846L52.3955 10.8687L50.3664 11.1544L50.227 10.1641ZM54.2853 9.59281L56.3145 9.30716L56.4539 10.2974L54.4247 10.583L54.2853 9.59281ZM58.3437 9.0215L60.3729 8.73585L60.5123 9.72608L58.4831 10.0117L58.3437 9.0215ZM63.9863 8.80339L63.9845 9.82754L62.9845 9.82574L62.9853 9.37795L62.5414 9.44043L62.402 8.4502L63.4166 8.30737C63.5601 8.28716 63.7053 8.33022 63.8146 8.42539C63.924 8.52055 63.9866 8.65846 63.9863 8.80339Z" fill="#F5F5F5"/>
<path fill-rule="evenodd" clip-rule="evenodd" d="M6.41929 16.3762C6.57094 16.2864 6.7587 16.283 6.91348 16.3674L44.8636 37.0529C45.0246 37.1406 45.1247 37.3094 45.1243 37.4928L45.0133 98.943C45.013 99.1192 44.9199 99.2823 44.7682 99.3722C44.6166 99.4621 44.4288 99.4654 44.274 99.3811L6.3183 78.69C6.15731 78.6023 6.05727 78.4334 6.05762 78.2501L6.17418 16.8054C6.17452 16.6292 6.26765 16.4661 6.41929 16.3762ZM7.17259 17.6475L7.05818 77.9544L44.0148 98.1009L44.1238 37.7885L7.17259 17.6475Z" fill="#F5F5F5"/>
<path fill-rule="evenodd" clip-rule="evenodd" d="M63.4165 8.30714C63.5229 8.29215 63.6313 8.31182 63.7256 8.36324L101.681 29.0543C101.871 29.1575 101.972 29.3705 101.934 29.5826C101.895 29.7948 101.725 29.9584 101.512 29.9884L44.6947 37.9867C44.5883 38.0017 44.48 37.982 44.3857 37.9306L6.43554 17.2451C6.24621 17.1419 6.14436 16.929 6.18287 16.7168C6.22138 16.5047 6.39156 16.3411 6.60508 16.311L63.4165 8.30714ZM8.2411 17.0904L44.7191 36.9734L99.8756 29.2089L63.3922 9.32044L8.2411 17.0904Z" fill="#F5F5F5"/>
<path fill-rule="evenodd" clip-rule="evenodd" d="M101.77 29.1161C101.879 29.2112 101.942 29.3491 101.942 29.4941L101.831 90.9442C101.83 91.1931 101.647 91.4038 101.4 91.4385L44.5834 99.4368C44.4399 99.457 44.2946 99.4139 44.1853 99.3187C44.076 99.2236 44.0134 99.0857 44.0137 98.9408L44.1247 37.4906C44.1251 37.2417 44.3085 37.0311 44.555 36.9964L101.372 28.998C101.515 28.9778 101.661 29.0209 101.77 29.1161ZM45.1239 37.9261L45.0147 98.3662L100.831 90.5087L100.941 30.0686L45.1239 37.9261Z" fill="#F5F5F5"/>
<path d="M3 17C3 15.067 4.567 13.5 6.5 13.5C8.433 13.5 10 15.067 10 17C10 18.933 8.433 20.5 6.5 20.5C4.567 20.5 3 18.933 3 17Z" fill="#FFC062"/>
<path fill-rule="evenodd" clip-rule="evenodd" d="M4 17C4 18.3807 5.11929 19.5 6.5 19.5C7.88071 19.5 9 18.3807 9 17C9 15.6193 7.88071 14.5 6.5 14.5C5.11929 14.5 4 15.6193 4 17ZM6.5 13.5C4.567 13.5 3 15.067 3 17C3 18.933 4.567 20.5 6.5 20.5C8.433 20.5 10 18.933 10 17C10 15.067 8.433 13.5 6.5 13.5Z" fill="#F5F5F5"/>
<path d="M41 37C41 35.067 42.567 33.5 44.5 33.5C46.433 33.5 48 35.067 48 37C48 38.933 46.433 40.5 44.5 40.5C42.567 40.5 41 38.933 41 37Z" fill="#FFC062"/>
<path fill-rule="evenodd" clip-rule="evenodd" d="M42 37C42 38.3807 43.1193 39.5 44.5 39.5C45.8807 39.5 47 38.3807 47 37C47 35.6193 45.8807 34.5 44.5 34.5C43.1193 34.5 42 35.6193 42 37ZM44.5 33.5C42.567 33.5 41 35.067 41 37C41 38.933 42.567 40.5 44.5 40.5C46.433 40.5 48 38.933 48 37C48 35.067 46.433 33.5 44.5 33.5Z" fill="#F5F5F5"/>
<path d="M60 9C60 7.067 61.567 5.5 63.5 5.5C65.433 5.5 67 7.067 67 9C67 10.933 65.433 12.5 63.5 12.5C61.567 12.5 60 10.933 60 9Z" fill="#FFC062"/>
<path fill-rule="evenodd" clip-rule="evenodd" d="M61 9C61 10.3807 62.1193 11.5 63.5 11.5C64.8807 11.5 66 10.3807 66 9C66 7.61929 64.8807 6.5 63.5 6.5C62.1193 6.5 61 7.61929 61 9ZM63.5 5.5C61.567 5.5 60 7.067 60 9C60 10.933 61.567 12.5 63.5 12.5C65.433 12.5 67 10.933 67 9C67 7.067 65.433 5.5 63.5 5.5Z" fill="#F5F5F5"/>
<path d="M60 70C60 68.067 61.567 66.5 63.5 66.5C65.433 66.5 67 68.067 67 70C67 71.933 65.433 73.5 63.5 73.5C61.567 73.5 60 71.933 60 70Z" fill="#101010"/>
<path fill-rule="evenodd" clip-rule="evenodd" d="M61 70C61 71.3807 62.1193 72.5 63.5 72.5C64.8807 72.5 66 71.3807 66 70C66 68.6193 64.8807 67.5 63.5 67.5C62.1193 67.5 61 68.6193 61 70ZM63.5 66.5C61.567 66.5 60 68.067 60 70C60 71.933 61.567 73.5 63.5 73.5C65.433 73.5 67 71.933 67 70C67 68.067 65.433 66.5 63.5 66.5Z" fill="#F5F5F5"/>
<path d="M98 29C98 27.067 99.567 25.5 101.5 25.5C103.433 25.5 105 27.067 105 29C105 30.933 103.433 32.5 101.5 32.5C99.567 32.5 98 30.933 98 29Z" fill="#FFC062"/>
<path fill-rule="evenodd" clip-rule="evenodd" d="M99 29C99 30.3807 100.119 31.5 101.5 31.5C102.881 31.5 104 30.3807 104 29C104 27.6193 102.881 26.5 101.5 26.5C100.119 26.5 99 27.6193 99 29ZM101.5 25.5C99.567 25.5 98 27.067 98 29C98 30.933 99.567 32.5 101.5 32.5C103.433 32.5 105 30.933 105 29C105 27.067 103.433 25.5 101.5 25.5Z" fill="#F5F5F5"/>
<path d="M98 91C98 89.067 99.567 87.5 101.5 87.5C103.433 87.5 105 89.067 105 91C105 92.933 103.433 94.5 101.5 94.5C99.567 94.5 98 92.933 98 91Z" fill="#101010"/>
<path fill-rule="evenodd" clip-rule="evenodd" d="M99 91C99 92.3807 100.119 93.5 101.5 93.5C102.881 93.5 104 92.3807 104 91C104 89.6193 102.881 88.5 101.5 88.5C100.119 88.5 99 89.6193 99 91ZM101.5 87.5C99.567 87.5 98 89.067 98 91C98 92.933 99.567 94.5 101.5 94.5C103.433 94.5 105 92.933 105 91C105 89.067 103.433 87.5 101.5 87.5Z" fill="#F5F5F5"/>
<path d="M41 99C41 97.067 42.567 95.5 44.5 95.5C46.433 95.5 48 97.067 48 99C48 100.933 46.433 102.5 44.5 102.5C42.567 102.5 41 100.933 41 99Z" fill="#101010"/>
<path fill-rule="evenodd" clip-rule="evenodd" d="M42 99C42 100.381 43.1193 101.5 44.5 101.5C45.8807 101.5 47 100.381 47 99C47 97.6193 45.8807 96.5 44.5 96.5C43.1193 96.5 42 97.6193 42 99ZM44.5 95.5C42.567 95.5 41 97.067 41 99C41 100.933 42.567 102.5 44.5 102.5C46.433 102.5 48 100.933 48 99C48 97.067 46.433 95.5 44.5 95.5Z" fill="#F5F5F5"/>
<path d="M3 78C3 76.067 4.567 74.5 6.5 74.5C8.433 74.5 10 76.067 10 78C10 79.933 8.433 81.5 6.5 81.5C4.567 81.5 3 79.933 3 78Z" fill="#101010"/>
<path fill-rule="evenodd" clip-rule="evenodd" d="M4 78C4 79.3807 5.11929 80.5 6.5 80.5C7.88071 80.5 9 79.3807 9 78C9 76.6193 7.88071 75.5 6.5 75.5C5.11929 75.5 4 76.6193 4 78ZM6.5 74.5C4.567 74.5 3 76.067 3 78C3 79.933 4.567 81.5 6.5 81.5C8.433 81.5 10 79.933 10 78C10 76.067 8.433 74.5 6.5 74.5Z" fill="#F5F5F5"/>
<path fill-rule="evenodd" clip-rule="evenodd" d="M62.9072 53.0022L67 51.5477L56 45.5L59.2069 57.6363L61.6084 54.017L64.4836 57.6971L65.7824 56.6823L62.9072 53.0022Z" fill="#101010"/>
<path fill-rule="evenodd" clip-rule="evenodd" d="M67.0004 51.5476L62.9076 53.0022L65.7828 56.6823L64.484 57.697L61.6088 54.0169L59.2073 57.6363L56.0004 45.4999L67.0004 51.5476ZM61.6749 55.7259L58.8094 60.0447L54.4375 43.4995L69.4336 51.7441L64.5498 53.4798L67.1865 56.8546L64.3116 59.1007L61.6749 55.7259Z" fill="#F5F5F5"/>
</svg>
