<svg width="240" height="179" viewBox="0 0 240 179" fill="none" xmlns="http://www.w3.org/2000/svg">
<path d="M127.135 4.73923C93.4819 13.4126 67.0203 43.5536 62.8683 78.0577C58.7928 108.95 71.1679 137.026 92.0773 155.366C112.987 173.705 142.439 182.293 172.542 174.201C202.642 166.149 223.855 143.985 232.809 117.657C241.762 91.3285 238.417 60.8326 219.45 36.1017C198.594 8.31138 160.616 -4.57579 127.135 4.73923ZM127.09 4.57288C160.686 -4.97683 198.928 7.80147 220.054 35.647C239.443 60.6214 242.911 91.53 233.917 118.277C224.923 145.024 203.46 167.585 172.994 175.889C142.443 183.922 112.575 175.115 91.4273 156.457C70.2798 137.799 57.8289 109.297 62.1178 77.9659C66.4907 43.288 93.2049 13.092 127.09 4.57288Z" fill="#F5F5F5"/>
<path d="M119.73 10.4676C102.971 14.7927 88.1416 24.6116 77.1802 37.6477C66.9412 49.8152 60.1723 64.8098 58.1573 80.7211C54.4107 110.417 66.1753 137.498 86.6195 155.147C107.064 172.796 134.675 180.502 163.225 172.839C191.78 165.2 212.01 144.217 220.721 119.215C229.601 93.7084 226.249 64.3733 208.156 40.5289C188.071 14.0474 151.943 1.50513 119.715 10.4589L119.73 10.4676ZM119.685 10.3013C136.408 5.55304 154.266 6.56256 170.38 12.3309C185.435 17.7083 198.905 27.2928 208.728 40.0956C227.204 64.1812 230.697 93.8988 221.754 119.791C212.811 145.684 192.581 166.667 163.63 174.399C134.679 182.131 106.265 173.762 85.9828 156.146C65.7003 138.53 53.4729 110.72 57.4305 80.6229C61.7815 47.4791 87.0574 18.5218 119.662 10.3076L119.685 10.3013Z" fill="#F5F5F5"/>
<path d="M112.333 16.1816C96.2689 20.3458 82.0979 29.7209 71.6397 42.1637C61.8454 53.8045 55.388 68.1554 53.4624 83.3549C49.8681 111.813 61.2076 137.926 81.1867 154.884C101.166 171.843 126.912 178.673 153.932 171.433C180.943 164.208 200.197 144.429 208.657 120.729C217.481 96.0524 214.245 67.7687 196.903 44.9202C177.727 19.6469 143.292 7.58033 112.341 16.1665L112.333 16.1816ZM112.295 16.039C128.334 11.4992 145.392 12.4685 160.774 17.9746C175.171 23.1333 188.058 32.3009 197.448 44.5321C215.143 67.6044 218.513 96.2469 209.661 121.288C200.808 146.328 181.718 165.579 154.342 172.915C126.966 180.25 100.024 172.429 80.63 155.848C61.2361 139.268 49.0317 112.114 52.8197 83.2852C56.9784 51.6574 80.9864 23.9568 112.303 16.0239L112.295 16.039Z" fill="#F5F5F5"/>
<path d="M104.928 21.9095C89.5442 25.9041 76.0462 34.8442 66.0913 46.6936C56.7567 57.8165 50.5956 71.5148 48.7509 86.0178C45.3001 113.253 56.1995 138.388 75.7284 154.665C94.0319 169.933 119.139 176.896 144.623 170.055C170.098 163.229 188.36 144.645 196.593 122.28C205.367 98.4191 202.223 71.1931 185.632 49.3405C167.357 25.2903 134.649 13.6782 104.936 21.8944L104.928 21.9095ZM104.889 21.7669C120.27 17.4291 136.503 18.3645 151.153 23.6085C164.902 28.5334 177.173 37.3055 186.13 48.9651C203.059 71.0328 206.316 98.5851 197.505 122.787C189.228 145.508 170.8 164.518 145.001 171.418C119.202 178.318 93.729 171.084 75.2002 155.545C55.4847 139 44.5136 113.502 48.1406 85.9266C52.107 55.8149 74.8558 29.3559 104.883 21.7431L104.889 21.7669Z" fill="#F5F5F5"/>
<path d="M97.5389 27.7475C82.8359 31.5725 70.0022 40.0926 60.5506 51.3488C51.652 61.9601 45.8198 74.9844 44.0558 88.7908C40.7573 114.788 51.2228 138.97 70.2866 154.556C87.7229 168.822 111.391 175.215 135.322 168.803C159.252 162.391 176.538 145.011 184.521 123.948C193.246 100.902 190.21 74.7427 174.355 53.8774C156.989 31.0353 125.983 19.8838 97.5238 27.7388L97.5389 27.7475ZM97.5071 27.6287C112.205 23.4994 127.653 24.4032 141.546 29.3913C154.638 34.0975 166.303 42.4591 174.826 53.5472C190.974 74.6015 194.123 101.087 185.365 124.435C177.339 145.815 159.905 163.591 135.666 170.086C111.435 176.566 87.4397 169.904 69.7995 155.4C50.5556 139.569 40.031 115.072 43.4971 88.7495C47.256 60.1452 68.752 34.9515 97.5071 27.6287Z" fill="#F5F5F5"/>
<path d="M90.1492 33.4847C76.1266 37.1402 63.966 45.2252 55.0176 55.8881C46.5637 65.9726 41.0429 78.3533 39.3597 91.463C36.2134 116.223 46.2214 139.457 64.8589 154.356C81.4127 167.609 103.649 173.456 126.035 167.458C148.42 161.46 164.754 145.278 172.463 125.523C181.13 103.308 178.204 78.1764 163.1 58.307C146.643 36.673 117.347 26.0061 90.1492 33.4847ZM90.1173 33.3659C104.141 29.4299 118.78 30.3086 131.941 35.0345C144.385 39.507 155.457 47.4668 163.539 57.9983C178.921 78.048 181.956 103.444 173.249 125.937C165.491 145.985 149.011 162.524 126.349 168.584C103.687 174.643 81.1452 168.559 64.4176 155.085C45.6301 139.959 35.5608 116.449 38.8572 91.3939C42.4238 64.3057 62.6519 40.3687 90.126 33.3508L90.1173 33.3659Z" fill="#F5F5F5"/>
<path d="M82.7439 39.2139C69.4018 42.6998 57.9141 50.3498 49.4841 60.428C41.4749 69.9859 36.2655 81.7227 34.6869 94.1295C31.6841 117.666 41.267 139.932 59.4393 154.14C75.1108 166.382 95.9143 171.684 116.764 166.084C137.605 160.5 152.986 145.516 160.437 127.078C169.071 105.687 166.237 81.6131 151.868 62.731C136.321 42.3051 108.727 32.0988 82.7827 39.2162L82.7439 39.2139ZM82.7184 39.1188C96.0594 35.3913 109.898 36.2297 122.326 40.6935C134.113 44.9472 144.579 52.4964 152.227 62.4564C166.844 81.5014 169.78 105.816 161.115 127.469C153.624 146.185 138.114 161.497 117.021 167.136C95.9267 172.776 74.8544 167.279 59.0004 154.831C40.6757 140.434 31.0552 117.886 34.1821 94.0992C37.5564 68.5271 56.5165 45.8467 82.6946 39.1252L82.7184 39.1188Z" fill="#F5F5F5"/>
<path d="M75.3537 44.9494C62.6921 48.2657 51.8688 55.4957 43.9507 64.9656C36.3775 74.0119 31.4882 85.0898 29.9991 96.7849C27.1486 119.084 36.2739 140.403 54.0048 153.914C68.7853 165.159 88.1736 169.885 107.47 164.714C126.767 159.544 141.195 145.757 148.372 128.628C156.972 108.062 154.23 85.0451 140.597 67.1502C125.975 47.9411 100.069 38.1869 75.3775 44.943L75.3537 44.9494ZM75.3283 44.8544C87.9865 41.3352 101.048 42.1271 112.712 46.35C123.85 50.37 133.716 57.5325 140.931 66.9208C154.766 84.9526 157.61 108.209 148.981 129C141.757 146.383 127.211 160.443 107.701 165.671C88.1907 170.899 68.5486 165.987 53.6157 154.553C35.7475 140.862 26.5736 119.314 29.5632 96.7744C32.7301 72.7096 50.4375 51.2946 75.3433 44.8631L75.3283 44.8544Z" fill="#F5F5F5"/>
<path d="M67.9488 50.6782C55.9676 53.8249 45.8173 60.6199 38.3937 69.5115C31.2653 78.0311 26.6874 88.4653 25.279 99.4638C22.5721 120.54 31.2399 140.911 48.5381 153.711C62.4037 163.966 80.377 168.116 98.1439 163.368C115.896 158.611 129.386 146.031 136.275 130.202C144.856 110.468 142.177 88.4918 129.295 71.5929C115.582 53.5919 91.3936 44.3071 67.9552 50.702L67.9488 50.6782ZM67.9233 50.5832C79.9225 47.2661 92.1603 48.024 103.091 51.9848C113.581 55.771 122.831 62.538 129.613 71.3548C142.682 88.3819 145.443 110.566 136.835 130.485C129.902 146.529 116.302 159.368 98.3604 164.176C80.4184 168.983 62.2366 164.673 48.1948 154.236C30.7657 141.28 22.0794 120.697 24.8844 99.4167C27.859 76.868 44.3071 56.6946 67.9233 50.5832Z" fill="#F5F5F5"/>
<path d="M60.5376 56.384C49.252 59.3697 39.7596 65.721 32.8393 74.0193C26.1555 82.0123 21.8891 91.8026 20.5702 102.089C18.0155 121.928 26.2171 141.367 43.0825 153.455C56.0485 162.728 72.6066 166.302 88.8375 161.953C105.06 157.619 117.613 146.245 124.213 131.716C132.791 112.824 130.174 91.8877 118.027 75.976C105.224 59.1831 82.7293 50.3741 60.5527 56.3927L60.5376 56.384ZM60.5185 56.3127C71.8349 53.2041 83.2724 53.9217 93.4709 57.6203C103.303 61.1878 111.956 67.5292 118.31 75.7982C130.599 91.812 133.299 112.916 124.695 131.994C118.059 146.724 105.408 158.302 89.0198 162.681C72.6313 167.06 55.9011 163.366 42.7891 153.928C25.8142 141.717 17.5854 122.081 20.2208 102.068C23.003 81.0358 38.1832 62.1191 60.5272 56.2976L60.5185 56.3127Z" fill="#F5F5F5"/>
<path d="M53.1408 62.0966C42.5269 64.9279 33.7075 70.8441 27.2992 78.534C21.0601 86.0003 17.1051 95.1468 15.867 104.737C13.4558 123.352 21.1824 141.875 37.6326 153.22C49.6901 161.528 64.8418 164.51 79.513 160.566C94.1905 156.646 105.83 146.472 112.109 133.264C120.683 115.214 118.113 95.3096 106.717 80.3938C94.8238 64.809 74.0468 56.4694 53.1083 62.118L53.1408 62.0966ZM53.1217 62.0253C63.764 59.1101 74.3924 59.8026 83.8584 63.2389C93.0423 66.5726 101.095 72.5273 107.001 80.216C118.523 95.2251 121.155 115.266 112.564 133.487C106.225 146.901 94.4986 157.226 79.6936 161.193C64.8885 165.16 49.5711 162.082 37.374 153.634C20.8294 142.173 13.0733 123.493 15.5714 104.727C18.0695 85.9611 32.0736 67.5505 53.1217 62.0253Z" fill="#F5F5F5"/>
<path d="M45.738 67.7861C35.8046 70.4478 27.6582 75.929 21.7531 83.0256C15.95 89.9802 12.3001 98.4592 11.1665 107.346C8.88387 124.73 16.1506 142.344 32.1941 152.933C43.3194 160.28 57.0972 162.65 70.215 159.135C83.3479 155.629 94.0796 146.679 100.041 134.754C108.649 117.547 106.135 98.6591 95.4579 84.7607C84.4978 70.3776 65.3997 62.5051 45.738 67.7861ZM45.7253 67.7386C55.6848 65.0317 65.5279 65.6927 74.2377 68.8732C82.7794 71.9969 90.2338 77.526 95.6979 84.6581C106.472 98.6325 109.048 117.656 100.432 134.98C94.4145 147.073 83.6068 156.12 70.3765 159.691C57.1335 163.214 43.2503 160.783 31.9918 153.318C15.8688 142.624 8.58768 124.861 10.9312 107.371C13.275 89.3598 25.9732 72.9674 45.749 67.7322L45.7253 67.7386Z" fill="#F5F5F5"/>
<path d="M38.2938 73.3717C29.0409 75.8637 21.5675 80.9099 16.157 87.4283C10.7986 93.8562 7.47517 101.7 6.41601 109.867C4.28557 126.013 11.0512 142.755 26.712 152.58C36.9114 158.991 49.3001 160.74 60.882 157.624C72.4789 154.517 82.3096 146.814 87.9521 136.171C96.6021 119.832 94.0815 101.965 84.1723 89.0323C74.1129 75.8724 56.7412 68.4542 38.3176 73.3653L38.2938 73.3717ZM38.2811 73.3242C47.5665 70.8107 56.6005 71.4464 64.5779 74.3648C72.4712 77.2547 79.3101 82.3884 84.3409 88.9489C94.3256 101.925 96.9017 119.904 88.2384 136.336C82.5477 147.132 72.6497 154.917 60.9879 158.067C49.3284 161.178 36.8405 159.392 26.5229 152.873C10.8043 142.974 4.0456 126.115 6.20446 109.885C8.37093 93.3988 19.7862 78.2544 38.2811 73.3242Z" fill="#F5F5F5"/>
<path d="M30.8898 79.1002C22.3173 81.4226 15.5082 86.0488 10.6096 91.9588C5.71098 97.8688 2.68394 105.06 1.70556 112.53C-0.257562 127.447 5.88995 143.451 21.2548 152.362C30.4849 157.912 41.5281 158.964 51.5653 156.262C61.6024 153.56 70.655 147.136 75.8648 137.729C84.6918 122.336 82.0376 105.396 72.8792 93.4595C63.7207 81.5228 48.0515 74.5654 30.8898 79.1002ZM30.8834 79.0764C39.486 76.7713 47.7197 77.3669 54.9645 80.023C62.2094 82.6791 68.4329 87.4173 73.0304 93.4063C82.2405 105.393 84.9312 122.374 76.0908 137.86C70.8264 147.395 61.7391 153.88 51.6394 156.586C41.5396 159.293 30.4361 158.205 21.1006 152.594C5.71661 143.612 -0.450006 127.537 1.52415 112.566C3.507 97.5806 13.6544 83.6929 30.8596 79.0827L30.8834 79.0764Z" fill="#F5F5F5"/>
</svg>
