<svg width="116" height="120" viewBox="0 0 116 120" fill="none" xmlns="http://www.w3.org/2000/svg">
<path fill-rule="evenodd" clip-rule="evenodd" d="M43 93L43 4L5.00001 4L5 93L43 93ZM44 3L4.00001 3L4 94L44 94L44 3Z" fill="#F5F5F5"/>
<path d="M24 16C27.3137 16 30 18.6863 30 22L30 74C30 77.3137 27.3137 80 24 80C20.6863 80 18 77.3137 18 74L18 22C18 18.6863 20.6863 16 24 16Z" fill="#F5F5F5"/>
<path d="M43.5 7C41.567 7 40 5.433 40 3.5C40 1.567 41.567 -2.18591e-07 43.5 -1.40819e-07C45.433 -6.30467e-08 47 1.567 47 3.5C47 5.433 45.433 7 43.5 7Z" fill="#FFC062"/>
<path fill-rule="evenodd" clip-rule="evenodd" d="M41 3.5C41 4.88071 42.1193 6 43.5 6C44.8807 6 46 4.88071 46 3.5C46 2.11929 44.8807 1 43.5 1C42.1193 1 41 2.11929 41 3.5ZM40 3.5C40 5.433 41.567 7 43.5 7C45.433 7 47 5.433 47 3.5C47 1.567 45.433 -6.30467e-08 43.5 -1.40819e-07C41.567 -2.18591e-07 40 1.567 40 3.5Z" fill="#F5F5F5"/>
<path d="M43.5 97C41.567 97 40 95.433 40 93.5C40 91.567 41.567 90 43.5 90C45.433 90 47 91.567 47 93.5C47 95.433 45.433 97 43.5 97Z" fill="#FFC062"/>
<path fill-rule="evenodd" clip-rule="evenodd" d="M41 93.5C41 94.8807 42.1193 96 43.5 96C44.8807 96 46 94.8807 46 93.5C46 92.1193 44.8807 91 43.5 91C42.1193 91 41 92.1193 41 93.5ZM40 93.5C40 95.433 41.567 97 43.5 97C45.433 97 47 95.433 47 93.5C47 91.567 45.433 90 43.5 90C41.567 90 40 91.567 40 93.5Z" fill="#F5F5F5"/>
<path d="M4.5 97C2.567 97 1 95.433 1 93.5C1 91.567 2.567 90 4.5 90C6.433 90 8 91.567 8 93.5C8 95.433 6.433 97 4.5 97Z" fill="#FFC062"/>
<path fill-rule="evenodd" clip-rule="evenodd" d="M2 93.5C2 94.8807 3.11929 96 4.5 96C5.88071 96 7 94.8807 7 93.5C7 92.1193 5.88071 91 4.5 91C3.11929 91 2 92.1193 2 93.5ZM1 93.5C1 95.433 2.567 97 4.5 97C6.433 97 8 95.433 8 93.5C8 91.567 6.433 90 4.5 90C2.567 90 1 91.567 1 93.5Z" fill="#F5F5F5"/>
<path d="M4.5 7C2.567 7 1 5.433 1 3.5C1 1.567 2.567 -2.18591e-07 4.5 -1.40819e-07C6.433 -6.30467e-08 8 1.567 8 3.5C8 5.433 6.433 7 4.5 7Z" fill="#FFC062"/>
<path fill-rule="evenodd" clip-rule="evenodd" d="M2 3.5C2 4.88071 3.11929 6 4.5 6C5.88071 6 7 4.88071 7 3.5C7 2.11929 5.88071 1 4.5 1C3.11929 1 2 2.11929 2 3.5ZM1 3.5C1 5.433 2.567 7 4.5 7C6.433 7 8 5.433 8 3.5C8 1.567 6.433 -6.30467e-08 4.5 -1.40819e-07C2.567 -2.18591e-07 1 1.567 1 3.5Z" fill="#F5F5F5"/>
<path fill-rule="evenodd" clip-rule="evenodd" d="M106 25L108 25L108 26L106 26L106 25ZM110 25L111 25L111 26L110 26L110 25ZM111 29.9456L111 27.9674L110 27.9674L110 29.9456L111 29.9456ZM71 26L72 26L72 25L71 25L71 26ZM71 115L71 116L72 116L72 115L71 115ZM110 116L111 116L111 115L110 115L110 116ZM111 31.9239L110 31.9239L110 33.9022L111 33.9022L111 31.9239ZM111 35.8804L110 35.8804L110 37.8587L111 37.8587L111 35.8804ZM111 39.837L110 39.837L110 41.8152L111 41.8152L111 39.837ZM111 43.7935L110 43.7935L110 45.7717L111 45.7717L111 43.7935ZM111 47.75L110 47.75L110 49.7283L111 49.7283L111 47.75ZM111 51.7065L110 51.7065L110 53.6848L111 53.6848L111 51.7065ZM111 55.6631L110 55.6631L110 57.6413L111 57.6413L111 55.6631ZM111 59.6196L110 59.6196L110 61.5978L111 61.5978L111 59.6196ZM111 63.5761L110 63.5761L110 65.5544L111 65.5544L111 63.5761ZM111 67.5326L110 67.5326L110 69.5109L111 69.5109L111 67.5326ZM111 71.4891L110 71.4891L110 73.4674L111 73.4674L111 71.4891ZM111 75.4457L110 75.4457L110 77.4239L111 77.4239L111 75.4457ZM111 79.4022L110 79.4022L110 81.3804L111 81.3804L111 79.4022ZM111 83.3587L110 83.3587L110 85.337L111 85.337L111 83.3587ZM111 87.3152L110 87.3152L110 89.2935L111 89.2935L111 87.3152ZM111 91.2717L110 91.2717L110 93.25L111 93.25L111 91.2717ZM111 95.2283L110 95.2283L110 97.2065L111 97.2065L111 95.2283ZM111 99.1848L110 99.1848L110 101.163L111 101.163L111 99.1848ZM111 103.141L110 103.141L110 105.12L111 105.12L111 103.141ZM111 107.098L110 107.098L110 109.076L111 109.076L111 107.098ZM111 111.054L110 111.054L110 113.033L111 113.033L111 111.054ZM108 116L108 115L106 115L106 116L108 116ZM104 116L104 115L102 115L102 116L104 116ZM100 116L100 115L98 115L98 116L100 116ZM96 116L96 115L94 115L94 116L96 116ZM92 116L92 115L90 115L90 116L92 116ZM88 116L88 115L86 115L86 116L88 116ZM84 116L84 115L82 115L82 116L84 116ZM80 116L80 115L78 115L78 116L80 116ZM76 116L76 115L74 115L74 116L76 116ZM71 113.033L72 113.033L72 111.054L71 111.054L71 113.033ZM71 109.076L72 109.076L72 107.098L71 107.098L71 109.076ZM71 105.12L72 105.12L72 103.141L71 103.141L71 105.12ZM71 101.163L72 101.163L72 99.1848L71 99.1848L71 101.163ZM71 97.2065L72 97.2065L72 95.2283L71 95.2283L71 97.2065ZM71 93.25L72 93.25L72 91.2717L71 91.2717L71 93.25ZM71 89.2935L72 89.2935L72 87.3152L71 87.3152L71 89.2935ZM71 85.3369L72 85.3369L72 83.3587L71 83.3587L71 85.3369ZM71 81.3804L72 81.3804L72 79.4022L71 79.4022L71 81.3804ZM71 77.4239L72 77.4239L72 75.4456L71 75.4456L71 77.4239ZM71 73.4674L72 73.4674L72 71.4891L71 71.4891L71 73.4674ZM71 69.5109L72 69.5109L72 67.5326L71 67.5326L71 69.5109ZM71 65.5543L72 65.5543L72 63.5761L71 63.5761L71 65.5543ZM71 61.5978L72 61.5978L72 59.6196L71 59.6196L71 61.5978ZM71 57.6413L72 57.6413L72 55.663L71 55.663L71 57.6413ZM71 53.6848L72 53.6848L72 51.7065L71 51.7065L71 53.6848ZM71 49.7283L72 49.7283L72 47.75L71 47.75L71 49.7283ZM71 45.7717L72 45.7717L72 43.7935L71 43.7935L71 45.7717ZM71 41.8152L72 41.8152L72 39.837L71 39.837L71 41.8152ZM71 37.8587L72 37.8587L72 35.8804L71 35.8804L71 37.8587ZM71 33.9022L72 33.9022L72 31.9239L71 31.9239L71 33.9022ZM71 29.9457L72 29.9457L72 27.9674L71 27.9674L71 29.9457ZM74 25L74 26L76 26L76 25L74 25ZM78 25L78 26L80 26L80 25L78 25ZM82 25L82 26L84 26L84 25L82 25ZM86 25L86 26L88 26L88 25L86 25ZM90 25L90 26L92 26L92 25L90 25ZM94 25L94 26L96 26L96 25L94 25ZM98 25L98 26L100 26L100 25L98 25ZM102 25L102 26L104 26L104 25L102 25Z" fill="#F5F5F5"/>
<path d="M91 39.6851C94.3137 39.6851 97 42.3714 97 45.6851L97 94.1575C97 97.4712 94.3137 100.157 91 100.157C87.6863 100.157 85 97.4712 85 94.1575L85 45.6851C85 42.3714 87.6863 39.6851 91 39.6851Z" fill="#F5F5F5" fill-opacity="0.2"/>
<path d="M110.5 29C108.567 29 107 27.433 107 25.5C107 23.567 108.567 22 110.5 22C112.433 22 114 23.567 114 25.5C114 27.433 112.433 29 110.5 29Z" fill="#101010"/>
<path fill-rule="evenodd" clip-rule="evenodd" d="M108 25.5C108 26.8807 109.119 28 110.5 28C111.881 28 113 26.8807 113 25.5C113 24.1193 111.881 23 110.5 23C109.119 23 108 24.1193 108 25.5ZM107 25.5C107 27.433 108.567 29 110.5 29C112.433 29 114 27.433 114 25.5C114 23.567 112.433 22 110.5 22C108.567 22 107 23.567 107 25.5Z" fill="#F5F5F5"/>
<path d="M110.5 119C108.567 119 107 117.433 107 115.5C107 113.567 108.567 112 110.5 112C112.433 112 114 113.567 114 115.5C114 117.433 112.433 119 110.5 119Z" fill="#101010"/>
<path fill-rule="evenodd" clip-rule="evenodd" d="M108 115.5C108 116.881 109.119 118 110.5 118C111.881 118 113 116.881 113 115.5C113 114.119 111.881 113 110.5 113C109.119 113 108 114.119 108 115.5ZM107 115.5C107 117.433 108.567 119 110.5 119C112.433 119 114 117.433 114 115.5C114 113.567 112.433 112 110.5 112C108.567 112 107 113.567 107 115.5Z" fill="#F5F5F5"/>
<path d="M71.5 119C69.567 119 68 117.433 68 115.5C68 113.567 69.567 112 71.5 112C73.433 112 75 113.567 75 115.5C75 117.433 73.433 119 71.5 119Z" fill="#101010"/>
<path fill-rule="evenodd" clip-rule="evenodd" d="M69 115.5C69 116.881 70.1193 118 71.5 118C72.8807 118 74 116.881 74 115.5C74 114.119 72.8807 113 71.5 113C70.1193 113 69 114.119 69 115.5ZM68 115.5C68 117.433 69.567 119 71.5 119C73.433 119 75 117.433 75 115.5C75 113.567 73.433 112 71.5 112C69.567 112 68 113.567 68 115.5Z" fill="#F5F5F5"/>
<path d="M71.5 29C69.567 29 68 27.433 68 25.5C68 23.567 69.567 22 71.5 22C73.433 22 75 23.567 75 25.5C75 27.433 73.433 29 71.5 29Z" fill="#101010"/>
<path fill-rule="evenodd" clip-rule="evenodd" d="M69 25.5C69 26.8807 70.1193 28 71.5 28C72.8807 28 74 26.8807 74 25.5C74 24.1193 72.8807 23 71.5 23C70.1193 23 69 24.1193 69 25.5ZM68 25.5C68 27.433 69.567 29 71.5 29C73.433 29 75 27.433 75 25.5C75 23.567 73.433 22 71.5 22C69.567 22 68 23.567 68 25.5Z" fill="#F5F5F5"/>
<path fill-rule="evenodd" clip-rule="evenodd" d="M71.5 67.6132L66.5 70L62.5 70C60.567 70 59 68.433 59 66.5L59 51.9999C59 49.5147 56.9853 47.4999 54.5 47.4999L43.5 47.4999L43.5 48.4999L54.5 48.4999C56.433 48.4999 58 50.0669 58 51.9999L58 66.5C58 68.9852 60.0147 71 62.5 71L66.5 71L71.5 73.3867L71.5 67.6132Z" fill="#F5F5F5"/>
<path d="M43.5 52C41.567 52 40 50.433 40 48.5C40 46.567 41.567 45 43.5 45C45.433 45 47 46.567 47 48.5C47 50.433 45.433 52 43.5 52Z" fill="#101010"/>
<path fill-rule="evenodd" clip-rule="evenodd" d="M41 48.5C41 49.8807 42.1193 51 43.5 51C44.8807 51 46 49.8807 46 48.5C46 47.1193 44.8807 46 43.5 46C42.1193 46 41 47.1193 41 48.5ZM40 48.5C40 50.433 41.567 52 43.5 52C45.433 52 47 50.433 47 48.5C47 46.567 45.433 45 43.5 45C41.567 45 40 46.567 40 48.5Z" fill="#F5F5F5"/>
</svg>
