<svg width="108" height="108" viewBox="0 0 108 108" fill="none" xmlns="http://www.w3.org/2000/svg">
<path fill-rule="evenodd" clip-rule="evenodd" d="M101.581 91.3681C101.429 91.458 101.242 91.4614 101.087 91.377L100.224 90.9069L100.703 90.0288L100.828 90.0969L100.828 89.9129L101.828 89.9148L101.826 90.9389C101.826 91.1152 101.733 91.2783 101.581 91.3681ZM97.253 88.1483L98.978 89.0886L98.4994 89.9666L96.7744 89.0264L97.253 88.1483ZM93.8029 86.2678L95.528 87.2081L95.0494 88.0861L93.3244 87.1459L93.8029 86.2678ZM90.3529 84.3874L92.0779 85.3276L91.5993 86.2056L89.8743 85.2654L90.3529 84.3874ZM86.9029 82.5069L88.6279 83.4471L88.1493 84.3251L86.4243 83.3849L86.9029 82.5069ZM83.4529 80.6264L85.1779 81.5666L84.6993 82.4446L82.9743 81.5044L83.4529 80.6264ZM80.0029 78.7459L81.7279 79.6861L81.2493 80.5641L79.5243 79.6239L80.0029 78.7459ZM76.5529 76.8654L78.2779 77.8056L77.7993 78.6836L76.0743 77.7434L76.5529 76.8654ZM73.1029 74.9849L74.8279 75.9251L74.3493 76.8031L72.6243 75.8629L73.1029 74.9849ZM69.6528 73.1044L71.3779 74.0446L70.8993 74.9226L69.1743 73.9824L69.6528 73.1044ZM66.2028 71.2239L67.9278 72.1641L67.4493 73.0422L65.7242 72.1019L66.2028 71.2239ZM63.8766 69.9559L64.4778 70.2836L63.9992 71.1617L63.1367 70.6915C62.9757 70.6038 62.8757 70.435 62.876 70.2516L62.8779 69.2274L63.8779 69.2292L63.8766 69.9559ZM63.8853 65.1326L63.8816 67.1809L62.8816 67.1791L62.8853 65.1308L63.8853 65.1326ZM63.8927 61.0359L63.889 63.0842L62.889 63.0824L62.8927 61.0341L63.8927 61.0359ZM63.9001 56.9392L63.8964 58.9875L62.8964 58.9857L62.9001 56.9374L63.9001 56.9392ZM63.9075 52.8425L63.9038 54.8909L62.9038 54.8891L62.9075 52.8407L63.9075 52.8425ZM63.9149 48.7459L63.9112 50.7942L62.9112 50.7924L62.9149 48.744L63.9149 48.7459ZM63.9223 44.6492L63.9186 46.6975L62.9186 46.6957L62.9223 44.6474L63.9223 44.6492ZM63.9297 40.5525L63.926 42.6008L62.926 42.599L62.9297 40.5507L63.9297 40.5525ZM63.9371 36.4558L63.9334 38.5042L62.9334 38.5024L62.9371 36.454L63.9371 36.4558ZM63.9445 32.3591L63.9408 34.4075L62.9408 34.4057L62.9445 32.3573L63.9445 32.3591ZM63.9519 28.2625L63.9482 30.3108L62.9482 30.309L62.9519 28.2607L63.9519 28.2625ZM63.9593 24.1658L63.9556 26.2141L62.9556 26.2123L62.9593 24.164L63.9593 24.1658ZM63.9667 20.0691L63.963 22.1174L62.963 22.1156L62.9667 20.0673L63.9667 20.0691ZM63.9741 15.9724L63.9704 18.0208L62.9704 18.0189L62.9741 15.9706L63.9741 15.9724ZM63.9815 11.8757L63.9778 13.9241L62.9778 13.9223L62.9815 11.8739L63.9815 11.8757ZM63.9855 9.64354L63.9852 9.8274L62.9852 9.82559L62.987 8.80143C62.9874 8.62514 63.0805 8.46205 63.2321 8.37218C63.3838 8.28231 63.5716 8.27895 63.7264 8.36332L64.589 8.83358L64.1103 9.71159L63.9855 9.64354Z" fill="#F5F5F5"/>
<path fill-rule="evenodd" clip-rule="evenodd" d="M100.292 90.9441L100.381 91.5762L101.396 91.4332C101.609 91.4032 101.78 91.2396 101.818 91.0274C101.857 90.8153 101.755 90.6023 101.565 90.4991L100.703 90.029L100.412 90.5619L100.242 90.586L100.274 90.8155L100.224 90.907L100.292 90.9441ZM98.4993 89.9668L96.7743 89.0265L97.2529 88.1485L98.9779 89.0887L98.4993 89.9668ZM95.0493 88.0863L93.3243 87.146L93.8029 86.268L95.5279 87.2082L95.0493 88.0863ZM91.5993 86.2058L89.8743 85.2655L90.3529 84.3875L92.0779 85.3277L91.5993 86.2058ZM88.1493 84.3253L86.4243 83.385L86.9029 82.507L88.6279 83.4472L88.1493 84.3253ZM84.6993 82.4448L82.9743 81.5045L83.4529 80.6265L85.1779 81.5668L84.6993 82.4448ZM81.2493 80.5643L79.5243 79.624L80.0028 78.746L81.7279 79.6863L81.2493 80.5643ZM7.59286 78.2451L7.66095 78.2822L7.61098 78.3739L7.64328 78.6033L7.47286 78.6273L7.18232 79.1602L6.31968 78.69C6.13035 78.5868 6.02851 78.3738 6.06704 78.1616C6.10556 77.9495 6.27576 77.7859 6.48929 77.7559L7.50388 77.613L7.59286 78.2451ZM77.7993 78.6838L76.0742 77.7435L76.5528 76.8655L78.2778 77.8058L77.7993 78.6838ZM11.7016 78.032L9.67246 78.3176L9.53306 77.3274L11.5622 77.0417L11.7016 78.032ZM15.76 77.4606L13.7308 77.7463L13.5914 76.7561L15.6206 76.4704L15.76 77.4606ZM19.8184 76.8893L17.7892 77.175L17.6498 76.1848L19.679 75.8991L19.8184 76.8893ZM74.3492 76.8033L72.6242 75.863L73.1028 74.985L74.8278 75.9253L74.3492 76.8033ZM23.8767 76.318L21.8475 76.6037L21.7081 75.6134L23.7373 75.3278L23.8767 76.318ZM27.9351 75.7467L25.9059 76.0324L25.7665 75.0421L27.7957 74.7565L27.9351 75.7467ZM31.9934 75.1754L29.9642 75.4611L29.8249 74.4708L31.854 74.1852L31.9934 75.1754ZM70.8992 74.9228L69.1742 73.9825L69.6528 73.1045L71.3778 74.0448L70.8992 74.9228ZM36.0518 74.6041L34.0226 74.8898L33.8832 73.8995L35.9124 73.6139L36.0518 74.6041ZM40.1101 74.0328L38.081 74.3184L37.9416 73.3282L39.9707 73.0426L40.1101 74.0328ZM44.1685 73.4615L42.1393 73.7471L41.9999 72.7569L44.0291 72.4713L44.1685 73.4615ZM48.2269 72.8902L46.1977 73.1758L46.0583 72.1856L48.0875 71.8999L48.2269 72.8902ZM67.4492 73.0423L65.7242 72.102L66.2028 71.224L67.9278 72.1643L67.4492 73.0423ZM52.2852 72.3189L50.256 72.6045L50.1166 71.6143L52.1458 71.3286L52.2852 72.3189ZM56.3436 71.7476L54.3144 72.0332L54.175 71.043L56.2042 70.7573L56.3436 71.7476ZM60.4019 71.1763L58.3728 71.4619L58.2334 70.4717L60.2625 70.186L60.4019 71.1763ZM63.2819 70.7708L63.9992 71.1618L64.4778 70.2838L63.6153 69.8136C63.521 69.7622 63.4126 69.7426 63.3063 69.7575L62.2917 69.9004L62.4311 70.8906L63.2819 70.7708Z" fill="#F5F5F5"/>
<path fill-rule="evenodd" clip-rule="evenodd" d="M6.23096 78.6281C6.12166 78.5329 6.05902 78.395 6.05929 78.2501L6.06114 77.2259L7.06114 77.2277L7.06033 77.6755L7.50418 77.613L7.64358 78.6033L6.62899 78.7461C6.48548 78.7663 6.34026 78.7232 6.23096 78.6281ZM11.7019 78.032L9.67276 78.3176L9.53336 77.3274L11.5625 77.0417L11.7019 78.032ZM15.7603 77.4607L13.7311 77.7463L13.5917 76.7561L15.6209 76.4704L15.7603 77.4607ZM19.8186 76.8893L17.7895 77.175L17.6501 76.1848L19.6792 75.8991L19.8186 76.8893ZM23.877 76.318L21.8478 76.6037L21.7084 75.6135L23.7376 75.3278L23.877 76.318ZM27.9354 75.7467L25.9062 76.0324L25.7668 75.0421L27.796 74.7565L27.9354 75.7467ZM31.9937 75.1754L29.9645 75.4611L29.8251 74.4708L31.8543 74.1852L31.9937 75.1754ZM36.0521 74.6041L34.0229 74.8898L33.8835 73.8995L35.9127 73.6139L36.0521 74.6041ZM40.1104 74.0328L38.0813 74.3185L37.9419 73.3282L39.971 73.0426L40.1104 74.0328ZM44.1688 73.4615L42.1396 73.7471L42.0002 72.7569L44.0294 72.4713L44.1688 73.4615ZM48.2272 72.8902L46.198 73.1758L46.0586 72.1856L48.0878 71.8999L48.2272 72.8902ZM52.2855 72.3189L50.2563 72.6045L50.1169 71.6143L52.1461 71.3286L52.2855 72.3189ZM56.3439 71.7476L54.3147 72.0332L54.1753 71.043L56.2045 70.7573L56.3439 71.7476ZM60.4022 71.1763L58.373 71.4619L58.2337 70.4717L60.2628 70.186L60.4022 71.1763ZM63.446 70.7478L62.4314 70.8906L62.292 69.9004L62.8771 69.818L62.8781 69.2276L63.8781 69.2294L63.8763 70.2536C63.8758 70.5024 63.6924 70.7131 63.446 70.7478ZM63.8855 65.1327L63.8818 67.1811L62.8818 67.1792L62.8855 65.1309L63.8855 65.1327ZM63.8929 61.036L63.8892 63.0844L62.8892 63.0826L62.8929 61.0342L63.8929 61.036ZM63.9003 56.9394L63.8966 58.9877L62.8966 58.9859L62.9003 56.9375L63.9003 56.9394ZM63.9077 52.8427L63.904 54.891L62.904 54.8892L62.9077 52.8409L63.9077 52.8427ZM63.9151 48.746L63.9114 50.7943L62.9114 50.7925L62.9151 48.7442L63.9151 48.746ZM63.9225 44.6493L63.9188 46.6977L62.9188 46.6959L62.9225 44.6475L63.9225 44.6493ZM63.9299 40.5526L63.9262 42.601L62.9262 42.5992L62.9299 40.5508L63.9299 40.5526ZM63.9373 36.456L63.9336 38.5043L62.9336 38.5025L62.9373 36.4542L63.9373 36.456ZM63.9447 32.3593L63.941 34.4076L62.941 34.4058L62.9447 32.3575L63.9447 32.3593ZM63.9521 28.2626L63.9484 30.3109L62.9484 30.3091L62.9521 28.2608L63.9521 28.2626ZM63.9595 24.1659L63.9558 26.2143L62.9558 26.2124L62.9595 24.1641L63.9595 24.1659ZM63.9669 20.0692L63.9632 22.1176L62.9632 22.1158L62.9669 20.0674L63.9669 20.0692ZM63.9743 15.9726L63.9706 18.0209L62.9706 18.0191L62.9743 15.9707L63.9743 15.9726ZM63.9817 11.8759L63.978 13.9242L62.978 13.9224L62.9817 11.8741L63.9817 11.8759ZM63.9873 8.80339L63.9854 9.82754L62.9854 9.82574L62.9863 9.37795L62.5424 9.44043L62.403 8.4502L63.4176 8.30737C63.5611 8.28716 63.7063 8.33022 63.8156 8.42539C63.9249 8.52055 63.9876 8.65846 63.9873 8.80339Z" fill="#F5F5F5"/>
<path fill-rule="evenodd" clip-rule="evenodd" d="M6.41929 16.3762C6.57094 16.2864 6.7587 16.283 6.91348 16.3674L44.8636 37.0529C45.0246 37.1406 45.1247 37.3094 45.1243 37.4928L45.0133 98.943C45.013 99.1192 44.9199 99.2823 44.7682 99.3722C44.6166 99.4621 44.4288 99.4654 44.274 99.3811L6.3183 78.69C6.15731 78.6023 6.05727 78.4334 6.05762 78.2501L6.17418 16.8054C6.17452 16.6292 6.26765 16.4661 6.41929 16.3762ZM7.17259 17.6475L7.05818 77.9544L44.0148 98.1009L44.1238 37.7885L7.17259 17.6475Z" fill="#F5F5F5"/>
<path fill-rule="evenodd" clip-rule="evenodd" d="M63.4165 8.30714C63.5229 8.29215 63.6313 8.31182 63.7256 8.36324L101.681 29.0543C101.871 29.1575 101.972 29.3705 101.934 29.5826C101.895 29.7948 101.725 29.9584 101.512 29.9884L44.6947 37.9867C44.5883 38.0017 44.48 37.982 44.3857 37.9306L6.43554 17.2451C6.24621 17.1419 6.14436 16.929 6.18287 16.7168C6.22138 16.5047 6.39156 16.3411 6.60508 16.311L63.4165 8.30714ZM8.2411 17.0904L44.7191 36.9734L99.8756 29.2089L63.3922 9.32044L8.2411 17.0904Z" fill="#F5F5F5"/>
<path fill-rule="evenodd" clip-rule="evenodd" d="M101.77 29.1161C101.879 29.2112 101.942 29.3491 101.942 29.4941L101.831 90.9442C101.83 91.1931 101.647 91.4038 101.4 91.4385L44.5834 99.4368C44.4399 99.457 44.2946 99.4139 44.1853 99.3187C44.076 99.2236 44.0134 99.0857 44.0137 98.9408L44.1247 37.4906C44.1251 37.2417 44.3085 37.0311 44.555 36.9964L101.372 28.998C101.515 28.9778 101.661 29.0209 101.77 29.1161ZM45.1239 37.9261L45.0147 98.3662L100.831 90.5087L100.941 30.0686L45.1239 37.9261Z" fill="#F5F5F5"/>
<path d="M3 17C3 15.067 4.567 13.5 6.5 13.5C8.433 13.5 10 15.067 10 17C10 18.933 8.433 20.5 6.5 20.5C4.567 20.5 3 18.933 3 17Z" fill="#FFC062"/>
<path fill-rule="evenodd" clip-rule="evenodd" d="M4 17C4 18.3807 5.11929 19.5 6.5 19.5C7.88071 19.5 9 18.3807 9 17C9 15.6193 7.88071 14.5 6.5 14.5C5.11929 14.5 4 15.6193 4 17ZM6.5 13.5C4.567 13.5 3 15.067 3 17C3 18.933 4.567 20.5 6.5 20.5C8.433 20.5 10 18.933 10 17C10 15.067 8.433 13.5 6.5 13.5Z" fill="#F5F5F5"/>
<path d="M41 37C41 35.067 42.567 33.5 44.5 33.5C46.433 33.5 48 35.067 48 37C48 38.933 46.433 40.5 44.5 40.5C42.567 40.5 41 38.933 41 37Z" fill="#FFC062"/>
<path fill-rule="evenodd" clip-rule="evenodd" d="M42 37C42 38.3807 43.1193 39.5 44.5 39.5C45.8807 39.5 47 38.3807 47 37C47 35.6193 45.8807 34.5 44.5 34.5C43.1193 34.5 42 35.6193 42 37ZM44.5 33.5C42.567 33.5 41 35.067 41 37C41 38.933 42.567 40.5 44.5 40.5C46.433 40.5 48 38.933 48 37C48 35.067 46.433 33.5 44.5 33.5Z" fill="#F5F5F5"/>
<path d="M60 9C60 7.067 61.567 5.5 63.5 5.5C65.433 5.5 67 7.067 67 9C67 10.933 65.433 12.5 63.5 12.5C61.567 12.5 60 10.933 60 9Z" fill="#FFC062"/>
<path fill-rule="evenodd" clip-rule="evenodd" d="M61 9C61 10.3807 62.1193 11.5 63.5 11.5C64.8807 11.5 66 10.3807 66 9C66 7.61929 64.8807 6.5 63.5 6.5C62.1193 6.5 61 7.61929 61 9ZM63.5 5.5C61.567 5.5 60 7.067 60 9C60 10.933 61.567 12.5 63.5 12.5C65.433 12.5 67 10.933 67 9C67 7.067 65.433 5.5 63.5 5.5Z" fill="#F5F5F5"/>
<path d="M60 70C60 68.067 61.567 66.5 63.5 66.5C65.433 66.5 67 68.067 67 70C67 71.933 65.433 73.5 63.5 73.5C61.567 73.5 60 71.933 60 70Z" fill="#101010"/>
<path fill-rule="evenodd" clip-rule="evenodd" d="M61 70C61 71.3807 62.1193 72.5 63.5 72.5C64.8807 72.5 66 71.3807 66 70C66 68.6193 64.8807 67.5 63.5 67.5C62.1193 67.5 61 68.6193 61 70ZM63.5 66.5C61.567 66.5 60 68.067 60 70C60 71.933 61.567 73.5 63.5 73.5C65.433 73.5 67 71.933 67 70C67 68.067 65.433 66.5 63.5 66.5Z" fill="#F5F5F5"/>
<path d="M98 29C98 27.067 99.567 25.5 101.5 25.5C103.433 25.5 105 27.067 105 29C105 30.933 103.433 32.5 101.5 32.5C99.567 32.5 98 30.933 98 29Z" fill="#FFC062"/>
<path fill-rule="evenodd" clip-rule="evenodd" d="M99 29C99 30.3807 100.119 31.5 101.5 31.5C102.881 31.5 104 30.3807 104 29C104 27.6193 102.881 26.5 101.5 26.5C100.119 26.5 99 27.6193 99 29ZM101.5 25.5C99.567 25.5 98 27.067 98 29C98 30.933 99.567 32.5 101.5 32.5C103.433 32.5 105 30.933 105 29C105 27.067 103.433 25.5 101.5 25.5Z" fill="#F5F5F5"/>
<path d="M98 91C98 89.067 99.567 87.5 101.5 87.5C103.433 87.5 105 89.067 105 91C105 92.933 103.433 94.5 101.5 94.5C99.567 94.5 98 92.933 98 91Z" fill="#101010"/>
<path fill-rule="evenodd" clip-rule="evenodd" d="M99 91C99 92.3807 100.119 93.5 101.5 93.5C102.881 93.5 104 92.3807 104 91C104 89.6193 102.881 88.5 101.5 88.5C100.119 88.5 99 89.6193 99 91ZM101.5 87.5C99.567 87.5 98 89.067 98 91C98 92.933 99.567 94.5 101.5 94.5C103.433 94.5 105 92.933 105 91C105 89.067 103.433 87.5 101.5 87.5Z" fill="#F5F5F5"/>
<path d="M41 99C41 97.067 42.567 95.5 44.5 95.5C46.433 95.5 48 97.067 48 99C48 100.933 46.433 102.5 44.5 102.5C42.567 102.5 41 100.933 41 99Z" fill="#101010"/>
<path fill-rule="evenodd" clip-rule="evenodd" d="M42 99C42 100.381 43.1193 101.5 44.5 101.5C45.8807 101.5 47 100.381 47 99C47 97.6193 45.8807 96.5 44.5 96.5C43.1193 96.5 42 97.6193 42 99ZM44.5 95.5C42.567 95.5 41 97.067 41 99C41 100.933 42.567 102.5 44.5 102.5C46.433 102.5 48 100.933 48 99C48 97.067 46.433 95.5 44.5 95.5Z" fill="#F5F5F5"/>
<path d="M3 78C3 76.067 4.567 74.5 6.5 74.5C8.433 74.5 10 76.067 10 78C10 79.933 8.433 81.5 6.5 81.5C4.567 81.5 3 79.933 3 78Z" fill="#101010"/>
<path fill-rule="evenodd" clip-rule="evenodd" d="M4 78C4 79.3807 5.11929 80.5 6.5 80.5C7.88071 80.5 9 79.3807 9 78C9 76.6193 7.88071 75.5 6.5 75.5C5.11929 75.5 4 76.6193 4 78ZM6.5 74.5C4.567 74.5 3 76.067 3 78C3 79.933 4.567 81.5 6.5 81.5C8.433 81.5 10 79.933 10 78C10 76.067 8.433 74.5 6.5 74.5Z" fill="#F5F5F5"/>
<path fill-rule="evenodd" clip-rule="evenodd" d="M62.9072 53.0022L67 51.5477L56 45.5L59.2069 57.6363L61.6084 54.017L64.4836 57.6971L65.7824 56.6823L62.9072 53.0022Z" fill="#101010"/>
<path fill-rule="evenodd" clip-rule="evenodd" d="M67.0004 51.5476L62.9076 53.0022L65.7828 56.6823L64.484 57.697L61.6088 54.0169L59.2073 57.6363L56.0004 45.4999L67.0004 51.5476ZM61.6749 55.7259L58.8094 60.0447L54.4375 43.4995L69.4336 51.7441L64.5498 53.4798L67.1865 56.8546L64.3116 59.1007L61.6749 55.7259Z" fill="#F5F5F5"/>
</svg>
