<svg width="144" height="144" viewBox="0 0 144 144" fill="none" xmlns="http://www.w3.org/2000/svg">
<path d="M65.8783 64.3007C64.7141 64.4455 63.8879 65.5186 64.0381 66.6882C64.1883 67.8578 65.256 68.6786 66.4256 68.5284C66.5651 68.5069 66.6992 68.4801 66.8333 68.4318C67.1713 68.4157 67.5147 68.287 67.7722 68.0295C68.0297 67.7719 68.1639 67.4339 68.18 67.0959C68.2819 66.8008 68.3195 66.4736 68.2765 66.1517C68.1263 64.9821 67.0587 64.1612 65.8891 64.3114L65.8783 64.3007ZM68.0137 66.9511C67.8312 67.5841 67.3269 68.0885 66.6724 68.2709C66.3827 68.2494 66.1037 68.1314 65.8837 67.9114C65.3955 67.4232 65.3955 66.6292 65.8837 66.1409C66.3719 65.6527 67.166 65.6527 67.6542 66.1409C67.8795 66.3663 67.9922 66.6506 68.0083 66.9457L68.0137 66.9511ZM68.0727 66.1624C68.0888 66.2965 68.0941 66.4306 68.0834 66.5594C68.0137 66.3716 67.9117 66.1946 67.7561 66.039C67.2089 65.4917 66.3183 65.4917 65.771 66.039C65.2238 66.5862 65.2238 67.4768 65.771 68.0241C65.9159 68.1689 66.0822 68.2709 66.27 68.3406C65.2613 68.405 64.3546 67.6807 64.2205 66.656C64.14 66.039 64.3654 65.4488 64.7785 65.0357C65.0736 64.7406 65.4599 64.5368 65.8998 64.4831C66.9621 64.3436 67.9332 65.1001 68.0727 66.1624Z" fill="url(#paint0_linear_301_14478)"/>
<path d="M64.0225 62.595C62.2574 63.4266 61.4955 65.5405 62.3271 67.3056C62.7295 68.1587 63.4431 68.8079 64.3337 69.1298C65.2243 69.4517 66.1847 69.4034 67.0377 69.001C67.4186 68.824 67.7513 68.5879 68.0356 68.3035C69.0604 67.2788 69.3876 65.6746 68.7385 64.2851C68.3361 63.432 67.6225 62.7828 66.7319 62.4609C65.8413 62.139 64.8809 62.1873 64.0279 62.5897L64.0225 62.595ZM68.5292 64.387C69.3072 66.0448 68.5882 68.0192 66.9411 68.7971C66.1364 69.1727 65.2404 69.221 64.4088 68.9152C63.5718 68.6147 62.9119 68.0084 62.531 67.209C61.9194 65.9107 62.2252 64.4138 63.1855 63.4535C63.4484 63.1906 63.7596 62.9652 64.1191 62.7989C64.9239 62.4234 65.8198 62.3751 66.6514 62.6809C67.4884 62.9813 68.1483 63.5876 68.5292 64.387Z" fill="url(#paint1_linear_301_14478)"/>
<path d="M62.1822 60.8832C61.0341 61.6129 60.24 62.7396 59.9396 64.0701C59.6445 65.3953 59.8806 66.758 60.6102 67.9062C62.1178 70.2722 65.2672 70.975 67.6386 69.4728C67.9605 69.2689 68.2502 69.0329 68.5131 68.77C69.1891 68.094 69.6612 67.2355 69.8704 66.2859C70.1655 64.9607 69.9295 63.598 69.1998 62.4498C67.6922 60.0838 64.5429 59.381 62.1715 60.8832L62.1822 60.8832ZM68.9798 62.5947C69.6719 63.6838 69.8973 64.9715 69.6129 66.2323C69.3339 67.4877 68.5774 68.5661 67.4937 69.2528C65.2511 70.68 62.2627 70.0093 60.8356 67.7667C60.1435 66.6776 59.9181 65.3899 60.2025 64.1291C60.401 63.2224 60.8517 62.4177 61.4955 61.7738C61.7423 61.527 62.0213 61.3017 62.3271 61.1032C64.5697 59.6761 67.5581 60.3467 68.9852 62.5893L68.9798 62.5947Z" fill="url(#paint2_linear_301_14478)"/>
<path d="M60.3415 59.1721C58.8983 60.2291 57.9594 61.7796 57.6911 63.5394C57.4175 65.3045 57.8467 67.0642 58.9037 68.5075C61.0819 71.4797 65.2667 72.1236 68.2336 69.9507C68.518 69.7414 68.7755 69.5161 69.0169 69.2747C70.0148 68.2768 70.664 66.9945 70.884 65.5835C71.1576 63.8183 70.7284 62.0586 69.6715 60.6154C67.4932 57.6431 63.3084 56.9993 60.3415 59.1721ZM69.43 60.7924C70.4387 62.1659 70.8464 63.8505 70.5889 65.5352C70.3314 67.2198 69.43 68.7006 68.0512 69.7039C65.213 71.7802 61.216 71.1632 59.1451 68.3304C58.1364 66.9569 57.7287 65.2723 57.9862 63.5876C58.1955 62.2303 58.8125 61.0124 59.7674 60.0574C59.9981 59.8267 60.2503 59.6067 60.5186 59.4136C63.3567 57.3373 67.3537 57.9543 69.4247 60.787L69.43 60.7924Z" fill="url(#paint3_linear_301_14478)"/>
<path d="M58.5064 57.455C56.7789 58.8285 55.6844 60.8029 55.4376 63.0026C55.1908 65.2023 55.8078 67.3644 57.1866 69.0973C60.0301 72.6705 65.2558 73.2607 68.8289 70.4172C69.0811 70.2187 69.3118 70.0094 69.5371 69.7841C70.857 68.4643 71.6886 66.7528 71.8978 64.8696C72.1446 62.6699 71.5276 60.5078 70.1488 58.7748C67.3052 55.2017 62.0796 54.6115 58.5064 57.455ZM69.8805 58.9894C71.2057 60.6473 71.8012 62.7236 71.5598 64.8321C71.3184 66.9406 70.2722 68.8345 68.6143 70.1489C65.186 72.8798 60.1857 72.3111 57.4549 68.8827C56.1297 67.2249 55.5342 65.1486 55.7756 63.0401C55.9795 61.2374 56.7735 59.5957 58.0397 58.3295C58.2543 58.1149 58.4796 57.9111 58.721 57.7233C62.1494 54.9924 67.1497 55.5611 69.8805 58.9894Z" fill="url(#paint4_linear_301_14478)"/>
<path d="M56.666 55.7438C52.4866 59.2579 51.9501 65.5137 55.4696 69.6877C57.1704 71.7104 59.5579 72.9497 62.1975 73.1751C64.8318 73.4058 67.3963 72.5903 69.4243 70.8842C69.6443 70.6964 69.8535 70.5086 70.052 70.3101C73.6413 66.7208 73.9525 60.8943 70.6207 56.9402C68.92 54.9175 66.5325 53.6782 63.8929 53.4528C61.2586 53.2221 58.6941 54.0377 56.666 55.7438ZM70.3257 57.1816C73.7057 61.1947 73.1853 67.2198 69.1775 70.5944C67.23 72.2308 64.762 73.0141 62.2297 72.7995C59.6973 72.5849 57.4011 71.3938 55.7647 69.4463C52.5617 65.6424 52.8514 60.0412 56.3066 56.5861C56.4997 56.3929 56.7036 56.2105 56.9128 56.0335C58.8604 54.3971 61.3283 53.6138 63.8607 53.8284C66.393 54.043 68.6893 55.2341 70.3257 57.1816Z" fill="url(#paint5_linear_301_14478)"/>
<path d="M54.8367 54.032C50.051 58.2275 49.5735 65.508 53.7636 70.2883C55.7917 72.6061 58.603 73.9903 61.6718 74.1942C64.7407 74.398 67.7076 73.3947 70.0253 71.3667C70.2185 71.195 70.4063 71.018 70.5833 70.8409C74.8325 66.5918 75.1115 59.6922 71.0984 55.1104C69.0704 52.7927 66.259 51.4085 63.1902 51.2046C60.1213 51.0007 57.1544 52.004 54.8367 54.032ZM70.7818 55.384C74.8164 59.9873 74.3282 67.0317 69.741 71.0502C67.5091 73.0031 64.6495 73.9742 61.6933 73.7757C58.7318 73.5825 56.0277 72.2412 54.0748 70.0094C50.2066 65.5939 50.4748 58.9411 54.5684 54.8475C54.7401 54.6758 54.9225 54.5041 55.1103 54.3378C57.3422 52.3849 60.2018 51.4138 63.158 51.6123C66.1195 51.8055 68.8236 53.1468 70.7765 55.3787L70.7818 55.384Z" fill="url(#paint6_linear_301_14478)"/>
<path d="M53.0022 52.3153C47.6264 57.1761 47.1918 65.4974 52.0473 70.8787C56.9027 76.2599 65.2294 76.6891 70.6106 71.8336C70.7823 71.6834 70.9432 71.5225 71.1042 71.3615C76.0133 66.4524 76.2601 58.4798 71.5656 53.2703C66.7101 47.8891 58.3835 47.4599 53.0022 52.3153ZM71.2276 53.5761C75.9167 58.7696 75.509 66.8065 70.3048 71.4956C65.1113 76.1848 57.069 75.7716 52.3853 70.5728C47.8464 65.5404 48.0932 57.8468 52.8306 53.1094C52.9861 52.9538 53.1417 52.7982 53.3081 52.6533C58.5015 47.9642 66.5438 48.3773 71.2276 53.5761Z" fill="url(#paint7_linear_301_14478)"/>
<path d="M51.1669 50.5986C45.2009 56.0925 44.8092 65.4869 50.33 71.469C55.8507 77.4511 65.2182 77.8267 71.2003 72.3059C71.3452 72.1718 71.4954 72.0323 71.6349 71.8928C77.2039 66.3238 77.4239 57.2729 72.0373 51.4356C66.5166 45.4535 57.149 45.0779 51.1669 50.5986ZM70.8677 71.9411C65.0787 77.2794 56.0331 76.9146 50.6948 71.1363C45.4853 65.4976 45.7052 56.7471 51.0864 51.3658C51.2206 51.2317 51.3601 51.0922 51.5049 50.9688C57.2939 45.6305 66.3395 45.9954 71.6778 51.7736C77.0215 57.5572 76.662 66.6189 70.873 71.9465L70.8677 71.9411Z" fill="url(#paint8_linear_301_14478)"/>
<path d="M61.0715 44.45C56.6936 44.3105 52.5249 45.8932 49.3326 48.8923C42.7657 55.0622 42.4224 65.4813 48.6137 72.0697C51.6128 75.2619 55.6742 77.0914 60.0522 77.2309C64.4301 77.3704 68.5988 75.7877 71.7911 72.7886C71.9145 72.6652 72.0379 72.5525 72.1612 72.4291C78.3902 66.2002 78.5833 56.0709 72.51 49.6113C69.5109 46.419 65.4495 44.5895 61.0715 44.45ZM71.4316 72.397C68.3466 75.2995 64.3121 76.8232 60.0736 76.6944C55.8352 76.5657 51.9025 74.7898 49 71.7048C43.1198 65.4491 43.313 55.6524 49.338 49.6273C49.456 49.5093 49.5741 49.3913 49.6867 49.2786C52.7717 46.3761 56.8063 44.8524 61.0447 44.9812C65.2832 45.1099 69.2158 46.8858 72.1183 49.9707C78.1058 56.3445 77.7732 66.4202 71.4209 72.3969L71.4316 72.397Z" fill="url(#paint9_linear_301_14478)"/>
<path d="M47.5028 47.1705C44.0047 50.5077 42.0357 54.9768 41.9231 59.7893C41.8104 64.6018 43.5809 69.1729 46.9019 72.6549C53.7639 79.8495 65.197 80.1124 72.3862 73.2558C72.4882 73.1539 72.5901 73.0519 72.6921 72.95C75.9809 69.6612 77.8479 65.3047 77.9606 60.6316C78.0733 55.8191 76.3028 51.248 72.9818 47.7661C66.1198 40.5714 54.6867 40.3085 47.4974 47.1652L47.5028 47.1705ZM77.3973 60.6156C77.2846 65.2778 75.38 69.6075 71.9999 72.8373C65.036 79.4793 53.9624 79.2218 47.3204 72.2579C44.1013 68.8886 42.3898 64.4623 42.4971 59.7947C42.5991 55.2719 44.4125 51.0549 47.5994 47.868C47.6959 47.7714 47.7979 47.6695 47.8944 47.5729C54.8584 40.9309 65.932 41.1884 72.574 48.1524C75.7931 51.5217 77.5046 55.9479 77.3973 60.6156Z" fill="url(#paint10_linear_301_14478)"/>
<path d="M78.9745 59.9287C79.0657 54.6762 77.1021 49.7081 73.4591 45.9364C65.9265 38.1462 53.4633 37.9263 45.6678 45.4643C41.88 49.134 39.7608 54.0109 39.6749 59.258C39.5837 64.5105 41.5474 69.4786 45.1903 73.2503C52.7229 81.0404 65.1861 81.2604 72.9816 73.7224C73.0621 73.6419 73.1426 73.5614 73.2284 73.4756C76.8499 69.8541 78.8886 65.0577 78.9745 59.9179V59.9287ZM45.6249 72.8264C42.0892 69.1728 40.19 64.3549 40.2812 59.2634C40.367 54.2845 42.3414 49.6383 45.8502 46.1296C45.9307 46.0491 46.0058 45.974 46.0863 45.8935C53.6404 38.5969 65.7226 38.8008 73.0192 46.3549C76.5548 50.0085 78.4541 54.8264 78.3629 59.9179C78.277 65.0041 76.2383 69.7361 72.5524 73.2932C64.9983 80.5898 52.9161 80.3859 45.6195 72.8318L45.6249 72.8264Z" fill="url(#paint11_linear_301_14478)"/>
<path d="M73.9312 44.1014C69.961 40.0346 64.6441 37.7544 58.9571 37.69C53.2701 37.6257 47.8996 39.7771 43.8328 43.7473C43.7738 43.8063 43.7148 43.8653 43.6504 43.9297C35.4364 52.1437 35.3398 65.5136 43.4787 73.8456C47.4489 77.9124 52.7658 80.1926 58.4528 80.257C64.1398 80.3213 69.5103 78.1699 73.5771 74.1997C73.6361 74.1407 73.6951 74.0817 73.7595 74.0173C81.9735 65.8033 82.0701 52.4334 73.9312 44.1014ZM58.4582 79.6078C52.9428 79.5434 47.7923 77.333 43.9348 73.3896C36.0427 65.3043 36.1392 52.3422 44.1064 44.375C44.1655 44.316 44.2245 44.2569 44.2835 44.1979C48.2322 40.3458 53.4364 38.2641 58.9517 38.3285C64.4671 38.3929 69.6176 40.6033 73.4751 44.5467C81.3672 52.6319 81.2707 65.5941 73.3035 73.5613C73.2444 73.6203 73.1854 73.6793 73.1264 73.7383C69.1777 77.5905 63.9735 79.6722 58.4582 79.6078Z" fill="url(#paint12_linear_301_14478)"/>
<path d="M74.4033 42.2664C70.1058 37.9046 64.3705 35.4849 58.2489 35.4366C52.1273 35.3884 46.3598 37.7329 41.9979 42.0304C41.955 42.0733 41.9175 42.1109 41.8799 42.1484C33.0006 51.0277 32.9309 65.476 41.7619 74.4358C46.0593 78.7976 51.7947 81.2173 57.9163 81.2656C64.0379 81.3138 69.8054 78.9693 74.1672 74.6718C74.2102 74.6289 74.2477 74.5913 74.2853 74.5538C83.1646 65.6745 83.2343 51.2262 74.4033 42.2664ZM57.9163 80.5788C51.9824 80.5359 46.4081 78.1806 42.2447 73.9529C33.682 65.2614 33.741 51.2423 42.3574 42.6259C42.395 42.5884 42.4379 42.5454 42.4754 42.5079C46.7085 38.3392 52.3043 36.0697 58.2435 36.1073C64.1774 36.1502 69.7517 38.5055 73.9151 42.7332C82.4778 51.4247 82.4188 65.4438 73.8024 74.0602C73.7648 74.0977 73.7219 74.1407 73.6844 74.1782C69.4513 78.3469 63.8555 80.6164 57.9163 80.5788Z" fill="url(#paint13_linear_301_14478)"/>
<path d="M36.5689 36.5683C18.9445 54.1927 18.9445 82.8747 36.5689 100.499C54.1934 118.124 82.8754 118.124 100.5 100.499C118.124 82.8747 118.124 54.1927 100.5 36.5683C82.8754 18.9438 54.1934 18.9438 36.5689 36.5683ZM74.8169 39.1382C84.1201 48.4413 84.6888 63.2169 76.5338 73.1853C84.3293 63.587 83.7928 49.4016 74.8813 40.4365C70.2619 35.785 64.1028 33.2097 57.5466 33.1882C50.9904 33.1668 44.8205 35.6991 40.1689 40.3185L40.1099 40.3775C30.5654 49.9221 30.5332 65.4487 40.0509 75.0309C44.6703 79.6824 50.8294 82.2577 57.3856 82.2791C59.7517 82.2845 62.064 81.9572 64.2798 81.3188C55.6151 83.8994 45.8345 81.7802 39.0047 74.9504C29.1168 65.0625 29.0953 48.9885 38.9403 39.0684C48.8551 29.2288 64.9344 29.2449 74.8223 39.1328L74.8169 39.1382ZM75.3534 75.621C75.3534 75.621 75.3964 75.5781 75.4178 75.5566C75.4393 75.5352 75.4607 75.5137 75.4822 75.4923C85.6867 65.2878 85.6867 48.6774 75.4822 38.4729C70.2995 33.2902 63.4751 30.7471 56.6667 30.8276C64.1564 30.4306 71.7749 33.0809 77.4834 38.7894C88.1546 49.4607 88.1546 66.8222 77.4834 77.4935C66.8122 88.1647 49.4506 88.154 38.7794 77.4827C33.9454 72.6487 31.3165 66.4467 30.8551 60.1158C31.5043 65.7867 33.9937 71.2806 38.3341 75.621C48.5385 85.8255 65.149 85.8255 75.3534 75.621ZM74.2536 74.6392C69.7362 79.1245 63.7487 81.5817 57.3856 81.5602C51.0226 81.5388 45.0458 79.0386 40.566 74.5265C31.3272 65.2234 31.3594 50.1581 40.625 40.8926C40.6464 40.8711 40.6625 40.855 40.684 40.8335C45.2014 36.3483 51.1889 33.8911 57.552 33.9125C63.915 33.934 69.8917 36.4341 74.3716 40.9462C83.6104 50.2493 83.5782 65.3146 74.3126 74.5802C74.2912 74.6017 74.2751 74.6178 74.2536 74.6392ZM38.2751 77.987C49.2253 88.9373 67.0375 88.9373 77.9877 77.987C88.9379 67.0368 88.9379 49.2246 77.9877 38.2744C72.0861 32.3727 64.1886 29.658 56.4414 30.1194C64.8646 29.3039 73.5776 32.1152 80.0157 38.5534C91.4488 49.9864 91.4488 68.582 80.0157 80.0151C68.5827 91.4482 49.9871 91.4481 38.5594 80.0204C32.1212 73.5823 29.3099 64.8693 30.1254 56.4461C29.664 64.1826 32.3734 72.0854 38.2804 77.9924L38.2751 77.987ZM82.5481 38.3388C94.7377 50.5283 94.7376 70.3686 82.5481 82.5581C70.3585 94.7477 50.5236 94.7423 38.3341 82.5528C31.2199 75.4386 28.2691 65.7277 29.4494 56.4461C28.6339 65.041 31.515 73.9203 38.0819 80.4872C49.7725 92.1778 68.7973 92.1778 80.4879 80.4872C92.1785 68.7966 92.1785 49.7718 80.4879 38.0812C73.921 31.5143 65.0363 28.6386 56.4467 29.4487C65.723 28.263 75.4393 31.2192 82.5534 38.3334L82.5481 38.3388ZM55.8941 28.8961C66.1844 27.1149 77.1561 30.1784 85.0858 38.1081C98.0372 51.0595 98.0372 72.1337 85.0858 85.0851C72.1344 98.0365 51.0601 98.0365 38.1141 85.0905C30.1844 77.1608 27.121 66.1891 28.9022 55.8988C27.5287 65.5024 30.5278 75.6264 37.8995 82.9981C50.3305 95.4291 70.557 95.4291 82.988 82.9981C95.419 70.5671 95.419 50.3405 82.988 37.9095C75.6163 30.5379 65.4977 27.5334 55.8888 28.9122L55.8941 28.8961ZM37.7117 85.4929C50.8831 98.6642 72.3221 98.6642 85.4935 85.4929C98.6649 72.3215 98.6649 50.8824 85.4935 37.711C77.0596 29.2771 65.2348 26.2511 54.3597 28.6171C65.9055 25.7951 78.6208 28.8854 87.6235 37.8881C101.337 51.6013 101.337 73.9096 87.6235 87.6228C73.9102 101.336 51.5967 101.331 37.8888 87.6228C28.8861 78.6201 25.7958 65.9048 28.6178 54.359C26.2518 65.2341 29.2724 77.0535 37.7117 85.4929ZM37.5186 87.993C51.4357 101.91 74.0765 101.91 87.9937 87.993C101.911 74.0759 101.911 51.435 87.9937 37.5179C78.5886 28.1128 65.1919 25.0708 53.2008 28.3811C65.8679 24.5879 80.1713 27.6783 90.1558 37.6628C104.626 52.1325 104.631 75.68 90.1558 90.1552C75.6807 104.63 52.1385 104.63 37.6634 90.1552C27.6789 80.1707 24.5886 65.8672 28.3818 53.2002C25.0715 65.1912 28.1081 78.5826 37.5186 87.993V87.993ZM37.3254 90.4932C51.9829 105.151 75.8363 105.151 90.4938 90.4932C105.151 75.8356 105.151 51.9823 90.4938 37.3247C80.0533 26.8842 64.9505 23.8851 51.8274 28.3167C65.6211 23.3754 81.6575 26.4067 92.6882 37.4374C107.92 52.669 107.914 77.4505 92.6828 92.6821C77.4512 107.914 52.6751 107.924 37.4435 92.6929C26.4128 81.6622 23.3761 65.6204 28.3227 51.8321C23.8911 64.9552 26.8903 80.058 37.3308 90.4985L37.3254 90.4932ZM37.1323 92.9933C52.5302 108.391 77.5853 108.391 92.9833 92.9933C108.381 77.5954 108.381 52.5402 92.9833 37.1423C81.4482 25.6073 64.4944 22.7101 50.2393 28.4562C65.1651 22.1683 83.0739 25.0869 95.2098 37.2228C111.203 53.2163 111.198 79.2318 95.2098 95.2198C79.2217 111.208 53.2169 111.213 37.2235 95.2198C25.0876 83.0839 22.1743 65.1698 28.4569 50.2493C22.7108 64.5045 25.608 81.4583 37.143 92.9933H37.1323ZM36.9391 95.4935C53.0828 111.637 79.3451 111.632 95.4834 95.4935C111.622 79.3552 111.622 53.0875 95.4834 36.9492C82.4086 23.8744 62.6971 21.3957 47.1007 29.5024C63.3517 20.8163 84.0557 23.311 97.7475 37.0028C114.497 53.7528 114.497 81.0076 97.7475 97.7575C80.9976 114.507 53.7534 114.507 36.9981 97.7522C23.3117 84.0657 20.8116 63.3671 29.5031 47.1107C21.3964 62.7072 23.8751 82.4186 36.9499 95.4935L36.9391 95.4935ZM100.28 100.29C82.768 117.802 54.2792 117.802 36.7675 100.29C20.8974 84.4091 19.4166 59.5042 32.3359 41.9388C20.039 58.8604 21.509 82.7459 36.7567 97.9936C53.6408 114.878 81.1102 114.878 97.9943 97.9936C114.878 81.1096 114.878 53.6401 97.9943 36.756C82.7466 21.5084 58.861 20.0383 41.9394 32.3352C59.5049 19.416 84.4098 20.8967 100.291 36.7775C117.802 54.2893 117.802 82.7781 100.291 100.29L100.28 100.29Z" fill="url(#paint14_linear_301_14478)"/>
<path d="M36.3809 36.3808C18.0161 54.7456 18.0161 84.6294 36.3809 102.994C54.7458 121.359 84.6295 121.359 102.994 102.994C121.359 84.6294 121.359 54.7456 102.994 36.3808C84.6295 18.016 54.7458 18.016 36.3809 36.3808ZM102.828 102.828C84.5544 121.102 54.8262 121.096 36.558 102.828C18.2897 84.5596 18.279 54.8261 36.5526 36.5525C54.8262 18.2788 84.5544 18.2842 102.823 36.5525C121.091 54.8207 121.091 84.5543 102.823 102.823L102.828 102.828Z" fill="url(#paint15_linear_301_14478)"/>
<path d="M36.1875 36.1877C17.0769 55.2983 17.0823 86.3892 36.1929 105.5C55.3035 124.61 86.3944 124.605 105.5 105.5C124.605 86.3946 124.605 55.2983 105.5 36.1931C86.3944 17.0879 55.2981 17.0771 36.1875 36.1877ZM105.355 105.355C86.33 124.39 55.3625 124.39 36.3324 105.36C17.3023 86.3302 17.3023 55.3627 36.3324 36.3326C55.3625 17.3025 86.33 17.3025 105.36 36.3326C124.39 55.3627 124.39 86.3302 105.36 105.36L105.355 105.355Z" fill="url(#paint16_linear_301_14478)"/>
<path d="M72 21.0849C58.3994 21.0903 45.6143 26.3857 36 36C26.3857 45.6143 21.0903 58.3994 21.0849 72C21.0903 85.6006 26.3857 98.3857 36 108C45.6143 117.614 58.3994 122.91 72 122.915C85.5952 122.915 98.3803 117.62 108 108C117.62 98.3803 122.91 85.6006 122.915 72C122.915 58.4048 117.62 45.6197 108 36C98.3803 26.3803 85.6006 21.0903 72 21.0849ZM107.893 107.893C88.1007 127.685 55.8993 127.685 36.1073 107.893C16.3153 88.1007 16.3153 55.8993 36.1073 36.1073C55.8993 16.3153 88.1007 16.3153 107.893 36.1073C127.685 55.8993 127.685 88.1007 107.893 107.893Z" fill="url(#paint17_linear_301_14478)"/>
<defs>
<linearGradient id="paint0_linear_301_14478" x1="64.6926" y1="67.9758" x2="67.7078" y2="64.9606" gradientUnits="userSpaceOnUse">
<stop stop-color="white"/>
<stop offset="0.88" stop-color="white" stop-opacity="0"/>
</linearGradient>
<linearGradient id="paint1_linear_301_14478" x1="63.0246" y1="68.3035" x2="68.0356" y2="63.2925" gradientUnits="userSpaceOnUse">
<stop stop-color="white"/>
<stop offset="1" stop-color="white" stop-opacity="0"/>
</linearGradient>
<linearGradient id="paint2_linear_301_14478" x1="61.3077" y1="68.7753" x2="68.5077" y2="61.5753" gradientUnits="userSpaceOnUse">
<stop stop-color="white"/>
<stop offset="1" stop-color="white" stop-opacity="0"/>
</linearGradient>
<linearGradient id="paint3_linear_301_14478" x1="59.5636" y1="69.2747" x2="69.0062" y2="59.8321" gradientUnits="userSpaceOnUse">
<stop stop-color="white"/>
<stop offset="1" stop-color="white" stop-opacity="0"/>
</linearGradient>
<linearGradient id="paint4_linear_301_14478" x1="57.809" y1="69.7948" x2="69.5264" y2="58.0774" gradientUnits="userSpaceOnUse">
<stop stop-color="white"/>
<stop offset="1" stop-color="white" stop-opacity="0"/>
</linearGradient>
<linearGradient id="paint5_linear_301_14478" x1="56.0437" y1="70.3154" x2="70.0467" y2="56.3125" gradientUnits="userSpaceOnUse">
<stop stop-color="white"/>
<stop offset="1" stop-color="white" stop-opacity="0"/>
</linearGradient>
<linearGradient id="paint6_linear_301_14478" x1="54.2841" y1="70.8409" x2="70.5726" y2="54.5524" gradientUnits="userSpaceOnUse">
<stop stop-color="white"/>
<stop offset="1" stop-color="white" stop-opacity="0"/>
</linearGradient>
<linearGradient id="paint7_linear_301_14478" x1="52.514" y1="71.3669" x2="71.0988" y2="52.7821" gradientUnits="userSpaceOnUse">
<stop stop-color="white"/>
<stop offset="1" stop-color="white" stop-opacity="0"/>
</linearGradient>
<linearGradient id="paint8_linear_301_14478" x1="50.7377" y1="71.8982" x2="71.6295" y2="51.0064" gradientUnits="userSpaceOnUse">
<stop stop-color="white"/>
<stop offset="1" stop-color="white" stop-opacity="0"/>
</linearGradient>
<linearGradient id="paint9_linear_301_14478" x1="48.9732" y1="72.4291" x2="72.1613" y2="49.2411" gradientUnits="userSpaceOnUse">
<stop stop-color="white"/>
<stop offset="1" stop-color="white" stop-opacity="0"/>
</linearGradient>
<linearGradient id="paint10_linear_301_14478" x1="47.197" y1="72.9607" x2="72.6921" y2="47.4656" gradientUnits="userSpaceOnUse">
<stop stop-color="white"/>
<stop offset="1" stop-color="white" stop-opacity="0"/>
</linearGradient>
<linearGradient id="paint11_linear_301_14478" x1="45.4317" y1="73.4917" x2="73.2231" y2="45.7003" gradientUnits="userSpaceOnUse">
<stop stop-color="white"/>
<stop offset="1" stop-color="white" stop-opacity="0"/>
</linearGradient>
<linearGradient id="paint12_linear_301_14478" x1="43.6558" y1="74.0227" x2="73.7541" y2="43.9243" gradientUnits="userSpaceOnUse">
<stop stop-color="white"/>
<stop offset="1" stop-color="white" stop-opacity="0"/>
</linearGradient>
<linearGradient id="paint13_linear_301_14478" x1="41.8799" y1="74.5538" x2="74.2853" y2="42.1484" gradientUnits="userSpaceOnUse">
<stop stop-color="white"/>
<stop offset="1" stop-color="white" stop-opacity="0"/>
</linearGradient>
<linearGradient id="paint14_linear_301_14478" x1="31.0268" y1="77.6276" x2="118.865" y2="56.328" gradientUnits="userSpaceOnUse">
<stop stop-color="white"/>
<stop offset="1" stop-color="white" stop-opacity="0"/>
</linearGradient>
<linearGradient id="paint15_linear_301_14478" x1="30.8227" y1="78.5185" x2="122.668" y2="57.6535" gradientUnits="userSpaceOnUse">
<stop stop-color="white"/>
<stop offset="1" stop-color="white" stop-opacity="0"/>
</linearGradient>
<linearGradient id="paint16_linear_301_14478" x1="30.4415" y1="79.9189" x2="126.053" y2="58.4423" gradientUnits="userSpaceOnUse">
<stop stop-color="white"/>
<stop offset="1" stop-color="white" stop-opacity="0"/>
</linearGradient>
<linearGradient id="paint17_linear_301_14478" x1="30.0286" y1="81.4265" x2="129.418" y2="59.1022" gradientUnits="userSpaceOnUse">
<stop stop-color="white"/>
<stop offset="1" stop-color="white" stop-opacity="0"/>
</linearGradient>
</defs>
</svg>
