<svg width="102" height="14" viewBox="0 0 102 14" fill="none" xmlns="http://www.w3.org/2000/svg">
<g clip-path="url(#clip0_212_3939)">
<path d="M39.106 1.97852V5.77695H34.7989V1.97852H32.4268V11.9475H34.7989V7.942H39.106V11.9475H41.4832V1.97852H41.3605H39.106Z" fill="#F5F5F5"/>
<path d="M50.1851 1.97852L47.7005 5.92776L45.2211 1.97852H42.417L46.5196 8.49668V11.9475H48.8891V8.49668L52.9866 1.97852H52.7668H50.1851Z" fill="#F5F5F5"/>
<path d="M60.6218 1.97852V9.28909C60.6218 9.56515 60.4122 9.78754 60.1183 9.78754H56.3122V1.97852H53.9375V11.9475H60.9541C61.5753 11.9475 62.0788 11.7634 62.4443 11.403C62.8073 11.0375 62.9914 10.5339 62.9914 9.91279V1.97852H60.6218Z" fill="#F5F5F5"/>
<path d="M72.2096 1.97852H65.1904V11.9475H67.5625V4.13846H71.3686C71.6754 4.13846 71.8722 4.37873 71.8722 4.6369V11.95H74.2417V4.02087C74.2417 3.39462 74.0602 2.89362 73.6973 2.52809C73.3292 2.16511 72.8282 1.97852 72.207 1.97852H72.2096Z" fill="#F5F5F5"/>
<path d="M83.458 1.97852H76.4414V11.9475H83.458C84.0817 11.9475 84.5802 11.7634 84.9482 11.403C85.3112 11.0375 85.4953 10.5365 85.4953 9.91279V4.02087C85.4953 3.39462 85.3112 2.89362 84.9457 2.52809C84.5776 2.16511 84.0792 1.97852 83.458 1.97852ZM83.1257 4.65224V9.27375C83.1257 9.5447 82.9263 9.78754 82.617 9.78754H78.8135V4.13846H82.6043C82.911 4.13846 83.1257 4.35829 83.1257 4.6548V4.65224Z" fill="#F5F5F5"/>
<path d="M89.6294 1.97852C89.0057 1.97852 88.5073 2.16511 88.1417 2.52809C87.7762 2.89362 87.5947 3.39462 87.5947 4.02087V11.95H89.9592V8.86732H94.2714V11.95H96.6409V1.97852H89.6269H89.6294ZM94.2714 4.1359V6.70483H89.9592V4.64202C89.9592 4.39918 90.1534 4.1359 90.4678 4.1359H94.2714Z" fill="#F5F5F5"/>
<path d="M101.325 1.97852H98.9531V11.9475H101.325V1.97852Z" fill="#F5F5F5"/>
<path d="M13.6907 14C21.2543 14 27.384 10.8662 27.384 7.00128C27.384 3.13639 21.2543 0 13.6907 0C6.12708 0 0 3.13383 0 7.00128C0 10.8687 6.13219 14 13.6907 14ZM16.2673 10.5697C16.0449 11.0937 15.6462 12.2235 14.7464 12.6759C14.4754 12.8088 14.1355 12.8753 13.8287 12.8804C13.7623 12.8855 13.7163 12.8804 13.6933 12.8804C11.2164 12.8804 8.90049 12.5456 6.95527 11.9704C6.81212 11.9295 6.49516 11.8503 6.49516 11.656C6.49516 11.5691 6.54117 11.5001 6.60763 11.4362C6.63575 11.4081 6.67665 11.3748 6.73033 11.3288C7.18276 10.948 8.55797 9.95618 11.1346 8.97462C12.0394 8.62954 13.1693 8.19755 14.3527 7.94961C15.0531 7.80135 17.6297 7.41282 16.2647 10.5722M23.1842 3.51725C23.2328 3.42779 23.2992 3.35877 23.4143 3.35366C23.4782 3.34344 23.5625 3.36389 23.6955 3.44313C25.3058 4.43491 26.2593 5.66441 26.2593 7.00128C26.2593 9.41683 23.1535 11.4899 18.7059 12.3999C18.4196 12.4561 18.233 12.4561 18.1665 12.3794C18.1256 12.3334 18.1128 12.2567 18.1665 12.1647C18.1946 12.111 18.2253 12.0701 18.2841 12.0037C20.7048 9.151 22.5503 4.95125 23.0718 3.73197C23.1075 3.65273 23.151 3.57093 23.1842 3.51981M11.155 3.42523C11.38 2.90122 11.7762 1.76885 12.6785 1.31897C12.9494 1.18349 13.2919 1.12215 13.591 1.11192H13.7316C16.2136 1.11192 18.5244 1.44933 20.4747 2.03469C20.6153 2.07815 20.9271 2.13438 20.9271 2.33632C20.9271 2.42578 20.876 2.49735 20.8121 2.5587C20.784 2.58937 20.7457 2.62516 20.6869 2.66861C20.2344 3.04948 18.8643 4.03871 16.2877 5.02027C15.3829 5.37301 14.2454 5.79733 13.067 6.05039C12.3692 6.19609 9.79259 6.58718 11.155 3.42779M8.67811 1.61293C8.96695 1.55414 9.18422 1.55414 9.25068 1.63082C9.29158 1.67427 9.30692 1.75096 9.25068 1.84554C9.21745 1.89666 9.18934 1.94011 9.1331 2.00913C6.70988 4.85923 4.86945 9.06153 4.34544 10.2731C4.30455 10.3601 4.2662 10.4444 4.23553 10.4981C4.1793 10.585 4.11795 10.6489 4.00036 10.6591C3.94157 10.6591 3.85211 10.6463 3.71663 10.5645C2.11393 9.57787 1.11959 8.34325 1.11959 7.00895C1.11959 4.59595 4.23297 2.51525 8.67555 1.61293" fill="#F5F5F5"/>
</g>
<defs>
<clipPath id="clip0_212_3939">
<rect width="102" height="14" fill="white"/>
</clipPath>
</defs>
</svg>
