<svg width="78" height="30" viewBox="0 0 78 30" fill="none" xmlns="http://www.w3.org/2000/svg">
<g clip-path="url(#clip0_212_3951)">
<path d="M75.5824 22.6479C74.0572 22.6479 73.2728 23.6502 73.1483 23.8059C72.7623 23.0775 72.0589 22.6479 71.1251 22.6479C69.7804 22.6479 69.0209 23.4261 68.8964 23.5568C68.8404 23.3452 68.5665 22.7787 67.7011 22.7787C67.4521 22.7787 67.0848 22.8596 67.0537 22.8658C67.0911 23.0277 67.2529 23.8245 67.2529 24.914V29.7386H69.0147V24.8206C69.052 24.7895 69.7119 24.1233 70.5025 24.1233C71.2931 24.1233 71.6916 24.7148 71.6916 25.524V29.7386H73.4658V24.8206C73.5031 24.7895 74.1506 24.1233 74.9536 24.1233C75.7567 24.1233 76.1302 24.7148 76.1302 25.524V29.7386H77.9107V25.2501C77.9107 23.6751 77.0142 22.6479 75.5762 22.6479H75.5824Z" fill="#F5F5F5"/>
<path d="M56.2211 28.4624C55.0197 28.4624 54.1668 27.5161 54.1668 26.2773C54.1668 24.8953 55.1379 24.0735 56.2211 24.0735C56.8063 24.0735 57.0491 24.2541 57.4351 24.2541C57.846 24.2541 58.0701 24.0549 58.2693 23.6564C58.3813 23.4386 58.4498 23.3078 58.4498 23.3078C58.3627 23.2518 57.4662 22.6479 55.9472 22.6479C53.7248 22.6479 52.3926 24.2416 52.3926 26.2773C52.3926 28.4997 53.9116 29.8942 55.9472 29.8942C57.4226 29.8942 58.3191 29.2904 58.4747 29.1783L57.8646 27.9706C57.7277 28.0577 57.0989 28.4624 56.2211 28.4624Z" fill="#F5F5F5"/>
<path d="M36.8601 22.6479C35.1668 22.6479 33.7412 24.0237 33.7412 26.2773C33.7412 28.5309 35.1232 29.8942 37.1963 29.8942C38.8397 29.8942 39.6926 29.1783 39.7922 29.1098C39.7922 29.1098 39.6304 28.8484 39.5868 28.7737C39.3564 28.3939 39.095 28.2756 38.8024 28.2756C38.2234 28.2756 38.1487 28.5184 37.3581 28.5184C36.0072 28.5184 35.5341 27.4601 35.503 26.7567H40.035V26.2337C40.035 24.0735 38.7899 22.6479 36.8663 22.6479H36.8601ZM35.4967 25.5054C35.4967 24.7148 36.0508 23.9802 36.829 23.9802C37.7005 23.9802 38.1799 24.7397 38.1985 25.5054H35.4967Z" fill="#F5F5F5"/>
<path d="M43.0531 27.7833V20.5619C43.0531 19.7464 42.5115 19.1177 41.6649 19.1177H41.2852V28.493C41.2852 29.3583 41.8205 29.8937 42.7481 29.8937C43.8936 29.8937 44.236 29.0782 44.236 28.3125C44.1862 28.3374 43.9434 28.437 43.7006 28.437C43.2897 28.437 43.0469 28.2004 43.0469 27.7895L43.0531 27.7833Z" fill="#F5F5F5"/>
<path d="M32.7193 24.1106L33.236 22.7846H31.2439V20.7053C31.2439 20.7053 31.0883 20.7053 31.082 20.7053C30.2976 20.7053 29.4821 21.0415 29.4821 22.7659V22.7846H28.1748V24.1106H29.4821V28.157C29.4821 29.3025 30.1607 29.9001 31.1194 29.9001C31.8975 29.9001 32.8998 29.6635 32.8998 28.1259C32.8376 28.1632 32.464 28.406 32.047 28.406C31.4742 28.406 31.2439 28.0574 31.2439 27.5469V24.1106H32.7193Z" fill="#F5F5F5"/>
<path d="M47.9421 22.6479C46.2488 22.6479 44.8232 24.0237 44.8232 26.2773C44.8232 28.5309 46.2053 29.8942 48.2783 29.8942C49.9218 29.8942 50.7746 29.1783 50.8742 29.1098C50.8742 29.1098 50.7124 28.8484 50.6688 28.7737C50.4385 28.3939 50.177 28.2756 49.8844 28.2756C49.3055 28.2756 49.2308 28.5184 48.4401 28.5184C47.0893 28.5184 46.6161 27.4601 46.585 26.7567H51.117V26.2337C51.117 24.0735 49.872 22.6479 47.9421 22.6479ZM46.5788 25.5054C46.5788 24.7148 47.1328 23.9802 47.9172 23.9802C48.7888 23.9802 49.2681 24.7397 49.2868 25.5054H46.585H46.5788Z" fill="#F5F5F5"/>
<path d="M62.5277 22.6479C60.3488 22.6479 59.0664 24.0922 59.0664 26.2773C59.0664 28.4624 60.3675 29.9004 62.5277 29.9004C64.8061 29.9004 65.9952 28.3441 65.9952 26.2773C65.9952 24.0922 64.7128 22.6479 62.5277 22.6479ZM62.5277 28.5371C61.432 28.5371 60.8219 27.5722 60.8219 26.2773C60.8219 24.9824 61.4632 24.0113 62.5277 24.0113C63.5922 24.0113 64.2334 24.9638 64.2334 26.2773C64.2334 27.5908 63.6109 28.5371 62.5277 28.5371Z" fill="#F5F5F5"/>
<path d="M5.64013 22.0189C4.57561 21.5209 3.69784 21.1163 3.69784 20.3008C3.69784 19.6782 4.19586 19.2238 5.17946 19.2238C5.54053 19.2238 5.83934 19.2673 6.14438 19.3234C6.30624 19.3483 6.47433 19.3732 6.61751 19.3732C7.4766 19.3732 7.96218 18.8627 8.28589 17.8853L8.41662 17.4869C8.27967 17.4309 6.87275 16.8146 5.0425 16.8146C2.12906 16.8146 0.591405 18.6822 0.591405 20.6245C0.591405 21.6018 0.896445 22.3115 1.37579 22.8718C1.9921 23.5877 2.87609 24.0608 3.69784 24.4593C4.89932 25.0507 5.98253 25.4864 5.98253 26.358C5.98253 27.1299 5.17946 27.5719 4.11493 27.5719C2.64576 27.5719 1.36957 26.7315 1.20149 26.6319L0 28.8917C0.211661 29.01 1.76799 29.9998 4.32037 29.9998C7.04083 29.9998 9.10141 28.4372 9.10141 26.0405C9.10141 23.6437 7.19024 22.766 5.64636 22.0189H5.64013Z" fill="#F5F5F5"/>
<path d="M21.215 17.082H17.6977L13.7633 22.3051H13.7073V17.082H10.8125V29.8937H10.9868C12.2381 29.8937 13.7322 29.3148 13.7322 27.2231V24.2785H13.7882L17.7973 29.7319H21.4827L16.2783 23.1268L21.215 17.0758V17.082Z" fill="#F5F5F5"/>
<path d="M21.3771 3.35522C20.3561 3.54821 18.8434 4.47578 18.8496 6.11304C18.8496 7.60089 20.0698 8.50356 20.076 10.4521C20.076 11.915 19.2729 12.9049 18.4014 13.4527C18.7562 13.4216 19.1422 13.4029 19.5655 13.4029C20.4557 13.4029 20.9973 13.4838 21.0284 13.49L25.6041 7.8748C24.3341 5.96986 22.8462 4.49446 21.3771 3.36145V3.35522Z" fill="#F5F5F5"/>
<path d="M28.0768 12.3514C28.4815 12.3514 28.8612 12.4074 29.5584 12.4012C32.2166 12.3887 33.9597 11.4736 35.0367 10.8697C32.8267 9.46282 29.6082 8.02477 25.6054 7.86292C25.3439 8.5975 23.3207 14.2314 23.165 14.6859C23.1899 14.7108 23.5448 15.1092 23.9868 15.8873C24.6404 16.9519 24.9891 17.8545 25.2256 18.5144C25.8046 17.618 25.8731 16.1862 25.9229 14.7357C25.9789 13.3785 26.259 12.3576 28.0768 12.3514Z" fill="#F5F5F5"/>
<path d="M15.1779 13.5027C15.209 13.7704 15.3273 13.926 15.5577 13.9198C16.2238 13.9198 19.4547 13.2412 19.4485 10.4274C19.4423 8.69676 18.2096 7.75052 18.2034 6.0261C18.1972 4.07758 19.8282 3.13756 20.7371 2.88232C17.5933 0.69101 14.6363 0 14.0947 0C13.908 0 13.7461 0.130732 13.7461 0.373519C13.7461 0.522926 13.8021 0.952473 13.827 1.18281C13.9951 2.77026 15.1406 13.2412 15.1717 13.5027H15.1779Z" fill="#F5F5F5"/>
<path d="M38.1418 14.1127C38.2787 14.038 38.341 13.9259 38.341 13.8076C38.341 13.7454 38.3223 13.6769 38.285 13.6209C38.1044 13.3283 37.1831 12.3509 35.633 11.2739C34.4066 11.9525 32.4892 12.9921 29.638 13.0046C28.9408 13.0046 28.7789 12.961 28.3058 12.961C26.9113 12.961 26.5689 13.5586 26.5129 14.7788C26.5067 15.0091 26.5004 15.3204 26.488 15.6628C26.4444 16.7522 26.3137 18.2587 25.4795 19.2672C25.5293 19.398 25.5729 19.51 25.6227 19.5847C25.6974 19.7092 25.7908 19.7653 25.9028 19.7653C25.9775 19.7653 26.0647 19.7404 26.1643 19.6968C26.4071 19.5847 35.9629 15.1398 37.401 14.4737C37.6126 14.3741 38.0048 14.1936 38.1356 14.1189L38.1418 14.1127Z" fill="#F5F5F5"/>
</g>
<defs>
<clipPath id="clip0_212_3951">
<rect width="78" height="30" fill="white"/>
</clipPath>
</defs>
</svg>
