<svg width="28" height="22" viewBox="0 0 28 22" fill="none" xmlns="http://www.w3.org/2000/svg">
<g clip-path="url(#clip0_212_3949)">
<path d="M8.60671 13.1149L11.3639 9.7202H8.13552C6.94128 9.7202 5.76873 9.99255 4.91674 10.7421L4.67331 11.0422V0H1.39428C0.626643 0 0 0.626643 0 1.3979V22H3.27903C4.04787 22 4.67331 21.3734 4.67331 20.6009V15.1202L7.32932 18.3811L9.58885 21.1613C10.0444 21.7325 10.6421 21.9988 11.2591 21.9988H15.8336L12.8751 18.3691L8.60671 13.1161V13.1149ZM21.6939 16.8543V9.7202H17.0134V17.7316C17.0134 20.2587 18.7559 22 21.2854 22H24.885C25.6574 22 26.2853 21.3734 26.2853 20.6009V18.1112H22.946C22.2543 18.1112 21.6927 17.5472 21.6927 16.8543H21.6939ZM27.065 7.20399L27.0626 4.09728L26.7721 4.40337C26.7649 4.41181 25.8864 5.30839 23.363 5.30839H21.6915V0H18.4113C17.64 0 17.011 0.626643 17.011 1.39549V5.30839H11.4411C9.55993 5.30839 8.67419 6.07482 7.99693 6.90272L5.25898 10.2769C5.25898 10.2769 6.55324 9.05138 8.45366 9.05138H23.363C24.9946 9.05138 26.1142 8.73083 26.6902 8.10057C27.0999 7.64987 27.065 7.2076 27.0638 7.20399H27.065Z" fill="#F5F5F5"/>
</g>
<defs>
<clipPath id="clip0_212_3949">
<rect width="28" height="22" fill="white"/>
</clipPath>
</defs>
</svg>
