<svg width="79" height="26" viewBox="0 0 79 26" fill="none" xmlns="http://www.w3.org/2000/svg">
<g clip-path="url(#clip0_212_3982)">
<path d="M66.8412 0.368448C51.5774 -1.15206 29.2693 2.13135 13.7337 8.4117L12.8082 8.80836C13.0946 8.79367 13.2856 8.80836 13.2856 8.80836C15.8712 8.88181 15.7169 10.4905 15.7169 10.4905V11.4748H13.6602V10.8063C13.6602 10.3289 13.0873 10.2995 13.0873 10.2995C12.6466 10.2995 12.5437 10.6006 12.5437 10.6006C12.3013 11.0561 12.72 11.4527 12.72 11.4527C12.933 11.6878 14.0055 12.1873 14.0055 12.1873C14.3507 12.3195 14.9089 12.6647 14.9089 12.6647C15.9593 13.2964 15.8639 14.4937 15.8639 14.4937V15.2797C15.739 17.2336 13.0432 17.1822 13.0432 17.1822C10.2226 17.1822 10.2813 15.3311 10.2813 15.3311V14.3615H12.4776V15.0299C12.4776 15.5955 13.0285 15.6176 13.0285 15.6176C13.6308 15.6396 13.6749 15.0593 13.6749 15.0593C13.7557 14.4937 13.1387 14.1411 13.1387 14.1411C12.5217 13.8253 11.5007 13.2744 11.5007 13.2744C10.9938 12.9438 10.7882 12.6427 10.7882 12.6427C10.4282 12.1873 10.4503 11.4748 10.4503 11.4748V10.8577C10.4503 10.0057 10.678 9.76326 10.678 9.76326C10.678 9.76326 10.6853 9.75592 10.6853 9.74857C-4.51974 16.859 -2.78621 24.2485 11.3831 25.6221C26.8747 27.1205 50.2625 24.1383 65.9818 17.116C65.9304 17.116 65.8863 17.1307 65.8349 17.1307C65.8349 17.1307 63.1758 17.3438 63.1097 15.1989V11.0487C63.1097 11.0487 62.7792 8.76429 65.7614 8.76429C65.7614 8.76429 67.7006 8.69818 68.2148 9.85141C68.2148 9.85141 68.4645 10.1599 68.3984 11.4307H66.327V10.7769C66.327 10.7769 66.327 10.2481 65.7908 10.2481C65.7908 10.2481 65.2325 10.2701 65.2325 10.7108V15.0006C65.2325 15.0006 65.2105 15.5809 65.8422 15.5809C65.8422 15.5809 66.3564 15.5662 66.3564 14.9638V13.7225H65.7908V12.5692H68.4498V15.0079C68.4498 15.0079 68.4499 15.5221 68.2295 15.8233C68.2295 15.8233 68.0752 16.0583 67.9724 16.1685L68.8392 15.7351C82.7514 8.59534 81.0106 1.77143 66.8412 0.368448ZM21.8504 16.903L21.0497 10.8284H20.8661L20.0654 16.903H17.8692L19.2207 9.07279H22.6878L24.0467 16.903H21.8504ZM32.942 16.9104L32.8906 11.012H32.751L31.6859 16.9104H29.5411L28.4613 11.012H28.2997L28.2776 16.9177H26.2356L26.4046 9.08014H29.8496L30.5107 13.3699H30.6723L31.3627 9.08014H34.771L34.9914 16.9104H32.942ZM42.8657 14.4937V15.2797C42.7408 17.2336 40.045 17.1822 40.045 17.1822C37.2244 17.1822 37.2832 15.3311 37.2832 15.3311V14.3615H39.4794V15.0299C39.4794 15.5955 40.0303 15.6176 40.0303 15.6176C40.6327 15.6396 40.6767 15.0593 40.6767 15.0593C40.7575 14.4937 40.1405 14.1411 40.1405 14.1411C39.5235 13.8253 38.5025 13.2744 38.5025 13.2744C37.9957 12.9438 37.79 12.6427 37.79 12.6427C37.4301 12.1873 37.4521 11.4748 37.4521 11.4748V10.8577C37.4521 10.0057 37.6798 9.76326 37.6798 9.76326C38.2601 8.66879 40.2948 8.80101 40.2948 8.80101C42.8804 8.87447 42.7261 10.4831 42.7261 10.4831V11.4674H40.6694V10.799C40.6694 10.3215 40.0965 10.2921 40.0965 10.2921C39.6557 10.2921 39.5529 10.5933 39.5529 10.5933C39.3105 11.0487 39.7292 11.4454 39.7292 11.4454C39.9422 11.6804 41.0146 12.1799 41.0146 12.1799C41.3599 12.3121 41.9181 12.6574 41.9181 12.6574C42.9685 13.2891 42.873 14.4864 42.873 14.4864L42.8657 14.4937ZM50.9383 15.0226C50.9383 17.1748 48.2132 17.1454 48.2132 17.1454C45.0767 17.1454 45.3044 14.9198 45.3044 14.9198V9.04341H47.5447V14.9638C47.5521 15.6249 48.1838 15.5955 48.1838 15.5955C48.7861 15.5955 48.7494 14.9491 48.7494 14.9491V9.04341H50.9383V15.0226ZM60.3552 16.9104H57.9238L55.7496 12.1212H55.6614L55.7863 16.9104H53.7443V9.08014H56.2564L58.3572 13.8326H58.4454L58.2985 9.08014H60.3699V16.9177L60.3552 16.9104Z" fill="#F5F5F5"/>
</g>
<defs>
<clipPath id="clip0_212_3982">
<rect width="79" height="26" fill="white"/>
</clipPath>
</defs>
</svg>
