<svg width="33" height="44" viewBox="0 0 33 44" fill="none" xmlns="http://www.w3.org/2000/svg">
<g clip-path="url(#clip0_212_3966)">
<path d="M20.5833 0L32.6586 28.8097V0H20.5833ZM0.0556641 0V28.8097L12.131 0H0.0556641ZM11.0965 22.9355H16.6109L19.0307 28.7992H24.0272L16.2735 10.5243L11.0965 22.937V22.9355Z" fill="#F5F5F5"/>
<path d="M2.21875 41.0464L1.80524 43.4006C1.77986 43.4887 1.74105 43.5185 1.66342 43.5185H0.0929898C0.0153638 43.5185 -0.010014 43.4737 0.0034213 43.3707L2.02618 34.3766C2.07842 34.2288 2.11724 34.081 2.14261 33.5764C2.14261 33.5182 2.16799 33.4719 2.22024 33.4719L4.39675 33.4659C4.46094 33.4659 4.47438 33.4809 4.48781 33.5555L6.7524 43.3931C6.76584 43.4827 6.7524 43.526 6.67478 43.526H5.12674C5.06255 43.526 5.02373 43.4961 4.99686 43.4364L4.59082 41.0464H2.21875ZM4.3042 39.3357C4.03251 38.3504 3.66826 36.2724 3.41001 35.2349H3.39657C3.18907 36.2351 2.82035 37.7503 2.47999 39.3252L4.3042 39.3357Z" fill="#F5F5F5"/>
<path d="M7.22559 39.7671C7.41816 37.4562 8.36161 35.7006 10.6501 35.7006C10.8307 35.7006 10.986 35.7156 11.2069 35.7454V33.0166C11.2069 32.9434 11.2323 32.9136 11.2845 32.9136H12.7012C12.7654 32.9136 12.7654 32.9434 12.7654 33.0017L12.846 41.9092C12.846 42.2063 12.8654 42.7915 12.8908 43.0647C12.8908 43.1393 12.8191 43.1259 12.7549 43.1557C11.9085 43.5707 11.08 43.7305 10.2978 43.7349C8.71392 43.7424 7.27037 42.5213 7.22559 39.7685M11.2069 37.6338C11.0382 37.5592 10.8322 37.5308 10.5993 37.5308C9.4424 37.5308 9.09607 38.3205 9.09607 39.7566C9.09607 41.3793 9.423 42.1093 10.4575 42.1093C10.7158 42.1093 10.974 42.0794 11.2144 41.9898V37.6323H11.2084L11.2069 37.6338Z" fill="#F5F5F5"/>
<path d="M19.7077 39.7209C19.7077 42.1796 18.5731 43.9232 16.9116 43.9232C14.9396 43.9232 14.0693 41.875 14.0693 39.8598C14.0693 37.6056 15.1665 35.7799 16.934 35.7799C18.7015 35.7799 19.7062 37.5474 19.7062 39.7209M15.7965 39.8224C15.7965 41.2839 16.0354 42.302 16.9325 42.302C17.667 42.302 17.9715 41.4421 17.9715 39.806C17.9715 38.4849 17.8655 37.3847 16.8624 37.3847C16.0757 37.3847 15.7965 38.3132 15.7965 39.8224Z" fill="#F5F5F5"/>
<path d="M28.8022 40.2798C28.838 41.4173 29.2754 42.2592 30.5129 42.2592C31.0563 42.2592 31.4892 42.198 31.949 41.9398C31.9848 41.9069 32.0222 41.9234 32.0222 42.0055V43.3535C32.0222 43.4505 31.9983 43.4983 31.949 43.5311C31.4907 43.8222 30.9533 43.9998 30.1323 43.9998C27.9229 43.9998 27.1377 41.9263 27.1377 39.9319C27.1377 37.6808 28.1573 35.6864 29.9875 35.6864C31.8176 35.6864 32.476 37.5673 32.476 39.1079C32.476 39.5602 32.464 39.9319 32.4282 40.1171C32.4163 40.1812 32.3924 40.2141 32.3312 40.2305C32.1625 40.2783 31.6788 40.2947 31.0817 40.2947L28.8052 40.2887V40.2813L28.8022 40.2798ZM30.4219 38.8138C30.8802 38.8138 30.9026 38.8138 30.9503 38.7974V38.669C30.9503 38.2003 30.8428 37.2344 29.9188 37.2344C29.0798 37.2344 28.9216 38.0152 28.8246 38.8138H30.4204H30.4219Z" fill="#F5F5F5"/>
<path d="M26.4405 39.1771C26.2539 36.8662 25.1791 35.7168 22.9563 35.7168C22.7801 35.7168 22.6294 35.7317 22.4159 35.7615V33.0327C22.4159 32.9595 22.3905 32.9297 22.3398 32.9297H20.9649C20.9022 32.9297 20.9022 32.9595 20.9022 33.0178L20.8246 41.9268C20.8246 42.2239 20.8186 43.0808 20.832 43.3599C20.835 43.4346 20.9515 43.5003 21.0574 43.5346C21.9352 43.8152 22.5413 43.8003 23.2981 43.7525C24.8372 43.6555 26.3957 41.9328 26.4405 39.1801M22.5174 37.3872C22.7383 37.3275 22.9518 37.3603 23.1772 37.3783C24.3207 37.4678 24.467 38.3366 24.467 39.7742C24.467 41.3969 24.149 42.1269 23.1444 42.1269C22.8936 42.1269 22.7473 42.0896 22.5144 42L22.5099 37.3857H22.5159L22.5174 37.3872Z" fill="#F5F5F5"/>
</g>
<defs>
<clipPath id="clip0_212_3966">
<rect width="33" height="44" fill="white"/>
</clipPath>
</defs>
</svg>
