<svg width="55" height="24" viewBox="0 0 55 24" fill="none" xmlns="http://www.w3.org/2000/svg">
<g clip-path="url(#clip0_212_3934)">
<path fill-rule="evenodd" clip-rule="evenodd" d="M11.9974 0C5.3726 0 0 5.3726 0 12C0 18.6274 5.3726 24 11.9974 24C18.6222 24 23.9991 18.6274 23.9991 12C23.9991 5.3726 18.6274 0 11.9974 0ZM14.9221 16.2238V17.1451H12.4377V17.1512H11.5146V6.8306H12.4377V16.2238H14.9221ZM11.9974 22.0444C6.45025 22.0444 1.95296 17.5489 1.95296 12C1.95296 6.45112 6.45025 1.95296 11.9974 1.95296C12.1441 1.95296 12.2909 1.95904 12.4377 1.96512V2.87604C12.2909 2.86996 12.1424 2.86822 11.9974 2.86822C6.95477 2.86822 2.86562 6.95911 2.86562 11.9991C2.86562 17.0391 6.95477 21.13 11.9974 21.13C17.04 21.13 20.9095 17.2623 21.1231 12.4107L21.1248 12.3821H14.936V11.4633H22.0297C22.0418 11.6405 22.0418 11.8168 22.0418 11.9983C22.0418 17.5471 17.548 22.0427 11.9974 22.0427V22.0444ZM9.66235 8.20001C9.66235 8.98068 9.03018 9.61198 8.25038 9.61198C7.47058 9.61198 6.83841 8.98068 6.83841 8.20001C6.83841 7.41935 7.47232 6.79065 8.25038 6.79065C9.02844 6.79065 9.66235 7.42022 9.66235 8.20001Z" fill="#F5F5F5"/>
<path fill-rule="evenodd" clip-rule="evenodd" d="M51.8896 8.4322L54.1525 6.3099C51.986 4.12942 50.3291 4.09208 47.7344 4.12595C44.0855 4.17197 40.9785 6.1232 40.9785 10.2184V13.4705C40.9785 16.594 43.4803 19.6316 46.6568 19.6316H48.654C50.3274 19.6316 52.7093 19.3077 54.0119 18.2639V11.0486H48.2416V13.8022H51.0481V16.4655C47.4696 17.5961 43.9622 17.1428 43.9622 12.6455V11.006C43.9622 8.01104 45.6356 6.73366 48.0653 6.72845C49.6422 6.72411 50.8606 6.80227 51.8904 8.43133L51.8896 8.4322Z" fill="#F5F5F5"/>
<path fill-rule="evenodd" clip-rule="evenodd" d="M29.2979 4.12H32.4075V16.9762H40.1429V19.6308H29.2979V4.12Z" fill="#F5F5F5"/>
</g>
<defs>
<clipPath id="clip0_212_3934">
<rect width="55" height="24" fill="white"/>
</clipPath>
</defs>
</svg>
